<svg width="134" height="134" viewBox="0 0 134 134" fill="none" xmlns="http://www.w3.org/2000/svg">
<path d="M60.0642 44.9511C60.1051 44.9474 60.1463 44.9548 60.1835 44.9724C60.2206 44.9901 60.2523 45.0173 60.2753 45.0514C60.7201 45.5992 61.1583 46.1508 61.6044 46.6959C61.8117 46.9548 61.9934 47.2333 62.1468 47.5274C62.5427 48.2783 63.0086 48.991 63.431 49.7275C63.8533 50.4639 64.3126 51.2281 64.7508 51.9777C65.3169 52.9425 65.8805 53.9099 66.4493 54.8733C66.8281 55.5148 67.2069 56.1575 67.5962 56.7936C67.8668 57.2345 68.1545 57.666 68.4356 58.1016C68.7379 58.5727 69.019 59.0544 69.2922 59.5441C69.5957 60.0852 69.9177 60.6171 70.216 61.1608C70.6265 61.9039 71.0224 62.6575 71.3722 63.4322C71.4548 63.6218 71.5569 63.8023 71.677 63.9707C72.107 64.5807 72.4921 65.2211 72.8292 65.887C73.1124 66.4396 73.4385 66.9692 73.8045 67.4708C74.0748 67.8377 74.3154 68.2256 74.5238 68.6309C74.8736 69.2908 75.2167 69.9507 75.6311 70.5736C76.0228 71.1605 76.3414 71.7929 76.5801 72.4569C76.7701 72.9849 76.9549 73.5128 77.1542 74.0407C77.3535 74.5686 77.5105 75.0965 77.657 75.6416C77.7375 75.9412 77.789 76.25 77.8365 76.5562C77.9817 77.4339 78.1374 78.3116 78.2602 79.1958C78.4119 80.223 78.3815 81.2688 78.1704 82.2854C78.1005 82.6101 78.0384 82.9361 77.9896 83.2647C77.9135 83.6699 77.8013 84.0674 77.6544 84.4525C77.6329 84.511 77.6073 84.5679 77.5778 84.6228C77.3627 85.0583 77.3429 85.0557 76.8585 85.0319C76.4036 85.0034 75.9522 84.9341 75.5097 84.8247C75.2098 84.7403 74.9235 84.6132 74.6598 84.4473C74.1741 84.1701 73.6963 83.8771 73.2199 83.5828C73.0426 83.4755 72.8752 83.3528 72.7197 83.2159C72.1192 82.6761 71.5319 82.1244 70.9775 81.5332C70.3401 80.8522 70.0286 80.2134 69.5984 79.4743C69.279 78.9253 69.0625 78.4937 68.9847 78.334C68.704 77.7588 68.4525 77.1699 68.2311 76.5694C67.9512 75.8054 67.7111 75.0275 67.5118 74.2387C67.4484 73.9919 67.2966 73.4059 67.0921 72.614C67.034 72.3936 66.9746 72.1745 66.9033 71.9541C66.7885 71.5991 66.6724 71.2441 66.5391 70.8983C66.3913 70.5023 66.3305 70.0972 66.217 69.6986C66.1035 69.3 65.9531 68.9146 65.8739 68.5108C65.771 68.004 65.6218 67.5064 65.5057 67.0009C65.4041 66.5575 65.3196 66.1101 65.2312 65.664C65.0684 64.851 64.9078 64.0384 64.7494 63.2263C64.7006 62.9822 64.6597 62.7367 64.6175 62.4925C64.5238 62.0029 64.3773 61.5277 64.2506 61.0473C63.9787 60.0271 63.6197 59.0294 63.4455 57.9828C63.237 57.3097 63.1512 56.6036 62.8951 55.9437C62.8571 55.847 62.8275 55.7472 62.8067 55.6454C62.6576 54.8694 62.3962 54.125 62.1758 53.3701C62.0887 53.0718 62.0122 52.7696 61.9277 52.4713C61.867 52.2522 61.8037 52.0318 61.739 51.8114C61.5569 51.1951 61.3589 50.5827 61.1952 49.9637C60.9841 49.1626 60.7993 48.3536 60.6013 47.5498C60.5367 47.2859 60.4693 47.0219 60.3888 46.7711C60.2326 46.2757 60.1187 45.768 60.0483 45.2534C60.0146 45.154 60.0217 45.0453 60.0681 44.9511" fill="#EADED2"/>
<path d="M79.0649 84.2031C78.9593 84.244 78.801 84.3034 78.6096 84.3813C78.3456 84.4868 78.2031 84.5515 78.178 84.5132C78.1529 84.475 78.2453 84.4129 78.3324 84.2493C78.3813 84.1508 78.4176 84.0466 78.4406 83.9391C78.7046 82.8833 78.7798 82.8028 78.8801 82.1284C78.8913 82.0461 78.9071 81.9646 78.9276 81.8842C79.1335 81.1662 79.2193 80.4232 79.3658 79.692C79.4133 79.4492 79.4859 79.2103 79.5532 78.9714C79.6047 78.7919 79.676 78.6177 79.7195 78.4435C79.8043 78.1239 79.9229 77.8142 80.0732 77.5197C80.3645 76.923 80.7128 76.3559 81.1132 75.8264C81.2901 75.5901 81.4366 75.5426 81.6781 75.2536C81.8712 75.0171 82.0451 74.7655 82.1981 74.5013C82.4475 74.0974 82.4541 74.0275 82.821 73.3861C83.0929 72.9123 83.0969 72.936 83.1827 72.7552C83.3516 72.3949 83.3925 72.1415 83.5324 71.6994C83.6565 71.3034 83.7554 70.8996 83.8914 70.5116C84.117 69.8219 84.2675 69.1099 84.3401 68.388C84.3784 68.0594 84.4206 67.7281 84.4576 67.4008C84.4859 67.173 84.5773 66.9577 84.7215 66.7792C85.227 66.0965 85.7749 65.4463 86.362 64.8325C86.7117 64.4785 87.0292 64.0943 87.311 63.6843C87.4281 63.5133 87.5541 63.3485 87.6884 63.1907C88.4658 62.276 89.2326 61.3495 90.0495 60.4692C90.1908 60.3175 90.3399 60.1736 90.493 60.035C90.8286 59.7265 91.1459 59.3986 91.4432 59.0531C91.6909 58.75 91.9552 58.4609 92.2351 58.1873C92.2483 58.1754 92.28 58.1636 92.2906 58.1702C92.3235 58.1913 92.3697 58.2164 92.3777 58.2467C92.3941 58.327 92.4008 58.409 92.3975 58.4909C92.3763 58.801 92.3579 59.1112 92.3262 59.4147C92.2188 60.4239 92.1097 61.4336 91.9989 62.4437C91.983 62.5875 91.9619 62.7314 91.9369 62.8739C91.7415 64.0181 91.486 65.1511 91.1714 66.2684C90.8216 67.4404 90.4257 68.5979 90.0324 69.7553C89.9004 70.1513 89.713 70.5195 89.5559 70.9035C89.4464 71.1675 89.3435 71.4433 89.2392 71.7139C89.0978 72.0818 88.9293 72.4387 88.735 72.7816C88.4711 73.2514 88.2256 73.7318 87.9537 74.1964C87.7135 74.6069 87.4496 75.0054 87.1935 75.4067C87.0048 75.7049 86.7976 75.9913 86.626 76.2975C85.9983 77.396 85.2645 78.4304 84.4351 79.3858C83.8703 80.0457 83.3212 80.7215 82.7643 81.3906C82.6191 81.5648 82.4739 81.7417 82.3169 81.908C82.1914 82.0448 82.054 82.1702 81.9064 82.2828C81.4089 82.655 80.9285 83.0496 80.4058 83.3861C80.1326 83.563 80.1419 83.6145 79.9676 83.7319C79.6855 83.9225 79.3826 84.0806 79.0649 84.2031Z" fill="#EADED2"/>
<path d="M73.8205 85.4293C72.8293 85.5771 72.6327 85.7368 71.7326 85.8965C71.3427 85.9561 70.9478 85.9756 70.554 85.9546C69.3754 85.9137 68.1968 85.8635 67.0169 85.8358C66.0642 85.8001 65.1162 85.6831 64.1833 85.486C63.7373 85.3976 63.2872 85.3211 62.8372 85.2538C62.3449 85.1812 61.8552 85.102 61.3722 84.9806C60.8891 84.8592 60.4048 84.7457 59.9204 84.6361C59.5371 84.5445 59.1608 84.4254 58.7946 84.2798C58.3512 84.1082 57.8998 83.9525 57.4564 83.7756C56.9562 83.5763 56.4546 83.3797 55.9663 83.1527C54.9699 82.692 53.9616 82.2526 53.006 81.7009C52.2142 81.2482 51.4289 80.7849 50.6674 80.2834C50.0814 79.8954 49.5336 79.448 48.978 79.0177C48.3881 78.5598 47.806 78.0939 47.224 77.6267C47.1114 77.5354 47.0039 77.4381 46.902 77.335C46.89 77.32 46.8814 77.3025 46.8768 77.2838C46.8722 77.2651 46.8718 77.2457 46.8756 77.2268C46.8848 77.1925 46.9271 77.1674 46.9574 77.1436C46.9754 77.1331 46.9959 77.1276 47.0168 77.1278C47.4127 77.1278 47.8087 77.1344 48.1954 77.145C48.6507 77.1569 49.1062 77.137 49.5587 77.0856C49.7639 77.0584 49.9707 77.0443 50.1777 77.0433C51.1293 77.0658 52.0822 77.0288 53.0337 77.1027C53.3426 77.1252 53.654 77.1159 53.9576 77.1252C54.1028 77.1271 54.2478 77.1377 54.3918 77.1568C54.9657 77.2419 55.5469 77.2671 56.126 77.2321C56.8086 77.2136 57.4916 77.2347 58.1717 77.2954C59.081 77.364 58.8224 77.2954 59.5166 77.8101C59.9546 78.1615 60.411 78.4893 60.8839 78.7921C61.1148 78.924 61.3511 79.056 61.59 79.188C62.069 79.4348 62.5521 79.6737 63.0338 79.9152C63.1816 79.9891 63.3294 80.0657 63.4812 80.133C64.0316 80.3745 64.5846 80.6094 65.1336 80.8536C65.4405 80.9791 65.7593 81.0733 66.0852 81.1347C66.6725 81.2667 67.2585 81.3987 67.8471 81.5174C68.5975 81.6828 69.3157 81.9699 69.9733 82.3674C70.2056 82.4994 70.4445 82.6313 70.682 82.7541C71.1617 83.0031 71.6219 83.2881 72.0586 83.6067C72.6894 84.0765 73.0233 84.2837 73.3058 84.5305C73.4691 84.681 73.6542 84.806 73.8548 84.9014C74.015 84.9703 74.18 85.0276 74.3484 85.073C74.7905 85.2049 74.9476 85.2221 74.9476 85.259C74.9476 85.3277 74.4434 85.3356 73.8271 85.428" fill="#EADED2"/>
<path d="M68.6711 79.3599C68.7252 79.4523 68.8031 79.5803 68.8955 79.7307C69.1264 80.0963 69.2162 80.1979 69.1779 80.2586C69.1397 80.3194 68.9747 80.2586 68.6236 80.2679C68.4653 80.2729 68.3074 80.2883 68.1511 80.3141C68.1511 80.3141 67.9637 80.3378 67.1019 80.4197C66.4179 80.4585 65.7329 80.3634 65.0852 80.1399C64.4102 79.8744 63.7529 79.5658 63.1174 79.216C62.5499 78.9142 61.9868 78.6063 61.4281 78.2922C60.8186 77.9378 60.2323 77.5451 59.6728 77.1162C58.8131 76.466 57.9562 75.8123 57.1018 75.155C56.3284 74.5611 55.6171 73.8933 54.9057 73.2307C54.7829 73.1172 54.6681 72.9985 54.5427 72.8889C53.6651 72.1261 52.8587 71.292 52.0589 70.4513C51.4702 69.839 50.9305 69.1815 50.4448 68.4848C50.4361 68.4669 50.4316 68.4472 50.4316 68.4274C50.4316 68.4075 50.4361 68.3879 50.4448 68.37C50.4561 68.3542 50.471 68.3414 50.4882 68.3325C50.5054 68.3235 50.5244 68.3187 50.5438 68.3185C51.0812 68.3723 51.6021 68.5348 52.0747 68.7962C52.2362 68.8856 52.4043 68.9624 52.5776 69.0259C53.3879 69.344 54.2101 69.6277 55.039 69.8969C55.5784 70.0523 56.1074 70.2419 56.6227 70.4645C56.6986 70.4986 56.7772 70.5264 56.8577 70.5476C57.6304 70.7884 58.3696 71.1259 59.0578 71.552C59.7802 71.9972 60.5296 72.3975 61.3014 72.7503C61.7198 72.9325 62.1408 73.1067 62.5565 73.2954C63.029 73.5092 63.4949 73.7362 63.9634 73.9553C63.9999 73.9748 64.0373 73.9924 64.0756 74.0081C64.7817 74.2615 65.4218 74.6495 66.0843 74.9927C66.2898 75.0943 66.4702 75.2404 66.6122 75.4203C66.9629 75.8568 67.2557 76.3367 67.4833 76.8483C67.8555 77.7167 68.1076 78.1773 68.5193 79.0378C68.5853 79.1698 68.6408 79.2886 68.6751 79.3599" fill="#EADED2"/>
<path d="M78.5641 76.8312C78.5522 76.7731 78.5311 76.6992 78.5192 76.6121C78.4255 75.9773 78.3384 75.3411 78.2381 74.7063C78.1866 74.379 78.1193 74.0557 78.048 73.7323C77.9778 73.385 77.9578 73.0294 77.9886 72.6765C78.0137 72.2634 78.0375 71.8503 78.0731 71.4372C78.0913 71.2519 78.1222 71.068 78.1655 70.8868C78.213 70.6849 78.2724 70.4909 78.3344 70.2877C78.5007 69.7597 78.6406 69.2133 78.766 68.6669C78.8585 68.2846 78.9713 67.9075 79.1039 67.5372C79.3137 66.9301 79.5407 66.3296 79.7638 65.7251C80.0686 64.8857 80.2666 64.016 80.4857 63.1529C80.5622 62.8519 80.6375 62.5497 80.7259 62.2528C80.8614 61.7956 81.034 61.3502 81.2419 60.9211C81.4584 60.475 81.6379 60.0091 81.8385 59.5551C81.9704 59.2515 82.1209 58.9546 82.2529 58.651C82.56 57.9471 82.8639 57.2433 83.1649 56.5394C83.2108 56.4238 83.247 56.3046 83.2731 56.183C83.4077 55.658 83.6445 55.1647 83.9699 54.7313C83.9763 54.7236 83.9844 54.7177 83.9936 54.714C84.0029 54.7103 84.0129 54.709 84.0227 54.7101C84.0584 54.722 84.1112 54.7365 84.1204 54.7629C84.1569 54.8597 84.183 54.9602 84.1983 55.0625C84.3195 56.0071 84.3913 56.9573 84.4134 57.9093C84.4266 58.8213 84.4371 59.7319 84.3989 60.6426C84.3725 61.2629 84.3606 61.8845 84.3447 62.5061C84.3276 63.1898 84.2629 63.8695 84.1785 64.5492C84.0689 65.4335 83.9726 66.319 83.8683 67.2033C83.8366 67.4673 83.7957 67.7312 83.7601 68.0044C83.7166 68.3119 83.6368 68.6131 83.5225 68.9019C83.409 69.1909 83.314 69.4879 83.2295 69.7875C83.0606 70.3853 82.9088 70.9885 82.7399 71.5863C82.6854 71.7864 82.612 71.9808 82.5208 72.167C82.2463 72.724 81.9612 73.2757 81.6748 73.8287C81.4846 74.1739 81.2538 74.4951 80.9872 74.7855C80.6071 75.2254 80.2292 75.6654 79.8535 76.1053C79.6056 76.4112 79.325 76.6892 79.0167 76.9341C78.9652 76.9688 78.9109 76.9993 78.8544 77.0252C78.8155 77.036 78.7743 77.035 78.736 77.0223C78.6977 77.0096 78.664 76.9858 78.6393 76.9539C78.6195 76.917 78.601 76.88 78.5693 76.8219" fill="#EADED2"/>
<path d="M73.277 55.0724C73.541 55.8563 73.8142 56.6403 74.0926 57.4229C74.1824 57.6763 74.2919 57.9231 74.4054 58.1673C74.6166 58.6186 74.833 59.0661 74.8964 59.5689C75.1284 60.4084 75.27 61.2703 75.3187 62.1399C75.3583 62.6361 75.4151 63.1297 75.4507 63.6259C75.4745 63.9559 75.485 64.2858 75.4758 64.6184C75.4838 64.9716 75.5111 65.3241 75.5576 65.6743C75.5998 66.2101 75.6592 66.7459 75.6896 67.2831C75.716 67.679 75.745 68.7586 75.7648 69.2813C75.7648 69.5241 76.0288 70.7581 75.6658 70.0005C75.5589 69.8804 75.2699 69.3076 75.1907 69.1823C74.6628 68.3112 73.9699 66.7433 73.475 65.8828C73.3758 65.7004 73.2941 65.509 73.2308 65.3113C72.9959 64.6681 72.6988 64.0492 72.3439 63.4636C72.2941 63.3956 72.25 63.3237 72.2119 63.2485C72.0549 62.838 71.7988 62.4843 71.5692 62.1148C71.5018 62.0105 71.4427 61.901 71.3923 61.7875C71.0713 61.0222 70.8083 60.2338 70.6057 59.429C70.326 58.3032 70.0778 57.1708 69.8799 56.0266C69.8442 55.8233 69.7796 55.624 69.7479 55.4208C69.653 54.9114 69.6026 54.3947 69.5974 53.8766C69.5842 52.3641 69.5064 50.853 69.4536 49.3418C69.427 48.7417 69.4367 48.1406 69.4826 47.5416C69.5011 47.377 69.4984 47.2107 69.4747 47.0467C69.4263 46.7183 69.4228 46.3849 69.4641 46.0555C69.4826 45.8708 69.4918 45.6847 69.5116 45.4986C69.5116 45.4695 69.5565 45.4405 69.5856 45.4207C69.5948 45.4207 69.6278 45.4273 69.641 45.4418C69.6839 45.4865 69.722 45.5356 69.7545 45.5883C69.8032 45.6789 69.8472 45.7718 69.8865 45.8668C70.3642 46.9926 70.8526 48.1105 71.2525 49.2719C71.4623 49.8777 71.7117 50.4689 71.8846 51.0879C71.9348 51.2687 71.9981 51.4456 72.0311 51.629C72.1631 52.3074 72.4271 52.9369 72.7055 53.5612C72.926 54.0534 73.1177 54.558 73.2797 55.0724" fill="#EADED2"/>
<path d="M77.9556 48.7795C78.1708 49.2758 78.2051 49.8631 78.3516 50.4253C78.4532 50.8212 78.5324 51.2343 78.6155 51.6395C79.0115 53.4872 79.3427 55.3415 79.6978 57.1958C79.7242 57.3371 79.7466 57.4809 79.7611 57.6248C79.7946 57.9352 79.8448 58.2436 79.9116 58.5486C80.0013 58.9525 80.0435 59.3669 80.099 59.7774C80.1907 60.3927 80.2265 61.0151 80.2059 61.6369C80.1945 62.0728 80.1266 62.5053 80.004 62.9237C79.8152 63.5599 79.6199 64.1934 79.3691 64.8097C79.1611 65.3291 78.9848 65.8606 78.8412 66.4014C78.5614 67.4216 78.2565 68.4352 77.891 69.4277C77.6632 70.0521 77.3477 70.6409 76.9539 71.1764C76.917 71.2239 76.9143 71.2635 76.8668 71.3084C76.8747 71.3559 76.6741 71.509 76.657 71.4707C76.6147 71.377 76.5527 71.0748 76.525 70.9824C76.4577 70.6287 76.3745 70.1219 76.3125 69.5082C76.2449 68.731 76.2163 67.9509 76.2267 67.1708C76.2267 66.4423 76.2399 66.0516 76.2584 65.2624C76.2584 65.1806 76.2927 63.6866 76.3006 62.1886C76.3099 59.9674 76.3006 59.7985 76.3006 58.5816C76.3006 58.0431 76.3442 57.5047 76.3587 56.9662C76.3732 56.4884 76.3745 56.012 76.3785 55.5355C76.3781 54.9757 76.4276 54.417 76.5263 53.866C76.5764 53.602 76.6279 53.3381 76.6583 53.0675C76.7493 52.1991 76.9394 51.3518 77.078 50.49C77.1308 50.1627 77.177 49.8301 77.2166 49.5041C77.2702 49.0506 77.3856 48.6065 77.5597 48.1843C77.5795 48.1394 77.6917 48.1275 77.7247 48.1685C77.7631 48.2162 77.7955 48.2685 77.821 48.3242C77.8672 48.4562 77.9028 48.6027 77.953 48.7874" fill="#EADED2"/>
<path d="M66.436 73.7335C66.5839 73.9301 66.8399 74.6573 66.8716 74.8236C66.8731 74.8267 66.8739 74.8301 66.8739 74.8335C66.8739 74.837 66.8731 74.8403 66.8716 74.8434C66.8359 74.8804 66.6076 74.6956 66.2882 74.5029C66.18 74.4369 66.1483 74.4237 65.9319 74.3063C65.4818 74.0634 65.1492 73.8681 64.9763 73.7691C64.4709 73.4814 63.7885 73.228 62.5268 72.5536C62.0332 72.2896 61.5251 72.0573 61.009 71.8382C60.3993 71.5743 59.8014 71.2919 59.2023 71.0055C58.8108 70.8137 58.4522 70.5611 58.1398 70.2571C57.7261 69.8827 57.3484 69.4705 57.0114 69.0258C56.6709 68.5572 56.2802 68.1243 55.9925 67.6162C55.9124 67.4943 55.8242 67.3779 55.7286 67.2678C55.5187 66.9854 55.297 66.7109 55.099 66.4205C54.4462 65.4623 53.7986 64.5011 53.1563 63.5367C52.7313 62.8993 52.2958 62.2697 51.8985 61.6125C51.5989 61.1162 51.2703 60.6372 50.9469 60.1607C50.7149 59.7931 50.5119 59.4078 50.3398 59.0085C50.3292 58.9907 50.3246 58.9698 50.3266 58.9491C50.3296 58.9113 50.3434 58.8752 50.3662 58.8449C50.3812 58.8318 50.399 58.8223 50.4182 58.817C50.4374 58.8117 50.4575 58.8109 50.4771 58.8145C50.8688 58.9519 51.2352 59.1525 51.562 59.4084C52.1625 59.8888 52.8118 60.2953 53.44 60.7282C54.0009 61.1242 54.5421 61.5399 55.1069 61.924C55.4679 62.1668 55.8139 62.4312 56.143 62.7158C56.2367 62.7977 56.333 62.8768 56.4201 62.9653C57.08 63.6489 57.8072 64.2719 58.5028 64.9225C59.3184 65.688 60.1076 66.4812 60.8995 67.2704C61.9853 68.3527 63.0239 69.4793 64.0155 70.6504C64.1752 70.8392 64.3547 71.0134 64.5316 71.1876C65.0289 71.6868 65.477 72.2326 65.8698 72.8175C66.0111 73.0221 66.1338 73.2359 66.2658 73.451C66.3281 73.5435 66.385 73.6396 66.436 73.7388" fill="#EADED2"/>
<path d="M64.413 64.9138C64.5965 65.4312 64.7192 65.8773 64.9647 66.7616C65.1957 67.593 65.3857 68.3691 65.4834 68.7637C65.7473 69.8354 65.7209 69.8195 65.8437 70.2155C65.8886 70.3633 66.0179 70.7777 66.1459 71.3333C66.3188 72.0737 66.2779 72.1437 66.2462 72.1569C66.1921 72.1806 66.0958 72.05 65.614 71.4732L65.2735 71.0667C64.8657 70.5718 64.5358 70.2339 64.3708 70.0412C63.2912 68.7822 62.3291 67.4307 61.3353 66.1069C60.9625 65.6133 60.6204 65.0972 60.3111 64.5615C60.1736 64.33 60.0561 64.0871 59.96 63.8356C59.8729 63.602 59.7885 63.3684 59.6961 63.1374C59.6141 62.9023 59.5153 62.6734 59.4004 62.4524C59.2057 62.0876 59.0295 61.7132 58.8725 61.3306C58.668 60.8779 58.4581 60.4252 58.2338 59.9818C57.9649 59.4437 57.7269 58.8907 57.5211 58.3254C57.3263 57.8231 57.0832 57.3409 56.7952 56.8855C56.527 56.4629 56.2905 56.0208 56.0878 55.5631C55.9426 55.22 55.775 54.8861 55.6192 54.5469C55.5414 54.3766 55.4661 54.2077 55.3922 54.0361C55.1481 53.4646 54.8947 52.8958 54.6637 52.3204C54.4697 51.84 54.2994 51.3503 54.1239 50.8686C54.1216 50.8504 54.1239 50.832 54.1306 50.8149C54.1373 50.7978 54.1481 50.7827 54.1622 50.7709C54.18 50.7633 54.1993 50.7601 54.2186 50.7615C54.2379 50.7629 54.2565 50.7688 54.273 50.7789C54.537 51.0085 54.801 51.2434 55.0649 51.477C55.0818 51.4889 55.0973 51.5026 55.1111 51.518C55.437 51.92 55.7993 52.2911 56.1933 52.6266C56.5616 52.9565 56.9087 53.3155 57.2492 53.6824C58.217 54.7382 59.1959 55.7804 60.1857 56.809C60.4644 57.0871 60.7192 57.3882 60.9472 57.7091C61.1761 58.03 61.3711 58.3736 61.5293 58.7346C61.7365 59.2348 62.0163 59.6954 62.2631 60.1745C62.659 60.9479 62.7606 61.2395 63.3572 62.5422C64.1675 64.312 64.2309 64.4057 64.413 64.9178" fill="#EADED2"/>
<path d="M67.5242 133.695C52.8824 133.695 39.1988 125.226 28.1547 118.385C24.5306 116.142 20.7837 113.823 17.8023 110.475C13.992 106.193 11.8632 100.625 9.99042 95.7114C6.33855 86.1548 2.56394 76.2682 1.24811 65.8577C-0.236658 54.1115 1.90801 43.3882 7.28088 35.6767C8.40667 34.0612 9.68027 32.5633 10.913 31.1141C11.9015 29.9514 12.9309 28.7478 13.8416 27.5164C14.5252 26.5925 15.1851 25.6093 15.8213 24.6564C16.563 23.5504 17.3298 22.4128 18.1626 21.316C24.3432 13.2349 33.6833 8.73574 42.006 5.40194L43.5356 4.78559C51.3461 1.63525 58.7277 -1.33957 68.1366 0.636165C69.7625 0.977991 73.2679 1.15352 76.9792 1.34093C83.0753 1.64713 89.3852 1.96388 92.0248 3.09098C97.9493 5.62102 106.1 12.7756 111.493 17.511C113.376 19.1647 114.865 20.47 115.727 21.1114C121.872 25.6872 126.597 33.0318 130.169 43.5664C132.894 51.596 134.042 58.5381 133.677 64.7913C133.406 69.4489 132.294 73.9625 131.217 78.3271L128.182 90.6447C127.379 93.9007 126.549 97.2688 125.103 100.411C120.391 110.63 110.109 116.55 101.847 121.305C92.0446 126.948 80.9333 133.345 68.5602 133.686C68.2144 133.692 67.8691 133.695 67.5242 133.695ZM19.1656 22.0815L20.1673 22.847C19.3755 23.8738 18.6377 24.985 17.9171 26.0593C17.2572 27.0373 16.5854 28.0483 15.8635 29.0196C14.8987 30.317 13.8482 31.5536 12.828 32.7481C11.6402 34.151 10.4009 35.6028 9.34372 37.1192C4.32851 44.3174 2.33826 54.4085 3.74384 65.5423C5.02536 75.6519 8.74585 85.3906 12.3436 94.8179C14.2309 99.7592 16.1816 104.869 19.6856 108.808C22.4215 111.882 26.0101 114.103 29.4811 116.25C40.5001 123.071 54.2061 131.542 68.4916 131.164C80.2272 130.84 91.0455 124.612 100.59 119.117C110.357 113.496 118.768 108.129 122.814 99.3514C124.159 96.4334 124.96 93.184 125.735 90.0429L128.77 77.7253C129.82 73.4703 130.905 69.0714 131.162 64.6461C131.506 58.7229 130.402 52.0936 127.783 44.3781C124.38 34.3476 119.944 27.395 114.222 23.1294C113.279 22.4365 111.757 21.0956 109.83 19.401C104.558 14.7817 96.59 7.7868 91.0323 5.41118C88.8045 4.46093 82.1778 4.12702 76.8525 3.86042C72.8746 3.65981 69.4379 3.48692 67.6139 3.1055C58.9547 1.28154 52.2462 3.98976 44.474 7.12691L42.943 7.74061C34.9398 10.9543 25.9744 15.2502 20.1673 22.847L19.1656 22.0815Z" fill="#EADED2"/>
<path d="M18.2303 54.3265C18.8365 54.3617 19.3693 54.8817 19.8286 55.8865C20.3767 56.4144 20.7493 57.1469 20.9464 58.0839C20.9693 58.3373 21.3934 58.94 22.2187 59.892C22.4756 60.5581 22.7229 60.8982 22.9604 60.9122C23.1003 60.9202 23.4835 60.5013 24.11 59.6558C24.8068 59.0082 25.2362 58.4363 25.3981 57.9401C25.6788 57.0523 26.3545 56.1284 27.4253 55.1685C27.6693 55.0672 27.9284 55.007 28.1921 54.9903C28.5387 55.0097 28.9479 55.3594 29.4195 56.0396C29.6834 56.5807 29.7899 57.2978 29.7389 58.1908C29.6938 58.4689 29.6629 58.749 29.6465 59.0302L29.6359 59.2071C29.621 59.595 29.6431 59.9834 29.7019 60.3672C29.6465 60.8159 29.6078 61.2281 29.5858 61.6038L29.5686 61.914C29.5615 62.3459 29.5809 62.7778 29.6267 63.2074C29.5387 63.7863 29.4481 64.5214 29.3548 65.4127V67.1021C29.2334 69.2058 28.9976 70.4662 28.6474 70.8833C28.1846 71.2124 27.8199 71.369 27.5533 71.3531C26.8732 71.3135 26.4913 70.7416 26.4077 69.6374C26.4209 68.7716 26.4121 68.1601 26.3813 67.8029C26.4068 66.8491 26.4346 66.1135 26.4645 65.5962L26.4803 65.3322C26.4795 65.3261 26.4802 65.32 26.4823 65.3142C26.4845 65.3084 26.4879 65.3033 26.4924 65.2991C26.497 65.295 26.5024 65.292 26.5084 65.2904C26.5143 65.2888 26.5205 65.2887 26.5265 65.29C26.4772 65.114 26.4693 64.7432 26.5027 64.1774C26.6858 63.0547 26.7865 62.3345 26.805 62.0169C26.7901 61.7727 26.7458 61.5312 26.673 61.2976C26.2454 61.2739 25.6673 61.7886 24.9388 62.8418C24.6492 63.3839 24.28 63.8795 23.8434 64.312C23.4263 64.7176 23.0559 64.9112 22.7321 64.8927C22.1118 64.8558 21.4079 64.2073 20.6204 62.9474C20.5518 62.8594 20.3433 62.3733 19.9948 61.489C19.8844 61.3593 19.7323 61.272 19.5646 61.2422C19.2549 61.2237 18.9909 61.6676 18.7727 62.5739L18.7397 63.1493C18.6218 64.1655 18.5607 64.7102 18.5563 64.7832L18.5404 65.0472C18.5209 65.6403 18.531 66.2341 18.5708 66.8262C18.3948 69.0382 18.1977 70.138 17.9795 70.1257C17.6593 70.5507 17.3218 70.7531 16.9672 70.7328C16.2502 70.6924 15.7605 70.19 15.4983 69.2256L15.5247 68.7835L15.5841 68.5195C15.524 68.1054 15.4887 67.688 15.4785 67.2697L15.4864 67.1377C15.4996 66.916 15.5524 66.5042 15.6474 65.9024C15.7425 64.257 15.8357 62.9663 15.9272 62.0301L15.947 61.6751L16.1081 60.2405C16.1607 59.486 16.1607 58.7288 16.1081 57.9744C16.4327 55.6815 16.7948 54.5469 17.1942 54.5706C17.2022 54.4307 17.5506 54.3476 18.2303 54.3265Z" fill="#EADED2"/>
<path d="M21.7498 39.2696C21.9967 39.0492 22.2307 38.8148 22.4506 38.5675C22.6737 38.1927 22.8307 37.9406 22.9192 37.8126L23.8061 36.6472L24.0582 36.2816C24.2904 35.9482 24.6952 35.3111 25.2724 34.3706L25.5508 33.9746C25.7317 33.7034 25.9738 33.4784 26.2577 33.3179C26.5415 33.1574 26.859 33.0659 27.1847 33.0508C27.3409 33.0628 27.492 33.1116 27.6256 33.1933C28.0998 33.5215 28.285 33.9553 28.1812 34.4946C28.2604 34.5501 28.0404 35.0265 27.5213 35.924C27.1104 36.4132 26.7914 36.8219 26.5644 37.1501L26.018 38.1755L25.8861 38.3577C25.8192 38.4545 25.4466 38.9608 24.7682 39.8768C24.755 39.8952 24.6758 39.9837 24.5293 40.1407C24.2887 40.5309 24.1373 40.9694 24.0859 41.4249C24.1598 41.6572 24.3617 41.8855 24.6903 42.1125C26.216 43.0249 27.0633 43.3597 27.2323 43.1168L27.6071 42.8938C27.9872 42.2401 28.3079 41.7245 28.5692 41.347C28.7918 41.025 29.1235 40.5714 29.5643 39.9863C30.0403 38.9859 30.3043 38.4487 30.3562 38.3748C30.7768 37.7677 31.4745 37.513 32.4494 37.6107C32.5619 37.6518 32.6684 37.7078 32.7661 37.777L32.8757 37.8522C33.4177 38.227 33.1977 39.2076 32.2158 40.794L32.1142 40.9405C31.8177 41.3147 31.4991 41.6708 31.16 42.0069C30.9354 42.4418 30.6819 42.8611 30.4011 43.262C30.3588 43.3227 30.0997 43.5933 29.6237 44.0737L29.5736 44.1463C29.1196 44.8035 29.2696 45.393 30.0236 45.9148L30.9541 46.5575C32.1472 47.3019 32.8594 47.5069 33.0908 47.1726L33.4155 46.8585C33.6108 46.5259 33.7745 46.2619 33.9091 46.0666L35.2896 44.5396C35.5327 44.0123 35.8127 43.5029 36.1277 43.0152C36.6609 42.4134 36.9367 42.1186 36.9552 42.131L36.9697 42.0333L37.297 41.5582C37.6604 41.0355 38.1575 40.8758 38.7884 41.0791L39.117 41.3074C39.4707 41.5516 39.5684 42.032 39.4126 42.7526C38.7844 43.9721 38.3779 44.7156 38.1931 44.983C37.4611 45.8347 37.0423 46.3363 36.9367 46.4876L36.8852 46.5615C36.5262 47.1844 36.3234 47.5294 36.2768 47.5962L36.2517 47.6332C35.4203 48.521 34.9434 49.0528 34.8211 49.2288L34.5188 49.667C33.9768 50.4527 32.9712 50.4764 31.5018 49.7382L31.3197 49.6129C31.1912 49.5249 30.8274 49.2169 30.2282 48.689C29.8176 48.5389 29.4203 48.3548 29.0404 48.1387C28.4808 47.7515 27.6088 47.1664 26.4245 46.3833C26.187 46.1027 26.0748 45.9531 26.088 45.9346C25.6692 45.6812 25.3564 45.4828 25.1496 45.3394L23.5104 44.2136C23.1699 43.9769 22.4599 43.2875 21.3803 42.1455C21.1616 41.7381 21.0872 41.2688 21.1691 40.8138C21.2536 40.2644 21.4513 39.7385 21.7498 39.2696Z" fill="#EADED2"/>
<path d="M44.7947 19.3282C44.9901 19.2851 45.5369 19.2248 46.4352 19.1474C47.0542 18.9639 47.4251 18.8596 47.5478 18.8319C48.1822 18.692 48.6661 18.8992 48.9996 19.4536C49.0688 19.5188 49.1186 19.6019 49.1435 19.6938L49.2556 20.2032C49.3436 20.6071 49.0968 21.2032 48.5152 21.9915L47.9636 23.6017C47.8483 23.7336 47.4739 24.3693 46.8404 25.5088C46.3407 26.2259 46.0481 26.8893 45.9628 27.499C45.7335 27.9419 45.4196 28.3356 45.0389 28.6578C44.7105 29.2823 44.3456 29.8869 43.9461 30.4685C43.709 31.201 43.3738 31.8981 42.9497 32.5406C42.5977 33.1345 42.4578 33.5973 42.53 33.929L42.7939 34.1785C43.116 34.0409 43.4471 33.9258 43.7851 33.834C44.1977 33.759 44.617 33.7271 45.0363 33.739L45.1234 33.7192C45.5334 33.5362 45.9528 33.375 46.3798 33.2362L46.5118 33.2084C47.0274 33.1218 47.549 33.0746 48.0718 33.0672L48.2038 33.0382C48.2698 33.0232 48.6613 32.8763 49.3784 32.5974C49.5302 32.5362 49.6864 32.4863 49.8456 32.4482L50.0185 32.41C51.4386 32.1187 52.2221 32.3048 52.369 32.9682L52.4073 33.1424C52.549 33.7777 52.3264 34.2775 51.7395 34.6417L51.6537 34.6615L48.8544 35.2581L47.1387 35.6144C46.6623 35.6896 46.2412 35.7675 45.873 35.8493L43.9382 36.3456C41.7685 36.8102 40.6581 36.9272 40.607 36.6966C39.9806 36.4644 39.5767 35.9404 39.3955 35.1248C39.2802 34.6048 39.443 33.834 39.8838 32.8125C40.6354 31.8736 41.2623 30.8413 41.7487 29.7413C41.8877 28.931 42.6659 27.5888 44.0834 25.7147C44.4608 24.7142 44.8084 23.8872 45.126 23.2334C45.5756 22.5674 45.7872 22.1714 45.7608 22.0456V22.0351C45.7264 21.9322 45.6706 21.8378 45.5972 21.7579C45.5286 21.6866 45.2483 21.6866 44.7565 21.7579C44.6021 21.7764 44.4556 21.8015 44.3183 21.8318C44.0514 21.8874 43.7925 21.976 43.5475 22.0958C43.2377 22.2479 42.9107 22.3622 42.5735 22.4363L40.9805 22.6303C40.5064 22.759 40.042 22.9213 39.5908 23.116L39.3744 23.1635C37.9666 23.3694 37.1831 23.1151 37.0238 22.4007L37.004 22.3135C36.9473 22.1066 36.9592 21.8868 37.038 21.6871C37.1168 21.4875 37.2581 21.3188 37.4409 21.2062C37.5659 21.1143 37.702 21.0385 37.846 20.9806C37.8821 20.9726 38.2495 20.9216 38.9481 20.8275L39.08 20.7984L40.2547 20.3563L40.4276 20.318C40.8699 20.2324 41.3212 20.2013 41.7711 20.2256C42.556 19.9051 43.366 19.65 44.1929 19.4628L44.7947 19.3282Z" fill="#EADED2"/>
<path d="M60.4243 14.0862C61.3112 13.8557 62.6024 13.8245 64.2979 13.9925C64.773 14.1131 65.4668 14.6045 66.3792 15.4667C66.8649 15.8064 67.1407 16.1011 67.2067 16.351L67.2621 16.5661C67.3598 16.9383 67.08 17.2713 66.4227 17.5652L66.3792 17.5758C65.67 17.7605 65.0325 17.4838 64.4668 16.7456C63.3344 16.2467 62.3353 16.1099 61.4695 16.3351C60.3111 16.6485 59.2536 17.2564 58.3997 18.0997C58.1976 18.8787 57.9548 19.6465 57.6725 20.4001L57.7081 20.7116L57.753 20.8832C57.8414 21.2197 57.9444 21.5589 58.0658 21.902L58.1833 22.88C58.3456 23.3881 58.4472 23.7273 58.4947 23.9002C58.5898 24.5007 58.6663 24.9098 58.7231 25.1237L58.7336 25.1672C59.3064 26.4544 59.668 27.0783 59.8185 27.0387C60.3329 27.3727 60.8943 27.628 61.4841 27.7962C62.7563 28.076 63.6468 28.1495 64.1553 28.0166C64.2556 27.9902 64.7369 27.7263 65.5992 27.2248C66.3999 27.0162 66.9524 26.322 67.2568 25.1421C67.6431 24.3687 67.9902 23.942 68.2982 23.8619L68.3839 23.8395C69.035 23.7515 69.4248 23.9552 69.5533 24.4506L69.5968 24.6221C69.7798 25.326 69.4279 26.3198 68.541 27.6035C67.1455 28.992 66.2569 29.7438 65.875 29.8591C65.8816 29.8881 65.8565 29.9092 65.7998 29.9251C65.7065 29.9488 65.4597 29.9976 65.0594 30.0716C64.7725 30.1463 64.2072 30.3223 63.3634 30.5995C62.7625 30.7561 61.5483 30.5533 59.7208 29.9911C58.8682 29.6857 58.0051 28.7799 57.1314 27.2736C56.4407 25.6898 56.05 24.722 55.9594 24.37L55.6017 22.9961C55.586 22.936 55.586 22.8728 55.6017 22.8127C55.601 22.8067 55.5988 22.8009 55.5955 22.7959C55.5922 22.7908 55.5877 22.7866 55.5825 22.7836C55.5773 22.7805 55.5714 22.7787 55.5654 22.7782C55.5593 22.7778 55.5532 22.7787 55.5476 22.781C55.3805 22.1422 55.2969 20.7754 55.2969 18.6804C55.605 17.8147 56.0834 17.0196 56.7038 16.3417C57.1305 15.8138 57.9853 15.2239 59.2681 14.5719C59.6376 14.3745 60.0247 14.2119 60.4243 14.0862Z" fill="#EADED2"/>
<path d="M76.2544 30.9422C75.6385 30.4802 75.4225 28.7913 75.6064 25.8755C75.8994 24.1158 75.9838 22.8307 75.8598 22.0204C76.0102 21.166 76.0415 20.4771 75.9535 19.9536C75.8717 19.833 75.9047 19.2435 76.0525 18.185C75.9205 17.4275 75.9918 16.7579 76.2663 16.1763C76.3974 15.4847 76.5197 15.0189 76.6332 14.7787C77.0573 14.1628 77.5227 13.974 78.0295 14.2125C78.5786 14.4711 78.7686 15.5916 78.5997 17.574C78.3806 18.7125 78.6085 19.4419 79.2833 19.7622L80.5411 20.1106L80.7417 20.2056C80.842 20.2532 81.2107 20.4766 81.8477 20.8761C82.7539 21.1735 83.6149 21.4986 84.4305 21.8514C84.9294 21.8171 85.2567 21.7102 85.4151 21.532C85.559 21.4357 85.9206 21.0186 86.4986 20.2769C87.086 19.7941 87.8065 19.5018 88.5641 19.4388C88.6909 19.4173 88.8211 19.4277 88.9429 19.4692L89.224 19.6012C89.6446 19.9531 89.7713 20.3077 89.6041 20.6649C89.6186 20.7032 89.5804 20.8167 89.4919 21.0041L89.4537 21.0846C88.7718 22.063 88.1119 22.7326 87.474 23.0934C86.7436 23.8635 85.9488 24.5699 85.0983 25.205C84.9646 25.4857 84.3535 25.9824 83.2651 26.6951C82.4935 27.7034 82.0276 28.1702 81.8675 28.0954C81.4188 28.3004 80.7184 28.9506 79.7664 30.046C78.9085 30.5977 78.2614 30.9628 77.825 31.1414C77.2941 31.2565 76.7397 31.1862 76.2544 30.9422ZM81.8239 24.3498L81.9559 24.0687C82.0694 23.8285 81.9124 23.6085 81.4847 23.4088C81.3088 23.327 81.0351 23.2139 80.6638 23.0696C80.5635 23.0221 80.1944 22.7986 79.5565 22.3991C79.0488 22.1589 78.6683 22.3063 78.4149 22.8413C78.2125 23.2689 78.1936 23.8975 78.3582 24.7273C78.389 24.9226 78.301 25.3546 78.0942 26.0233C78.0678 26.6163 78.1628 27.0378 78.3793 27.2877C78.6432 27.4108 79.0154 27.1777 79.4958 26.5882C80.5736 25.9098 81.3497 25.1637 81.8239 24.3498Z" fill="#EADED2"/>
<path d="M89.1371 29.7637C89.6545 29.3238 90.3755 29.4073 91.3003 30.0144C92.3508 31.0096 93.0943 31.7337 93.5307 32.1868C94.0586 32.9857 94.3912 33.4617 94.5285 33.6148C94.8929 34.0076 95.2855 34.3733 95.7031 34.709C96.3806 35.6196 96.8254 36.2931 97.0374 36.7296C97.9709 37.6807 98.6308 38.2403 99.0171 38.4083C99.3774 38.5324 99.6612 38.5007 99.871 38.3133L100.308 37.9358C100.649 37.6456 101.015 37.3872 101.403 37.1638C101.815 36.6643 102.255 36.1897 102.723 35.7424L104.789 33.8946C105.264 33.5833 105.824 33.4249 106.392 33.4406C106.672 33.4974 106.843 33.5621 106.908 33.6333L107.064 33.8075C107.423 34.2193 107.365 34.8968 106.89 35.84L106.684 36.0089C106.411 36.2486 106.098 36.4389 105.76 36.5712C105.352 36.9847 104.966 37.42 104.605 37.8751L104.261 38.1602C103.804 38.4146 103.363 38.6971 102.941 39.0062L102.908 39.0366C102.544 39.5041 102.147 39.9452 101.72 40.3563L101.679 40.3933C101.373 40.5526 101.086 40.7452 100.823 40.9674L100.782 41.0044C100.666 41.1082 100.419 41.3594 100.041 41.758C99.5028 42.2199 98.6669 41.9999 97.5337 41.0981L97.1852 40.6942C97.1817 40.6915 97.1788 40.688 97.1768 40.684C97.1748 40.68 97.1738 40.6756 97.1738 40.6711C97.1738 40.6666 97.1748 40.6622 97.1768 40.6582C97.1788 40.6542 97.1817 40.6507 97.1852 40.648L97.1945 40.6401L97.0942 40.5952L96.8065 40.2534C96.7523 40.1927 96.7352 40.1531 96.7576 40.1333L96.5781 39.9894L96.4963 39.8997C96.2001 39.5448 95.9318 39.1676 95.6939 38.7713C94.2958 37.5122 92.7617 35.9623 91.0917 34.1216L90.7776 33.6888C90.4257 33.3667 90.1353 33.0759 89.9066 32.8164L89.8102 32.7095C88.8943 31.6536 88.519 30.9027 88.6844 30.4566C88.7778 30.1927 88.933 29.9551 89.1371 29.7637Z" fill="#EADED2"/>
<path d="M39.2223 85.3736C39.7714 86.3925 40.1391 87.0586 40.3257 87.3718C40.7709 88.1584 40.935 88.6608 40.818 88.879C40.8404 89.3026 40.6504 89.6537 40.2439 89.9348C39.7247 90.1697 39.3222 90.0774 39.0362 89.6577L38.9861 89.5838C38.8211 89.4427 38.6638 89.2929 38.5149 89.135C38.0037 88.483 37.3878 88.2442 36.6672 88.4184L36.4415 88.5715C36.2232 88.7226 36.0126 88.8847 35.8107 89.0572C35.2907 89.3026 34.8375 89.5389 34.4513 89.7659C34.3571 89.831 34.1438 89.9951 33.8112 90.2582L31.4078 91.7258L31.2072 91.9171C30.4549 92.3571 29.8971 92.7011 29.5337 92.9492C28.7419 93.4912 28.4946 94.2105 28.792 95.1071C29.1906 96.0529 29.3459 96.616 29.2579 96.7964C29.267 97.0118 29.2204 97.2259 29.1226 97.418C29.0248 97.6101 28.8791 97.7738 28.6996 97.8932C27.9077 98.0691 27.3561 97.9323 27.0446 97.4827L26.8902 97.257C26.7824 97.0593 26.694 96.8515 26.6262 96.6367L26.2923 96.1484C25.723 95.5325 25.4085 95.1806 25.3487 95.0926C25.0759 94.3165 24.8388 93.7816 24.6373 93.4877C24.5607 93.376 24.2207 93.0121 23.6171 92.3962L23.464 92.1719C22.9902 91.0078 22.8635 90.3532 23.0826 90.2027C23.0192 90.1095 23.1332 89.9401 23.4244 89.6946C23.7425 89.4782 24.1833 89.4703 24.7442 89.6748C24.9052 89.7206 25.3047 90.1165 25.9426 90.8626C26.518 91.3694 27.1339 91.3985 27.7903 90.9497C28.1602 90.8227 28.5144 90.654 28.8461 90.4469L28.9213 90.3954C29.2082 90.1177 29.5206 89.8676 29.8544 89.6484C30.187 89.4214 30.5759 89.1786 31.0211 88.9199L32.0875 87.9037L33.0972 87.4061C33.2415 87.3084 33.5094 87.0159 33.9009 86.5284L34.2375 86.2975C34.505 86.1075 34.7927 85.9477 35.0953 85.821C35.5414 85.2245 35.5678 84.638 35.1745 84.0617C35.1402 84.0129 35.098 83.9575 35.0491 83.9007C34.5714 83.1968 34.5529 82.4846 34.9937 81.764C35.0754 81.6724 35.168 81.5913 35.2696 81.5225C35.9822 81.3562 36.5326 81.5577 36.9206 82.1269C37.1727 82.5519 37.3166 82.7868 37.3443 82.8291C37.7085 83.3491 37.9786 83.7375 38.1546 83.9944C38.6042 84.598 38.9601 85.0577 39.2223 85.3736Z" fill="#EADED2"/>
<path d="M47.4481 94.2903C47.5986 94.3924 48.0548 94.7316 48.8168 95.3079L48.9303 95.3844C49.2238 95.6213 49.4967 95.8827 49.7459 96.1657C50.2474 96.5872 50.6764 97.3874 51.0327 98.5664C51.1031 99.4903 50.91 100.292 50.4533 100.971C50.0468 101.427 49.639 101.517 49.2299 101.242L49.0425 101.11C48.8154 100.957 48.6166 100.276 48.4459 99.0653C48.094 98.0975 47.6602 97.4402 47.1446 97.0935L47.0694 97.0421C46.4781 96.7544 45.6946 96.3184 44.7188 95.7342C43.7624 95.5582 43.1465 95.5067 42.8711 95.5797C42.5979 95.6537 42.2877 95.9414 41.9472 96.4389L41.8958 96.5155C41.4224 97.2194 41.2983 97.7561 41.5236 98.1256C41.5825 98.3491 42.4228 99.2439 44.0444 100.81L44.2701 100.962C44.3581 101.022 44.7206 101.374 45.3576 102.018C45.9946 102.662 46.4037 103.307 46.585 103.953C46.8122 104.526 46.9208 105.139 46.9044 105.755C46.7284 106.832 46.5366 107.525 46.329 107.833L46.226 107.983C45.3462 108.914 44.6317 109.515 44.0827 109.785C43.5336 110.055 42.6234 110.187 41.352 110.181L39.2615 109.543C37.6936 108.387 36.8062 107.644 36.5994 107.313C35.9967 106.906 35.3835 106 34.7597 104.594C34.5106 104.043 34.607 103.195 35.0487 102.051L35.3536 101.598C35.5647 101.284 35.9681 101.227 36.5638 101.428C36.9281 101.672 37.0473 102.227 36.9215 103.092C37.1523 103.644 37.4109 104.183 37.6962 104.709C37.9607 105.184 38.283 105.624 38.6557 106.019C38.9383 106.308 39.237 106.58 39.5505 106.835C40.5826 107.337 41.312 107.573 41.7387 107.541C42.3003 107.475 42.8493 107.328 43.3687 107.104C43.5535 107.001 43.7273 106.88 43.8873 106.741L44.1157 106.402C44.4368 105.925 44.2846 105.216 43.659 104.273C43.4769 103.905 42.9305 103.232 42.0198 102.253L41.8575 102.088C41.6295 101.821 41.3762 101.578 41.1013 101.36C40.246 100.583 39.7054 99.9078 39.4792 99.3359C39.0815 97.9721 38.9249 97.2277 39.0094 97.1028C39.1097 96.3848 39.3081 95.8063 39.6046 95.3673C39.6781 95.2548 39.7615 95.1492 39.8541 95.0518C39.8943 94.9233 39.9535 94.8014 40.0296 94.6902C40.2364 94.3823 40.5883 94.0743 41.0854 93.7664C41.7655 93.351 42.5345 93.1031 43.3291 93.0431C43.9168 92.9182 44.9471 93.1381 46.42 93.703C46.9039 93.9599 47.2467 94.1557 47.4481 94.2903Z" fill="#EADED2"/>
<path d="M63.4795 101.033C64.0998 101.004 64.6976 101.477 65.2731 102.452C65.889 102.933 66.3461 103.64 66.6443 104.573C66.6936 104.829 67.1894 105.398 68.1317 106.28C68.4643 106.931 68.7516 107.251 68.9936 107.24C69.1387 107.234 69.4854 106.767 70.0335 105.839C70.6732 105.105 71.0498 104.478 71.1633 103.957C71.356 103.024 71.9468 102.012 72.9358 100.921C73.173 100.791 73.4304 100.702 73.6973 100.657C74.0492 100.64 74.5033 100.953 75.0593 101.596C75.3858 102.124 75.5701 102.843 75.6123 103.754C75.5949 104.041 75.5927 104.33 75.6057 104.618L75.615 104.799C75.6401 105.196 75.7038 105.589 75.805 105.973C75.7958 106.437 75.805 106.86 75.8182 107.247L75.8314 107.564C75.8709 108.004 75.9365 108.442 76.0281 108.874C75.9955 109.475 75.981 110.234 75.9845 111.151L76.1653 112.867C76.2647 115.023 76.1578 116.332 75.8446 116.793C75.4047 117.178 75.0501 117.376 74.7808 117.388C74.084 117.42 73.6344 116.879 73.432 115.766C73.3546 114.886 73.2807 114.264 73.2103 113.9C73.139 112.931 73.0915 112.183 73.0678 111.655L73.0546 111.383C73.0535 111.377 73.0539 111.371 73.0557 111.365C73.0575 111.359 73.0606 111.353 73.0648 111.349C73.069 111.344 73.0741 111.341 73.0799 111.338C73.0857 111.336 73.0919 111.335 73.0981 111.336C73.0295 111.164 72.982 110.787 72.9556 110.205C73.0242 109.042 73.051 108.297 73.0361 107.972C72.9927 107.725 72.9205 107.484 72.821 107.254C72.381 107.274 71.847 107.859 71.2187 109.01C70.9799 109.593 70.6556 110.136 70.2566 110.623C69.8765 111.081 69.5188 111.316 69.1862 111.332C68.551 111.361 67.7661 110.775 66.8317 109.575C66.7525 109.487 66.4886 109.014 66.0399 108.155C65.9134 108.035 65.7493 107.962 65.5753 107.949C65.2585 107.964 65.0386 108.444 64.9154 109.389L64.9418 109.98C64.9304 111.027 64.926 111.588 64.9286 111.663L64.9405 111.936C64.9835 112.543 65.0571 113.147 65.1609 113.746C65.211 116.018 65.1266 117.158 64.9075 117.168C64.625 117.636 64.3026 117.878 63.9401 117.895C63.2063 117.929 62.6546 117.468 62.285 116.515L62.2639 116.061L62.2969 115.786C62.1918 115.371 62.1116 114.949 62.0567 114.524V114.392C62.0462 114.167 62.0567 113.74 62.0897 113.117C62.0114 111.431 61.9674 110.106 61.9577 109.144L61.9406 108.781L61.9525 107.301C61.926 106.527 61.8453 105.756 61.7109 104.993C61.7989 102.624 62.0475 101.43 62.4566 101.411C62.4487 101.249 62.7918 101.126 63.4795 101.033Z" fill="#EADED2"/>
<path d="M84.6505 97.4002C85.4045 97.1679 86.9342 98.0038 89.2394 99.9078C90.524 101.208 91.5394 102.051 92.2855 102.437C92.9014 103.073 93.4535 103.513 93.9419 103.756C94.0914 103.762 94.5604 104.144 95.3488 104.903C96.0526 105.249 96.5647 105.71 96.885 106.288C97.3804 106.816 97.6931 107.197 97.8234 107.432C98.082 108.154 97.9589 108.654 97.4538 108.93C96.9101 109.229 95.867 108.713 94.3246 107.382C93.5116 106.514 92.7699 106.265 92.0994 106.633L91.0528 107.466L90.8535 107.576C90.755 107.629 90.3481 107.801 89.6327 108.089C88.8409 108.662 88.0543 109.18 87.2729 109.644C87.0011 110.078 86.8915 110.414 86.9443 110.652C86.9381 110.828 87.0701 111.379 87.3402 112.306C87.3867 113.083 87.1962 113.856 86.7939 114.522C86.7363 114.64 86.649 114.742 86.5405 114.816L86.262 114.969C85.7138 115.105 85.3434 114.997 85.1507 114.646C85.1111 114.634 85.0385 114.535 84.9369 114.349L84.8934 114.27C84.493 113.115 84.3346 112.166 84.4182 111.42C84.2175 110.351 84.108 109.267 84.0909 108.179C83.9387 107.9 83.8947 107.095 83.9589 105.764C83.5868 104.518 83.4803 103.851 83.6395 103.763C83.739 103.268 83.6202 102.297 83.2832 100.849C83.343 99.8062 83.431 99.0504 83.5472 98.5814C83.7686 98.0728 84.1582 97.6558 84.6505 97.4002ZM86.7622 105.979L86.914 106.257C87.0459 106.496 87.3231 106.499 87.7494 106.267C87.9254 106.172 88.1836 106.012 88.5241 105.789C88.6235 105.734 89.0305 105.563 89.7449 105.275C90.2491 104.998 90.3555 104.594 90.0643 104.063C89.8311 103.638 89.3213 103.242 88.5347 102.875C88.3587 102.787 88.0547 102.452 87.6227 101.872C87.1467 101.494 86.7397 101.318 86.4019 101.344C86.1379 101.486 86.1128 101.934 86.3108 102.69C86.2237 104.003 86.3759 105.099 86.7675 105.979H86.7622Z" fill="#EADED2"/>
<path d="M95.6518 88.1348C95.7469 88.0028 95.925 87.7731 96.1864 87.4551C96.4068 87.0921 96.6034 86.7859 96.7789 86.5391C97.2189 85.9232 98.0028 85.3645 99.1308 84.863C100.784 84.3984 101.936 84.3958 102.586 84.8551C103.236 85.3144 103.544 85.7723 103.51 86.229C103.508 86.3265 103.478 86.4216 103.425 86.5035L103.243 86.7674C103.021 87.0824 102.311 87.0635 101.113 86.7107C100.356 86.6007 99.6191 86.8035 98.9038 87.3191L97.9799 88.0001L97.9272 88.074C97.7707 88.675 97.502 89.2411 97.1353 89.7423C96.9312 90.4787 96.9021 91.3854 97.0482 92.4624C97.2893 92.8557 97.7833 93.3902 98.5303 94.0659L98.5052 94.1029L98.6055 94.1187L99.8686 95.4002L100.081 95.4952L100.345 95.6787C100.476 95.7667 100.791 95.9515 101.289 96.233C101.705 96.5638 101.956 96.7596 102.042 96.8203C103.05 97.0843 103.761 97.3641 104.175 97.6597C104.791 97.7882 105.583 97.6417 106.551 97.2202C106.564 97.2017 107.283 96.5779 108.707 95.3487C109.09 94.1372 109.178 93.4592 108.971 93.3149C108.839 93.051 108.732 92.4932 108.65 91.6414C108.595 91.3775 108.412 91.1373 108.103 90.9208C107.603 90.7889 107.186 90.9582 106.853 91.429C106.711 91.8532 106.518 92.2587 106.279 92.6366C105.816 93.293 105.244 93.5002 104.563 93.2582L104.299 93.0747C104.003 92.8653 103.92 92.3251 104.052 91.454C104.093 91.2225 104.19 91.0045 104.335 90.8192C104.908 90.1655 105.219 89.8294 105.269 89.8109C105.458 89.3573 105.676 88.9164 105.922 88.4911C106.291 87.9724 107.01 87.7388 108.086 87.7929C108.36 87.8918 108.623 88.0215 108.868 88.1796L109.017 88.2852C109.457 88.5949 109.977 89.2773 110.576 90.3322C111.061 90.9059 111.307 91.4501 111.314 91.9648C111.471 93.765 111.356 95.0566 110.969 95.8397C110.617 96.2796 110.334 96.654 110.119 96.9629L109.54 97.7758C109.109 98.3918 108.229 99.0318 106.9 99.6961C105.75 100.143 104.483 100.189 103.303 99.8281C102.764 99.7621 101.881 99.4903 100.653 99.0125C100.622 99.056 100.481 98.9927 100.229 98.8238L99.858 98.5598L98.2294 97.24C98.0635 97.1622 97.9053 97.069 97.7569 96.9615L97.423 96.7266C96.815 95.9998 96.2202 95.3197 95.6386 94.6862C94.9462 93.4729 94.7223 92.1091 94.9669 90.5948C94.9431 89.6349 95.1714 88.8149 95.6518 88.1348Z" fill="#EADED2"/>
<path d="M101.767 74.7088C102.143 73.6134 102.383 72.891 102.488 72.5417C102.763 71.6812 103.021 71.2202 103.26 71.1586C103.557 70.8541 103.945 70.7569 104.423 70.8669C104.951 71.0886 105.156 71.4467 105.039 71.9412L105.018 72.0296C105.018 72.4256 105.018 72.6367 105.009 72.6803C104.874 73.4968 105.117 74.1127 105.737 74.528L106.001 74.5887C106.26 74.6472 106.522 74.6913 106.786 74.7207C107.32 74.9371 107.8 75.11 108.229 75.2394C108.34 75.2658 108.605 75.3106 109.021 75.3714L111.725 76.1342L112.001 76.1514C112.836 76.4065 113.467 76.5825 113.895 76.6793C114.832 76.8957 115.528 76.59 115.984 75.762C116.409 74.8258 116.717 74.3296 116.908 74.2733C117.06 74.1198 117.25 74.0084 117.458 73.9499C117.666 73.8914 117.886 73.8878 118.096 73.9394C118.766 74.4057 119.04 74.9041 118.918 75.4347L118.856 75.6987C118.783 75.9112 118.69 76.1159 118.576 76.3097L118.444 76.8852C118.376 77.7245 118.329 78.1957 118.306 78.2987C117.92 79.0254 117.687 79.5626 117.607 79.9101C117.577 80.043 117.54 80.5397 117.498 81.4002L117.436 81.6641C116.903 82.8009 116.507 83.3394 116.248 83.2796C116.223 83.3904 116.022 83.4208 115.644 83.3733C115.267 83.2853 114.963 82.9668 114.733 82.4177C114.659 82.269 114.68 81.7064 114.795 80.7297C114.777 79.9642 114.381 79.4922 113.607 79.3136C113.262 79.1275 112.896 78.981 112.518 78.8767L112.43 78.8556C112.029 78.8334 111.632 78.7737 111.242 78.6774C110.846 78.5864 110.408 78.4663 109.914 78.3132L108.444 78.2195L107.388 77.8143C107.219 77.7747 106.822 77.7773 106.2 77.8143L105.804 77.7232C105.483 77.6559 105.171 77.5523 104.873 77.4144C104.131 77.4936 103.682 77.8724 103.527 78.5507C103.512 78.617 103.5 78.6839 103.492 78.7513C103.3 79.5793 102.79 80.076 101.96 80.2414C101.837 80.2434 101.715 80.2306 101.596 80.2031C100.991 79.7931 100.766 79.2515 100.92 78.5785C101.06 78.106 101.136 77.8446 101.148 77.7866C101.28 77.165 101.386 76.7043 101.456 76.4008C101.608 75.6802 101.712 75.1162 101.767 74.7088Z" fill="#EADED2"/>
<path d="M102.653 61.5168C102.5 60.5903 102.588 59.2705 102.917 57.5574C103.084 57.0832 103.651 56.4233 104.617 55.5777C105.009 55.1132 105.336 54.8598 105.596 54.8175L105.82 54.7806C106.209 54.7155 106.523 55.0322 106.76 55.7308L106.768 55.7757C106.89 56.5165 106.547 57.1408 105.74 57.6485C105.124 58.7562 104.89 59.7619 105.039 60.6655C105.249 61.8772 105.77 63.0139 106.549 63.965C107.324 64.2455 108.084 64.5662 108.826 64.9258H109.146L109.326 64.8955C109.678 64.8392 110.034 64.7653 110.395 64.6738L111.403 64.646C111.931 64.5286 112.293 64.4534 112.472 64.4243C113.095 64.3834 113.518 64.3451 113.742 64.3069L113.788 64.3003C115.155 63.8374 115.825 63.5295 115.798 63.3764C116.185 62.8826 116.496 62.3342 116.722 61.7491C117.126 60.4786 117.284 59.5776 117.197 59.0462C117.18 58.9423 116.956 58.4263 116.528 57.498C116.391 56.6613 115.735 56.0326 114.56 55.6121C113.808 55.1448 113.405 54.7489 113.353 54.4242L113.337 54.3345C113.311 53.6623 113.556 53.2844 114.072 53.2008L114.251 53.1704C114.984 53.0508 115.964 53.5035 117.192 54.5285C118.476 56.0815 119.158 57.059 119.24 57.4611C119.269 57.4611 119.29 57.4835 119.3 57.5429C119.315 57.6406 119.342 57.8971 119.38 58.3123C119.428 58.6115 119.557 59.2045 119.765 60.0914C119.868 60.7197 119.547 61.9391 118.802 63.7499C118.41 64.5893 117.404 65.3842 115.786 66.1348C114.105 66.6873 113.081 66.9953 112.714 67.0586L111.279 67.2949C111.217 67.3058 111.153 67.3003 111.093 67.279C111.087 67.2792 111.081 67.2808 111.075 67.2837C111.069 67.2866 111.065 67.2908 111.061 67.2959C111.057 67.301 111.055 67.3069 111.054 67.3132C111.053 67.3194 111.053 67.3258 111.055 67.3318C110.383 67.4409 108.978 67.3969 106.842 67.1998C105.988 66.8045 105.223 66.2417 104.59 65.5448C104.089 65.0591 103.568 64.1318 103.026 62.7627C102.863 62.36 102.738 61.9428 102.653 61.5168Z" fill="#EADED2"/>
</svg>
