<svg id="Layer_1" data-name="Layer 1" xmlns="http://www.w3.org/2000/svg" viewBox="0 0 1080 1080"><defs><style>.cls-1{fill:#a45848;}</style></defs><g id="JqPtmB"><path class="cls-1" d="M545,89.13c249.46-.33,457.13,202.28,456.9,458.82-.22,253.39-204.75,458.2-458,457.68C289.07,1005.1,86.73,798,87.36,546.33,88,292.56,293.77,88.66,545,89.13Zm-.2,80.09c-207.28.1-377.11,167.85-377.21,377.9C167.46,759,339.06,925.45,544.27,925.4c208.44,0,377.35-168.93,377.37-377.54C921.67,338.67,753,169.22,544.78,169.22Z"/><path class="cls-1" d="M483.21,593h-54V540.2h122.1c1,3.24,1.49,129.22.45,138.41-1.7.69-3.56,1.53-5.47,2.21-25.29,9-51.09,16-77.87,18.62-25.6,2.53-51.05,1.58-75.74-6.32C348.51,679,319.22,649.86,307,604.84c-9.11-33.52-9.72-67.51.13-100.93,14.55-49.32,47.53-80,97.45-92.21,18.6-4.55,37.59-5.3,56.66-4.39,14.59.69,29.08,2.06,43.16,6.24a306.53,306.53,0,0,1,43.31,16.93c2.29,1.07,3.38,2.3,3.36,5-.1,20-.06,39.93-.07,59.9a24.59,24.59,0,0,1-.25,2.47,10.54,10.54,0,0,1-9.74-1.89c-9.55-7.05-19-14.36-29.19-20.39-17.34-10.26-36.29-15.63-56.64-15.15-22.24.54-42,7.25-57.84,23.56-10.77,11.12-17.28,24.62-20.63,39.54a139.25,139.25,0,0,0,1.15,65.91c7.16,27.94,25,45.93,52.37,54.68,15,4.79,36.64,6.41,52.65,4.07C483.94,644.91,484.3,601.26,483.21,593Z"/><path class="cls-1" d="M676.24,466v53.9H784.32v53.19H676.09V694c-3.92,1-65.05,1.21-70.2.27V413H793.23c1,3.66,1.34,42.66.46,52.74-12.83.53-25.75.16-38.65.23-13.15.07-26.3,0-39.45,0Z"/></g></svg>