<svg width="6" height="24" viewBox="0 0 6 24" fill="none" xmlns="http://www.w3.org/2000/svg">
<path d="M0.181636 18.1403C0.173969 17.6675 0.167348 17.1943 0.158288 16.7212C0.151319 16.3327 0.141213 15.9442 0.132502 15.5554C0.124371 15.2115 0.116472 14.8674 0.108806 14.523C0.103927 14.3056 0.100443 14.0879 0.0945187 13.8702C0.0872009 13.5907 0.0781408 13.3109 0.0694291 13.0311C0.0614143 12.774 0.0506118 12.5164 0.0446879 12.2592C0.0415517 12.124 0.0506118 11.9887 0.0446879 11.8539C0.0366731 11.6142 0.0192498 11.3746 0.00984116 11.1364C0.00391721 10.9704 -0.00897608 10.8021 0.00984116 10.6378C0.0409423 10.3237 0.123413 10.0172 0.253768 9.73137C0.26701 9.70339 0.282343 9.67649 0.297675 9.64958C0.337749 9.57784 0.38305 9.5104 0.418942 9.43723C0.555193 9.15923 0.759394 8.94364 0.996004 8.75568C1.08626 8.68394 1.17581 8.6104 1.25875 8.53005C1.40997 8.37916 1.51303 8.18449 1.55425 7.9719C1.58102 7.84626 1.59677 7.7184 1.60129 7.58987C1.60931 7.39903 1.62255 7.20856 1.63335 7.01808C1.63858 6.92482 1.64415 6.83155 1.64799 6.73865C1.65844 6.48325 1.66611 6.2282 1.67935 5.97316C1.69154 5.72924 1.70932 5.48567 1.725 5.24211C1.73917 5.02042 1.7538 4.79886 1.7689 4.57742C1.77831 4.43573 1.79016 4.29439 1.80096 4.1527C1.81177 4.01101 1.82222 3.86932 1.83302 3.72763C1.84835 3.52867 1.8638 3.32958 1.87937 3.13038C1.88878 3.00626 1.89993 2.88251 1.90725 2.7584C1.90706 2.72999 1.90125 2.70191 1.89017 2.67589C1.88062 2.65371 1.86895 2.63256 1.85532 2.61276C1.82306 2.56251 1.80653 2.5033 1.80793 2.44309C1.81002 2.36776 1.80793 2.29207 1.80793 2.21638C1.80793 1.99434 1.80793 1.7723 1.81002 1.55026C1.81425 1.48365 1.79921 1.41725 1.76681 1.35942C1.75165 1.33202 1.74395 1.30092 1.74451 1.26939C1.74103 1.07855 1.74033 0.887361 1.73789 0.695451C1.73789 0.59537 1.73336 0.495649 1.73092 0.395569C1.73092 0.380144 1.73092 0.364361 1.73092 0.348936C1.73072 0.319287 1.73924 0.290269 1.75534 0.265688C1.77145 0.241106 1.7944 0.22211 1.82117 0.211191C1.9934 0.129939 2.17696 0.0770419 2.36513 0.0544348C2.48431 0.0357819 2.60418 0.0210747 2.72405 0.0110308C2.8831 -0.00367695 3.04311 -0.00367695 3.20215 0.0110308C3.32655 0.0239444 3.452 0.0250206 3.57536 0.0429561C3.77608 0.0720116 3.97366 0.11685 4.15242 0.222311C4.16566 0.229603 4.17654 0.240721 4.18372 0.254296C4.19091 0.267871 4.19408 0.283311 4.19284 0.298717C4.19284 0.365437 4.19284 0.432157 4.19284 0.498877C4.19284 0.754279 4.19528 1.00968 4.19842 1.26508C4.20299 1.31607 4.18784 1.36686 4.15625 1.40641C4.13842 1.42295 4.127 1.44558 4.12411 1.47011C4.12123 1.49464 4.12708 1.51942 4.14057 1.53986C4.15116 1.56213 4.15597 1.58685 4.15451 1.6116C4.15451 1.85803 4.15451 2.10447 4.15451 2.35126C4.15499 2.40899 4.15021 2.46663 4.14022 2.52344C4.13108 2.56191 4.11526 2.59837 4.09353 2.63105C4.06001 2.68833 4.04614 2.75553 4.05415 2.82189C4.0768 3.15872 4.09911 3.49519 4.11757 3.83202C4.13744 4.19575 4.15242 4.55984 4.17159 4.92321C4.18762 5.2048 4.21062 5.48567 4.22978 5.7669C4.24488 5.98595 4.25905 6.20525 4.27229 6.42478C4.28948 6.70864 4.30563 6.99238 4.32073 7.276C4.32631 7.37141 4.327 7.46683 4.33571 7.56296C4.34826 7.7043 4.36429 7.84527 4.38171 7.98588C4.38933 8.04748 4.40097 8.10848 4.41656 8.16847C4.4261 8.19737 4.44088 8.22415 4.46012 8.24738C4.47684 8.27034 4.50193 8.28648 4.51796 8.3098C4.63261 8.47517 4.7943 8.58888 4.93612 8.72375C5.07795 8.85863 5.2264 9.01072 5.37031 9.15421C5.38614 9.17253 5.40059 9.19208 5.41352 9.21268C5.4989 9.33248 5.58149 9.45445 5.67034 9.57139C5.77749 9.70847 5.85783 9.8656 5.90695 10.0341C5.93868 10.1448 5.96198 10.2579 5.97665 10.3724C5.99245 10.5111 6.00025 10.6506 5.99999 10.7903C5.99999 10.9366 5.9864 11.083 5.98013 11.2293C5.97458 11.4135 5.95571 11.5969 5.92368 11.7782C5.91793 11.8108 5.91513 11.844 5.91532 11.8772C5.91532 12.2129 5.91532 12.5483 5.91218 12.8837C5.908 13.8656 5.90359 14.8474 5.89894 15.8291C5.89476 16.7711 5.89046 17.7129 5.88605 18.6547C5.88291 19.3631 5.87629 20.0719 5.87699 20.7804C5.87699 20.9978 5.89929 21.2148 5.90974 21.4321C5.91427 21.5319 5.91601 21.632 5.91636 21.7317C5.91636 21.9293 5.9195 22.1263 5.91636 22.3246C5.91504 22.5157 5.89164 22.706 5.84667 22.8914C5.82648 22.9568 5.79431 23.0177 5.75189 23.0707C5.68637 23.1583 5.6125 23.239 5.53967 23.3218C5.52368 23.3397 5.50644 23.3564 5.4881 23.3717C5.46301 23.3929 5.43548 23.4108 5.41143 23.433C5.26288 23.5658 5.09295 23.6708 4.90929 23.7433C4.77057 23.7973 4.6287 23.8422 4.48451 23.8778C4.3953 23.9029 4.30366 23.9187 4.21271 23.936C4.15775 23.9468 4.10226 23.9546 4.04649 23.9593C3.87225 23.9736 3.69454 23.9905 3.51821 23.9973C3.36942 24.0034 3.22027 23.9973 3.07148 23.9973C3.02408 23.9973 2.97669 23.9912 2.9293 23.9912C2.72679 23.9873 2.52488 23.9671 2.32541 23.9309C2.13026 23.8989 1.93617 23.8599 1.74312 23.814C1.62609 23.7846 1.51126 23.7466 1.39953 23.7003C1.21918 23.6312 1.04341 23.5501 0.873343 23.4574C0.824209 23.4298 0.776121 23.4004 0.727684 23.3721C0.633257 23.3136 0.547767 23.2411 0.474 23.1568C0.414873 23.095 0.369668 23.0205 0.341582 22.9387C0.25933 22.6829 0.223884 22.4137 0.237042 22.1446C0.257253 21.7141 0.242966 21.2876 0.234254 20.8589C0.226936 20.5002 0.215785 20.1397 0.208816 19.7799C0.198362 19.2336 0.189999 18.6873 0.180939 18.141" fill="#A45848"/>
</svg>
