<svg width="23" height="20" viewBox="0 0 23 20" fill="none" xmlns="http://www.w3.org/2000/svg">
<path d="M11.7954 0C11.7771 0.00495168 11.7605 0.0147114 11.7472 0.0282629C11.734 0.0418144 11.7247 0.0586621 11.7202 0.0770514C11.6162 0.383839 11.5155 0.691572 11.4106 0.996468C11.3624 1.14104 11.3286 1.29005 11.3099 1.44129C11.2574 1.82843 11.1718 2.20896 11.1076 2.59375C11.0414 2.98751 10.9657 3.38033 10.8977 3.77552C10.8074 4.28132 10.719 4.78759 10.6278 5.29291C10.5673 5.62995 10.5063 5.96699 10.4387 6.30309C10.3914 6.53613 10.3375 6.76776 10.286 7.00033C10.2312 7.25087 10.1867 7.50376 10.147 7.75666C10.1031 8.03792 10.0487 8.31871 10.0052 8.60092C9.94706 8.98618 9.89696 9.37332 9.86954 9.76284C9.86397 9.85786 9.84812 9.95201 9.82227 10.0436C9.72773 10.3745 9.68046 10.713 9.63319 11.0524C9.59929 11.3358 9.5435 11.6162 9.46632 11.891C9.40848 12.0922 9.36675 12.2977 9.34152 12.5055C9.29425 12.8444 9.25407 13.1848 9.17466 13.5185C9.10066 13.8337 9.06526 14.1567 9.06924 14.4805C9.06924 14.7381 9.07586 14.9948 9.07397 15.2519C9.07208 15.5091 9.08957 15.7658 9.11321 16.0215C9.12597 16.1633 9.15433 16.3051 9.18128 16.4441C9.2588 16.8454 9.33207 17.2477 9.41999 17.6471C9.51806 18.1137 9.69795 18.5593 9.95132 18.9631C10.0331 19.0917 10.112 19.2222 10.1853 19.3555C10.2828 19.519 10.3949 19.6733 10.5205 19.8164C10.539 19.8382 10.5591 19.8588 10.5805 19.8778C10.7422 20.031 10.7502 20.0267 10.9553 19.9388C11.1468 19.854 11.3301 19.7521 11.5032 19.6344C11.619 19.5506 11.7219 19.4503 11.8086 19.3366C11.974 19.1395 12.1329 18.9376 12.2907 18.7348C12.3499 18.6608 12.4024 18.5817 12.4477 18.4985C12.6198 18.1704 12.7861 17.839 12.9294 17.4959C13.0948 17.1012 13.1274 16.7773 13.1946 16.3897C13.2447 16.1023 13.2688 15.8816 13.2768 15.8012C13.3061 15.5081 13.3207 15.2137 13.3203 14.9191C13.319 14.5455 13.2983 14.1722 13.2584 13.8007C13.2456 13.6844 13.2177 13.4079 13.1794 13.0344C13.169 12.9305 13.1601 12.8265 13.1558 12.722C13.1492 12.5504 13.1426 12.3793 13.1435 12.2077C13.1435 12.0186 13.1057 11.8295 13.091 11.6404C13.0764 11.4513 13.0783 11.2623 13.049 11.0732C13.0116 10.8368 12.997 10.6005 12.9662 10.3641C12.9388 10.1566 12.9043 9.9505 12.8717 9.74393C12.8121 9.3686 12.7516 8.99311 12.6902 8.61746C12.6718 8.50449 12.6505 8.39246 12.6316 8.27995C12.5938 8.05447 12.581 7.82615 12.5592 7.59925C12.512 7.11662 12.5087 6.62973 12.4174 6.15135C12.3999 5.82802 12.3229 5.51083 12.329 5.18513C12.3299 5.13768 12.3267 5.09024 12.3196 5.04332C12.26 4.68595 12.2539 4.32339 12.2284 3.96271C12.2184 3.8209 12.2033 3.67909 12.1915 3.53727C12.183 3.43328 12.1754 3.32834 12.1678 3.22387C12.1485 2.92984 12.1357 2.63487 12.1073 2.34132C12.0705 1.96316 12.0208 1.58499 11.9783 1.20682C11.9646 1.08392 11.9485 0.960542 11.9457 0.837638C11.9338 0.600011 11.9022 0.363784 11.8511 0.131413C11.8513 0.106863 11.8464 0.0825421 11.8368 0.0599436C11.8272 0.037345 11.8131 0.0169462 11.7954 0" fill="#A45848"/>
<path d="M9.8767 19.9342C9.92917 19.9342 10.0067 19.9342 10.1012 19.938C10.2317 19.9418 10.3036 19.9465 10.3083 19.9271C10.313 19.9078 10.2634 19.8945 10.1996 19.8364C10.1633 19.8019 10.1316 19.763 10.105 19.7206C9.82139 19.3098 9.7779 19.2852 9.62711 19.0115C9.60946 18.9776 9.58956 18.9449 9.56755 18.9137C9.36476 18.6371 9.20876 18.3313 9.02961 18.0401C8.97005 17.9427 8.90103 17.851 8.83343 17.7593C8.78285 17.6903 8.72471 17.6265 8.6765 17.556C8.58913 17.4313 8.48865 17.3162 8.3768 17.2129C8.15588 17.0028 7.91544 16.8143 7.65876 16.6499C7.54483 16.5766 7.47393 16.5794 7.32408 16.4934C7.20324 16.4223 7.08818 16.3419 6.97995 16.2528C6.80835 16.1185 6.79417 16.0897 6.53418 15.8723C6.34132 15.7111 6.3451 15.7219 6.27797 15.6581C6.14703 15.53 6.08889 15.427 5.95795 15.2563C5.84119 15.106 5.73389 14.9481 5.61335 14.8011C5.40594 14.5402 5.22748 14.2576 5.08108 13.9583C5.01206 13.8226 4.93927 13.6879 4.87309 13.5517C4.82502 13.4581 4.75186 13.3797 4.66179 13.3253C4.33528 13.1122 3.99568 12.9199 3.64499 12.7496C3.43795 12.6527 3.23989 12.5377 3.05316 12.4059C2.97541 12.3511 2.89495 12.3003 2.81208 12.2537C2.33086 11.9838 1.85343 11.7077 1.36087 11.4586C1.27625 11.4156 1.1888 11.3778 1.10088 11.3423C0.906558 11.2632 0.717137 11.1726 0.533629 11.071C0.37799 10.9799 0.217329 10.8977 0.052413 10.8247C0.0443764 10.8214 0.0292501 10.8214 0.0254679 10.8247C0.014596 10.8389 -0.00147533 10.8573 0.000887871 10.872C0.00595284 10.9093 0.0161324 10.9457 0.0311403 10.9802C0.089283 11.1107 0.146954 11.2411 0.209824 11.3688C0.416397 11.7866 0.625334 12.2036 0.833325 12.621C0.863107 12.6805 0.89525 12.7387 0.927867 12.7964C1.19455 13.2577 1.48535 13.7047 1.79907 14.1355C2.13611 14.5846 2.49159 15.0195 2.84564 15.4553C2.96524 15.6028 3.10516 15.7338 3.23374 15.8737C3.32402 15.972 3.41147 16.0722 3.49987 16.1724C3.6193 16.308 3.74872 16.4344 3.88702 16.5506C4.0761 16.7104 4.25809 16.8782 4.44907 17.0351C4.6183 17.1736 4.79556 17.3031 4.96905 17.435C5.09762 17.5334 5.23235 17.6241 5.35572 17.7281C5.80127 18.1006 6.28209 18.4288 6.79134 18.708C7.14019 18.9028 7.48433 19.1061 7.83129 19.3046C7.92158 19.3571 8.01234 19.41 8.10594 19.4559C8.18183 19.4942 8.26091 19.5258 8.34229 19.5504C8.61599 19.6312 8.8859 19.7244 9.16433 19.7868C9.3104 19.8189 9.3156 19.8421 9.40872 19.8657C9.56097 19.9049 9.71718 19.9266 9.87434 19.9305" fill="#A45848"/>
<path d="M12.3292 19.6238C12.7792 19.5293 12.8889 19.5676 13.3025 19.4919C13.4799 19.4557 13.653 19.4012 13.8192 19.3293C14.3203 19.1232 14.8199 18.9138 15.3233 18.7148C15.7284 18.547 16.1184 18.3449 16.489 18.1107C16.6677 18.0013 16.8488 17.8966 17.0322 17.7963C17.2337 17.6886 17.4297 17.5708 17.6193 17.4432C17.8084 17.3143 17.9984 17.1883 18.1894 17.0651C18.339 16.9652 18.4812 16.8546 18.6148 16.7342C18.7788 16.589 18.9457 16.4505 19.1107 16.3035C19.2941 16.1381 19.4789 15.9726 19.6529 15.7973C20.0088 15.4399 20.3728 15.0882 20.6966 14.7025C20.9651 14.381 21.2298 14.0563 21.4775 13.7188C21.6666 13.4583 21.8321 13.178 22.0032 12.9038C22.1866 12.6112 22.3624 12.3167 22.5397 12.0232C22.5734 11.966 22.604 11.9072 22.6314 11.8468C22.6344 11.8384 22.6354 11.8293 22.6344 11.8204C22.6333 11.8114 22.6302 11.8029 22.6253 11.7953C22.6158 11.7825 22.5941 11.7783 22.578 11.7731C22.5686 11.7712 22.5589 11.7722 22.5501 11.7759C22.3814 11.8402 22.2126 11.9036 22.0448 11.9712C21.8507 12.0488 21.6516 12.1129 21.4487 12.1631C21.3555 12.1838 21.2637 12.2106 21.1741 12.2434C20.7675 12.4046 20.3515 12.5408 19.9535 12.7242C19.824 12.7833 19.6883 12.8287 19.5564 12.8825C19.4934 12.9063 19.432 12.9341 19.3726 12.9657C19.1388 13.0938 18.8924 13.1975 18.6375 13.2754C18.3405 13.3758 18.0498 13.4937 17.7668 13.6285C17.3886 13.8029 17.486 13.7311 17.27 14.0643C17.1281 14.2799 17.0029 14.5039 16.8403 14.7039C16.7627 14.7984 16.6819 14.893 16.5987 14.9847C16.4318 15.1676 16.2621 15.3477 16.0934 15.5283C16.0414 15.5841 15.9899 15.6403 15.9355 15.6933C15.737 15.8852 15.5361 16.0743 15.3385 16.2671C15.2275 16.3704 15.1061 16.462 14.9764 16.5404C14.7448 16.6897 14.5127 16.8391 14.2791 16.9856C13.9824 17.1766 13.7189 17.4148 13.4992 17.6909C13.4212 17.7855 13.338 17.88 13.2557 17.9712C13.0898 18.1548 12.9381 18.3507 12.8019 18.5574C12.6053 18.8599 12.4947 19.0027 12.4124 19.1544C12.3664 19.2456 12.3066 19.3291 12.2351 19.4021C12.1771 19.4573 12.1152 19.5081 12.0498 19.5543C11.8816 19.6829 11.8135 19.7141 11.822 19.7302C11.8333 19.7595 12.0513 19.6829 12.3316 19.6238" fill="#A45848"/>
<path d="M13.5796 16.1888C13.5711 16.236 13.5583 16.3046 13.5417 16.384C13.5006 16.5783 13.4784 16.6369 13.5054 16.6586C13.5323 16.6804 13.5937 16.6289 13.7455 16.5745C13.8145 16.5515 13.8849 16.533 13.9563 16.5192C13.9563 16.5192 14.0409 16.4993 14.4252 16.3968C14.7902 16.2999 15.1447 16.0451 15.2487 15.9548C15.4971 15.7326 15.7309 15.4946 15.9488 15.2424C16.1445 15.0218 16.3372 14.7985 16.5269 14.5726C16.7327 14.3228 16.9222 14.0601 17.0941 13.786C17.3604 13.3684 17.6252 12.9503 17.8883 12.5314C18.1247 12.1533 18.3265 11.7515 18.5274 11.3497C18.5619 11.2816 18.5922 11.2121 18.629 11.145C18.8852 10.6765 19.0989 10.1887 19.3097 9.69944C19.4653 9.34168 19.5927 8.97232 19.6907 8.59472C19.6921 8.58569 19.6914 8.57647 19.6886 8.56778C19.6858 8.55908 19.681 8.55116 19.6747 8.54461C19.6675 8.5395 19.6591 8.53626 19.6504 8.53518C19.6416 8.53411 19.6328 8.53524 19.6246 8.53847C19.4016 8.64802 19.2033 8.80177 19.0417 8.99038C18.9858 9.05506 18.925 9.11527 18.8597 9.17048C18.5614 9.43661 18.2528 9.69046 17.9389 9.93863C17.738 10.097 17.53 10.2497 17.3499 10.435C17.3224 10.4615 17.293 10.486 17.262 10.5082C16.9608 10.7299 16.7103 11.0027 16.4749 11.2915C16.2342 11.5986 15.9748 11.8907 15.6982 12.166C15.547 12.3111 15.3933 12.4534 15.2444 12.6009C15.0752 12.7683 14.9107 12.9403 14.7443 13.1105C14.7311 13.1237 14.7183 13.1384 14.7041 13.1507C14.4404 13.3729 14.2267 13.6418 13.9951 13.8952C13.9232 13.9716 13.8694 14.0632 13.8377 14.1632C13.7561 14.407 13.7066 14.6602 13.6902 14.9167C13.6689 15.3497 13.6335 15.5884 13.5956 16.0252C13.5895 16.0952 13.5838 16.1519 13.5805 16.1883" fill="#A45848"/>
<path d="M8.91602 16.679C8.91223 16.6525 8.90845 16.6147 8.90042 16.5773C8.83991 16.289 8.77609 16.0011 8.71748 15.7123C8.6877 15.5629 8.66548 15.4126 8.64421 15.2623C8.61904 15.1022 8.57129 14.9466 8.5024 14.7999C8.42534 14.626 8.34924 14.452 8.26604 14.28C8.22868 14.2032 8.18604 14.1291 8.13841 14.0583C8.08594 13.9789 8.02874 13.9023 7.9706 13.8271C7.81319 13.6238 7.66665 13.4135 7.52578 13.1979C7.425 13.0481 7.31628 12.9037 7.20009 12.7654C7.011 12.5376 6.82192 12.3149 6.62905 12.0894C6.36387 11.7765 6.1398 11.4343 5.9077 11.0968C5.82687 10.979 5.74651 10.8604 5.66095 10.7474C5.52954 10.5722 5.3841 10.4079 5.22606 10.2563C5.06156 10.0989 4.91029 9.92538 4.75335 9.76324C4.64699 9.65405 4.5359 9.55005 4.43049 9.44038C4.18626 9.18827 3.94297 8.93364 3.70063 8.67649C3.66271 8.63392 3.62826 8.58839 3.59758 8.54035C3.46002 8.32857 3.27141 8.17069 3.06673 8.02935C3.06283 8.02715 3.05844 8.026 3.05397 8.026C3.04949 8.026 3.0451 8.02715 3.0412 8.02935C3.02749 8.04022 3.00717 8.0544 3.00717 8.06717C3.00663 8.11482 3.01138 8.16238 3.02135 8.20898C3.11987 8.63507 3.24057 9.05572 3.38297 9.46922C3.52478 9.86393 3.66329 10.2582 3.82542 10.6439C3.93604 10.9072 4.04003 11.1724 4.14592 11.4376C4.26268 11.7297 4.39882 12.0119 4.54347 12.2908C4.73255 12.6539 4.91407 13.0202 5.10032 13.3842C5.15657 13.4943 5.21708 13.6026 5.27475 13.7118C5.34235 13.8375 5.42488 13.9547 5.52055 14.0606C5.6151 14.167 5.70349 14.28 5.78763 14.3953C5.95592 14.6255 6.11853 14.8609 6.2854 15.0916C6.34106 15.1688 6.40355 15.2407 6.47212 15.3067C6.67963 15.5029 6.89046 15.6948 7.10224 15.8867C7.23893 16.0052 7.38939 16.1067 7.55036 16.1892C7.78672 16.3164 8.01692 16.4464 8.2495 16.5759C8.40502 16.6682 8.57019 16.7432 8.74206 16.7995C8.76971 16.8062 8.79784 16.8108 8.8262 16.8132C8.84471 16.8115 8.8623 16.8043 8.87676 16.7926C8.89122 16.7809 8.90192 16.7652 8.90751 16.7475C8.91034 16.7291 8.91223 16.7102 8.91602 16.6799" fill="#A45848"/>
<path d="M7.72125 6.46619C7.72976 6.84672 7.74016 7.22725 7.74489 7.60825C7.74489 7.73163 7.73874 7.85595 7.72881 7.97885C7.70991 8.2067 7.68863 8.43407 7.7411 8.66097C7.76616 9.0623 7.86117 9.44992 7.9699 9.83518C8.03182 10.055 8.08618 10.2767 8.15047 10.497C8.19238 10.6432 8.24161 10.7872 8.29795 10.9286C8.35091 11.0815 8.39526 11.2372 8.43079 11.3951C8.49791 11.6315 8.55842 11.873 8.62932 12.1098C8.68132 12.2833 8.84157 12.7537 8.91626 12.982C8.95218 13.0874 9.03727 13.6603 9.0732 13.276C9.10061 13.207 9.1337 12.9139 9.14741 12.8477C9.23864 12.3873 9.28402 11.6026 9.3554 11.1512C9.36927 11.0573 9.37402 10.9623 9.36958 10.8676C9.35824 10.5513 9.40787 10.2417 9.45751 9.93161C9.46687 9.89465 9.4735 9.85704 9.47736 9.81911C9.47736 9.61726 9.53267 9.4244 9.5719 9.22869C9.58478 9.17306 9.593 9.11646 9.59648 9.05946C9.61493 8.67904 9.60497 8.29777 9.5667 7.91882C9.50761 7.38892 9.4334 6.86185 9.33649 6.33761C9.319 6.24307 9.31569 6.14853 9.29915 6.05399C9.25876 5.81947 9.19819 5.58887 9.1181 5.36478C8.88175 4.7115 8.6747 4.04876 8.45631 3.38981C8.37242 3.12709 8.27249 2.86977 8.15709 2.61929C8.12288 2.55108 8.09747 2.47881 8.08145 2.40421C8.04956 2.25615 7.99789 2.11305 7.92782 1.97877C7.89001 1.90172 7.85692 1.82278 7.81816 1.7462C7.81201 1.73438 7.79027 1.72871 7.77419 1.72446C7.76947 1.72446 7.7567 1.73438 7.75387 1.74242C7.74245 1.76836 7.7339 1.79546 7.72834 1.82325C7.72086 1.87022 7.71597 1.91756 7.71369 1.96507C7.68769 2.52617 7.65602 3.08727 7.66642 3.64932C7.67303 3.94382 7.6598 4.23832 7.68438 4.53234C7.69147 4.6179 7.69289 4.70441 7.70707 4.78855C7.76143 5.10101 7.74583 5.41536 7.7255 5.72829C7.70905 5.97535 7.70699 6.22315 7.71936 6.47044" fill="#A45848"/>
<path d="M4.70331 4.50309C4.6896 4.75126 4.76854 5.00983 4.79785 5.27455C4.81771 5.46363 4.8489 5.65272 4.87632 5.8418C4.9997 6.69976 5.15333 7.55253 5.29656 8.40718C5.30743 8.47242 5.32114 8.53765 5.33768 8.60241C5.37284 8.74068 5.40014 8.88082 5.41946 9.02218C5.44499 9.21126 5.49557 9.39467 5.5348 9.58092C5.59356 9.86054 5.67758 10.1343 5.78581 10.3987C5.86031 10.5838 5.95833 10.7586 6.07747 10.9187C6.26088 11.1621 6.44618 11.4046 6.65228 11.6277C6.82527 11.818 6.9869 12.0183 7.13634 12.2276C7.41996 12.6223 7.7121 13.0099 8.02834 13.3791C8.22589 13.6118 8.45575 13.8149 8.71093 13.9823C8.73409 13.9974 8.74165 14.014 8.7686 14.0234C8.77285 14.0452 8.88346 14.0787 8.88441 14.0598C8.88772 14.0126 8.86692 13.8755 8.86314 13.8287C8.83525 13.6661 8.79034 13.434 8.71896 13.1598C8.6245 12.8144 8.51248 12.4741 8.38334 12.1402C8.26753 11.8263 8.19898 11.6604 8.06568 11.3233C8.0515 11.2883 7.79907 10.6497 7.55705 10.0064C7.19826 9.05148 7.17888 8.97632 6.97845 8.45445C6.89006 8.2233 6.78937 7.99782 6.69483 7.76761C6.61305 7.56482 6.536 7.35966 6.45847 7.15309C6.36914 6.91175 6.2584 6.67888 6.12758 6.45726C6.06376 6.35138 5.999 6.24502 5.94464 6.1344C5.7669 5.77515 5.54946 5.43905 5.35281 5.09114C5.27812 4.95878 5.20533 4.82453 5.13584 4.68886C5.04046 4.5023 4.91989 4.32972 4.77752 4.17598C4.765 4.16957 4.75056 4.16801 4.73695 4.17159C4.72335 4.17516 4.71154 4.18362 4.70378 4.19536C4.69525 4.22222 4.68986 4.24998 4.68771 4.27808C4.68771 4.34473 4.69716 4.41091 4.70378 4.49884" fill="#A45848"/>
<path d="M13.6446 13.4095C13.612 13.5177 13.6186 13.8732 13.6314 13.9484C13.6313 13.95 13.6318 13.9516 13.6326 13.9531C13.6334 13.9545 13.6346 13.9556 13.6361 13.9564C13.6569 13.9668 13.7259 13.8501 13.8327 13.7168C13.8691 13.6695 13.88 13.66 13.9547 13.5749C14.1097 13.3986 14.2218 13.2611 14.2804 13.1911C14.452 12.9864 14.7058 12.768 15.1412 12.2764C15.3114 12.0836 15.4938 11.9035 15.6806 11.7262C15.9018 11.5172 16.1136 11.2984 16.3258 11.08C16.4637 10.935 16.5777 10.769 16.6638 10.5884C16.7819 10.3602 16.8786 10.1216 16.9526 9.87553C17.024 9.61933 17.1233 9.37068 17.1663 9.10596C17.1805 9.04179 17.199 8.97862 17.2216 8.91688C17.2688 8.76183 17.319 8.6082 17.3577 8.45174C17.4857 7.93491 17.6117 7.41761 17.7359 6.89984C17.8172 6.5576 17.9042 6.21677 17.9722 5.87075C18.0223 5.60934 18.0871 5.35077 18.15 5.0922C18.1913 4.89692 18.2173 4.69874 18.228 4.49943C18.2294 4.48991 18.2279 4.48018 18.2237 4.47154C18.2147 4.45688 18.2043 4.43845 18.1902 4.43325C18.1816 4.43012 18.1725 4.42888 18.1635 4.42962C18.1544 4.43035 18.1456 4.43304 18.1377 4.4375C17.9908 4.55898 17.865 4.70384 17.7652 4.86625C17.5832 5.16878 17.3686 5.44768 17.1677 5.7365C16.9881 5.9946 16.8226 6.26168 16.6411 6.51742C16.524 6.67939 16.4172 6.84847 16.3211 7.02369C16.2937 7.07379 16.2648 7.12343 16.2417 7.17543C16.0644 7.57581 15.8526 7.95918 15.6574 8.35058C15.4281 8.81005 15.2149 9.27756 14.9999 9.74365C14.7049 10.3831 14.437 11.0338 14.1962 11.6959C14.1575 11.8032 14.1074 11.9063 14.0592 12.0098C13.9247 12.3042 13.8188 12.6108 13.7429 12.9254C13.715 13.0361 13.6957 13.1486 13.6744 13.2606C13.6623 13.3104 13.6532 13.361 13.647 13.4119" fill="#A45848"/>
<path d="M13.1075 9.28986C13.1108 9.54181 13.1293 9.75359 13.1652 10.1762C13.1988 10.5704 13.2404 10.9354 13.2597 11.1216C13.3174 11.625 13.3255 11.6123 13.3373 11.8056C13.3411 11.8765 13.3519 12.076 13.3845 12.3355C13.4285 12.6815 13.4573 12.7052 13.4725 12.7061C13.4999 12.7061 13.5197 12.6362 13.6356 12.3109C13.6625 12.2339 13.6909 12.1583 13.7173 12.0817C13.8119 11.8032 13.9026 11.6057 13.9428 11.496C14.2066 10.7813 14.4051 10.0457 14.624 9.3168C14.7058 9.04345 14.7705 8.76528 14.8178 8.48389C14.8399 8.3622 14.8518 8.23886 14.8532 8.11518C14.8532 8.00079 14.8532 7.88639 14.8532 7.772C14.8509 7.65779 14.8569 7.54356 14.8712 7.43023C14.9034 7.24114 14.909 7.05206 14.9223 6.86298C14.9383 6.63513 14.9563 6.40729 14.9823 6.18039C15.0119 5.90581 15.0259 5.62978 15.0244 5.35362C15.0282 5.1062 15.0559 4.85972 15.1071 4.61762C15.1528 4.39397 15.1819 4.16723 15.1941 3.93928C15.2016 3.76816 15.2205 3.59799 15.2338 3.42734C15.2399 3.3413 15.2456 3.25622 15.2498 3.17066C15.264 2.88703 15.282 2.6001 15.29 2.31553C15.2966 2.07917 15.29 1.83951 15.29 1.60174C15.2884 1.59342 15.2845 1.58569 15.2789 1.57937C15.2732 1.57305 15.266 1.56837 15.2579 1.56581C15.2489 1.56517 15.2399 1.56673 15.2317 1.57036C15.2234 1.57398 15.2162 1.57956 15.2106 1.58661C15.1326 1.72843 15.057 1.87024 14.9809 2.01205C14.9754 2.01977 14.9709 2.0282 14.9676 2.0371C14.8914 2.26197 14.7947 2.47937 14.6788 2.6866C14.5725 2.88798 14.4803 3.09833 14.3952 3.30916C14.1491 3.91801 13.894 4.52307 13.6299 5.12436C13.554 5.28848 13.4923 5.4588 13.4455 5.63347C13.3981 5.80802 13.3689 5.98704 13.3585 6.16762C13.3496 6.41627 13.3023 6.65924 13.2725 6.90458C13.2252 7.30118 13.2281 7.44205 13.178 8.09864C13.1113 8.99016 13.099 9.04074 13.1028 9.28986" fill="#A45848"/>
</svg>
