<svg id="Layer_1" data-name="Layer 1" xmlns="http://www.w3.org/2000/svg" viewBox="0 0 1080 1080"><defs><style>.cls-1{fill:#a45848;}</style></defs><g id="KTJhup"><path class="cls-1" d="M1037.39,774.13H42.61V305.87h994.78ZM188.53,754.68c-22-83-66.58-152.61-118.88-218.29,79,31,137,84.25,170.52,163.21,13.15-27.07,24.87-52.76,38.07-77.69,6.24-11.8,11.21-23.14,8.57-37.84-12.09-1.1-24.5-2.46-36.95-3.32-28.6-2-56.28-6.08-78.9-26.33-20.52-18.38-27.31-39.51-15.76-64.48,6.58-14.23,7.41-26.58,1.36-40.33A65.3,65.3,0,0,1,153,437.26c-4.76-21.69-9.65-43.33-5.34-65.81,6.14-32,30.37-41.3,55.56-20.9C237.38,378.23,258,415.17,274.28,455c1.38,3.36,2.9,6.67,3.47,8,14.85-16.93,28.33-35.12,44.83-50,8.88-8,22.55-12.5,34.74-14.57,15.51-2.63,23.89,5.95,23.08,21.73-.9,17.44-3.77,34.79-5.47,49.49,18.8-21.07,38.8-45,60.38-67.33,32.37-33.54,59.1-52.68,73.95-54.89-93.83,122-163.66,254.7-194,407.07h216.6V327.84H66.13V754.68ZM291.91,574.91c0-3.63.61-7.65-.09-11.41-6.33-33.86-16.18-66.62-32.16-97.3-12.8-24.6-27.86-47.62-50.39-64.64-15.65-11.82-30.28-6.75-31,12.39-.63,16.74,2.36,34.06,6.6,50.38,3.22,12.39,3.88,22.58-1.94,34.56-10.24,21.06-3,40.48,17.76,51.53a101.36,101.36,0,0,0,23,8.78C246.11,564.78,268.76,569.63,291.91,574.91ZM776.68,565c-2.1-5.36-3.29-8.16-4.31-11-6.57-18.51-13-37.08-19.78-55.5-1.08-2.93-3.8-7.31-6-7.45-11.25-.76-22.57-.36-33.77-.36V604.08c4.7,0,9-.47,13.08.09,9.29,1.27,11.55-2.87,11.27-11.51-.57-17.51-.17-35-.17-52.59V521.81c10.54,24.29,18.89,48.56,26.58,73,2.16,6.88,5.11,9.74,12.69,9.5,6.9-.22,9.92-2.38,12.07-9,8.09-24.91,16.91-49.59,25.46-74.35l2.56.42V603.5h23V490.6h-18c-18.1,0-18.07,0-24.17,17.08C790.69,526,784.09,544.35,776.68,565ZM610.89,394.74l2.34-.57c12.52,20.36,26.07,40.19,37.22,61.28,7.58,14.33,17,19.67,33,18,8.69-.89,10.7-3.39,10.61-11.39-.35-30.75-.12-61.51-.18-92.27,0-3.1-.48-6.2-.73-9.34H668.52v78c-15.67-25.52-29.59-48.39-43.79-71.08-1.92-3.06-5.06-7.2-8-7.48-9.83-.93-19.8-.35-30.46-.35v93.65c0,20.91,0,20.92,21,19.58,1-.06,1.93-.73,3.62-1.41Zm361.85-34.55H948.59v74.75c-4.14-2.66-6.27-5.78-8.24-9-12.16-19.8-24.2-39.68-36.54-59.37-1.73-2.76-4.71-6.43-7.36-6.64-9.81-.79-19.73-.32-29.42-.32v111.8h23.79V392.05c3.77,5.56,5.79,8.31,7.57,11.21,12.74,20.69,25.33,41.49,38.26,62.07,1.92,3.05,5.21,7,8.21,7.28,9.08,1,18.33.35,27.88.35ZM779.42,475.56c36.86,0,61.79-24.09,61.66-59.53-.11-34.55-25-59.48-59.61-59.63-36.88-.15-62.65,24-62.75,58.69C718.61,451,743.28,475.59,779.42,475.56Zm140.34,131c36.38-.06,61.6-24,61.64-58.41.05-35.91-24.87-60.84-60.72-60.73-36.37.11-62,24.95-61.8,59.83C859.1,582.33,884.06,606.64,919.76,606.59ZM686.15,502.11c-16.54-14.39-35.71-15.43-55.24-13.46a55.37,55.37,0,0,0-50,49.52c-3.24,31.31,10.84,56,37.69,64.7,22.11,7.14,43.89,4.46,64.93-4.73,2.2-.95,5-3.76,5.09-5.76.4-18.13.23-36.26.23-54.92H646v22.27h18.5c2,20.62-.22,23.23-19.82,24.25a46.31,46.31,0,0,1-6.45-.12c-20.28-1.81-33.49-17.34-32.44-38.07,1.09-21.45,14.73-36,35.25-35.14,9.84.41,19.52,4.65,30.55,7.48ZM304.24,567.38c9.23-15.16,17.92-28.59,25.77-42.5,12.39-21.95,21.6-45.14,24.45-70.4.87-7.76,2.11-16.27-5.88-21.49-8.3-5.41-16.65-2.6-24.35,1.79-18.6,10.62-29.31,27.87-38.22,46.47a10.26,10.26,0,0,0-.26,6.22C291.6,513.14,297.59,538.77,304.24,567.38ZM595,674.93c11.15-.58,20.84-.39,30.3-1.75,12.7-1.82,20.13-11,20.55-23.68.44-13.28-5.6-23.59-18-25.5-14.57-2.23-29.55-1.81-44.34-2.54v94.71L595,715.5Zm265.11,13.32c2.44-20.39-8.32-34.88-26.26-36.47-18.74-1.67-34.63,11.92-35.65,30.49-1.12,20.26,11.89,35,31.43,35.64,12.11.39,27-6.87,27-13.89l-7.22-4.91c-8.55,9.14-18.07,11.48-28.61,5.95-6-3.18-11.16-7.65-8.66-16.81Zm-133.4,29.66c18.58.07,33.81-14.79,33.89-33.07s-15.26-33.3-33.72-33.13c-18,.17-33.13,14.77-33.58,32.45S708.69,717.84,726.69,717.91Zm201.1-56.29c-15.58-13.1-35.3-12.79-47.48-.13-12,12.47-12,34.79-.07,46.87,12.39,12.52,32.84,12.76,47.68-.53l-7.21-6.93c-14.53,8.34-24.84,7.76-32.16-1-6.42-7.72-6.49-22.09-.13-30,7.21-9,16.4-9.48,32.06-1.4Zm16.65,5.93c0,3.26,0,8.93,0,14.61,0,6.08,0,12.17.25,18.24.61,12.84,7.52,18.69,20.2,17.49,7.3-.69,10.34-3.78,6.88-11.17-7.29.8-14.94,1.42-15.54-8.32-.7-11.24-.17-22.56-.17-32.33,6.13-5.72,19.07,3.08,18.36-11.94l-17.93-1.36c-.43-7.73-.82-14.68-1.25-22.31l-11,1v18.34c-5.27,3.88-8.74,6.44-12.22,9Zm-171.9-13.72c0,24.23,0,47.34,0,70.44,0,6.84-.87,12.69-9.92,13.65-2.18.23-3.87,5.12-6.35,8.7,17.79,3.17,26.72-2.06,27.13-15.18.78-24.56.63-49.14.76-73.71,0-1.27-.9-2.55-1.42-3.9Zm-105.3,3.3-12.15-4.61v63.62l11.2-.73c0-12.07-.6-23.49.17-34.82.79-11.73,5.41-15.39,17.22-16,2-.11,4.07-.5,7.64-1-1.26-4.26-2.61-10.73-3.24-10.66C681.35,653.68,674.74,655.45,667.24,657.13Zm111.08-14.78c4-5.56,8.6-9.25,8-11.68-.85-3.46-5.5-6-8.52-8.91-2.56,2.94-6.89,5.74-7.16,8.88C770.39,633.55,774.48,636.84,778.32,642.35Z"/><path class="cls-1" d="M815.6,417.06c-.05,21-15.28,36.24-35.8,35.91-21.61-.34-35.75-15.17-35.56-37.28.19-21.54,14.53-36.34,35.29-36.43C801.49,379.18,815.66,394,815.6,417.06Z"/><path class="cls-1" d="M955.78,548c-.36,22.16-14.92,36.5-36.6,36-20.69-.44-34.92-15.66-34.65-37.07.27-22,15.16-37.09,36.2-36.66C942.13,510.73,956.14,525.79,955.78,548Z"/><path class="cls-1" d="M595.64,663.16V633.29c8.48,0,16.32-.72,24,.19,8.31,1,13.58,5.89,13.1,15.12-.45,8.81-5,14-13.85,14.47C611.45,663.49,604,663.16,595.64,663.16Z"/><path class="cls-1" d="M811.4,679.1c1.84-12.3,9.42-18.9,20.13-18.41,10.39.48,15.74,6.24,16.62,18.41Z"/><path class="cls-1" d="M705.81,684.75c-.17-12.82,8.52-22.18,20.73-22.31,13-.13,21.91,8.87,21.92,22.27,0,12.82-8.63,22.14-20.83,22.46C714.92,707.49,706,698.33,705.81,684.75Z"/></g></svg>