<svg id="Layer_1" data-name="Layer 1" xmlns="http://www.w3.org/2000/svg" viewBox="0 0 1080 1080"><defs><style>.cls-1{fill:#a45848;}</style></defs><path class="cls-1" d="M691,395.17c-.74.32-.5,1.42-.15,2.15,8.82,18.37,12,39.79,18.3,59.18,2.79,8.52,4.38,17.48-6,22-10.18,4.39-15.25-2.38-20.21-10.33-12.88-20.65-25.91-41.29-40.21-60.92l-18.25-25a17.24,17.24,0,0,0-4-4.3c-2.22-1.52-5-1.91-7.67-2.24a585.84,585.84,0,0,0-63.34-4.43c-17.82-.28,6.42,49.37,9.89,59.78,3.13,9.37,6.39,18.71,9.35,28.13,2.49,8,2.31,15.67-6.59,19.39-8.4,3.52-14.26-.23-19-7.81-17.69-28.15-36-55.93-53.65-84.08-4.43-7.05-9.64-9.43-17.8-8-14.79,2.62-50.84-1.44-61.09,11.24-10.38,12.86,11.71,54.09,16.39,67.84,6.74,19.82-11.78,26.43-25.53,13.42-5.62-5.32-9.14-12.44-12.54-19.39q-5.85-11.94-11.69-23.89c-2.77-5.65-5.63-11.43-10.22-15.72-19.46-18.2-72.95,19.46-90.61,30.45-11.71,7.29-23.53,15.16-31.46,26.45-15.86,22.56-35.49,38.17-39.23,67-1.93,14.91-.25,30,1.67,45,2.45,19.08,6.67,40.38,22.66,51.06,9.24,6.18,20.78,7.55,31.85,8.52,37.8,3.33,75.61-1.3,113.34.45s75.81-6.65,114.2-2.22c15.5,1.78,30.87,5.09,46.47,5.47,32.44.8,64.29-3.77,96.75-3.78q57.08,0,114.15-.2c30.66-.1,62.23,1.56,92.13-6.53,24.27-6.56,35.65-20.47,37.2-46,.73-11.95-.9-23.91-2.52-35.78-1.23-9-1.52-18.77-3.19-27.63-1.64-8.67-6.22-17.29-9.22-25.59-2.74-7.61-5.69-15.53-11.65-21-2.65-2.43-5.78-4.27-8.65-6.44-6.56-5-11.61-11.62-17.46-17.4-9.42-9.29-24.26-18-36-24.23-6.16-3.26-12.61-5.93-19-8.6-8.47-3.51-19.19-6.14-26.89-11.07-5.9-3.78-8.55-7.66-16.13-9.27q-16.65-3.54-33.58-5.64A1.58,1.58,0,0,0,691,395.17Z"/><path class="cls-1" d="M979.53,376.82c-24.72-72.88-56.94-123.35-98.5-154.28-6.85-5.1-17.9-14.8-31.89-27.09C810.85,161.84,753,111,712.61,93.81c-16.18-6.91-64.31-9.33-103-11.27-28.9-1.45-53.85-2.71-67.07-5.48a194.87,194.87,0,0,0-40.34-4.27c-44.76,0-83.92,15.8-127.71,33.47l-11.16,4.49C305.22,134,240.11,165.28,197.93,220.46c-5.7,7.46-11.1,15.52-16.33,23.33-4.76,7.1-9.68,14.44-14.92,21.49-7,9.43-14.64,18.41-22,27.08C136,302.56,127,313.1,119.36,324.12,82.92,376.39,68.47,449.7,78.69,530.55,88,604,115,674.73,141.12,743.17c13.7,35.88,27.87,73,53.32,101.58,19.87,22.33,45.93,38.46,71.14,54.06,78.29,48.46,175.28,108.4,276.59,108.4,2.25,0,4.48,0,6.73-.08,85.24-2.36,163.81-47.59,233.13-87.49,70.92-40.83,132-79.81,161.41-143.56,9.77-21.19,15.58-44.79,21.21-67.6L986.7,619c7.62-30.89,15.49-62.84,17.36-95C1006.57,481,998.54,432.86,979.53,376.82ZM769.66,898.16c-66.77,38.44-142.46,82-221.41,84.19-2,.06-4.06.08-6.08.08-94.4,0-188.19-58-263.55-104.7-23.7-14.66-48.2-29.82-65.67-49.45-22.42-25.19-35.77-60.14-48.68-93.95-25.61-67.07-52.09-136.42-61-206.89-9.44-74.74,3.49-141.92,36.42-189.16,7-10,15.56-20.11,23.86-29.87,7.63-9,15.53-18.27,23-28.34,5.59-7.51,10.66-15.07,15.56-22.39l.06-.1h0c5-7.47,10.17-15.19,15.43-22.07q5.35-7,11.27-13.46c15.08,15.11,29.88,31,45.51,45.14,16.21,14.71,27.8,32.44,42.94,48.1,10.2,10.55,22.44,18.84,34.27,27.58l36.6,36c3.33,4.42,6.64,8.86,10.14,13.14A171.31,171.31,0,0,0,436,426L468.47,458l100.4,98.89c16.46,16.2,35,31.69,50,49.25,6.3,7.39,10.43,15.54,17.66,22.56a160.49,160.49,0,0,0,27.56,21.49c5.59,3.44,11.41,6.56,16.57,10.62C689.88,668,696,677.64,702,687.5c5,8.27,12,12.37,18.84,19.06,18,17.54,35.82,35.29,53.74,52.93l75.23,74.1,7.76,7.65C832.1,861.42,802,879.56,769.66,898.16ZM979.32,522.59c-1.73,29.85-9.33,60.67-16.68,90.49l-22.06,89.5c-5.34,21.68-10.87,44.09-19.65,63.13-9.08,19.71-21.91,37-37.57,52.74-4-3.66-8-7.21-8.63-7.79-4.61-4.54-8.16-10.93-13.07-15-3.15-2.62-7.44-3.26-10.33-6.17-8.07-8.15-17-13.91-25.1-21.77-8.81-8.53-15-19.41-23.54-28.15-9.63-9.79-22-16.59-31.27-26.72-22-24.07-44.2-47.48-67.6-70.52L587.54,527.81l-58.13-57.26-29.07-28.63L485.22,427c-3.59-3.53-10.56-8.13-12.79-12.59-24.48-24.12-49.2-47-75.88-68.6-8.7-7-18-13.69-26.45-20.89-7.33-6.22-11.63-15.15-17.84-22.47-14.72-17.36-33.37-30.72-49.91-46.2-4.16-3.9-36-42.69-48.94-57.36,35.56-29.16,79.07-49.11,119.2-65.19l11.21-4.51c42.1-17,78.46-31.65,118.4-31.65a169.3,169.3,0,0,1,35.25,3.74c15.11,3.17,39.71,4.41,70.92,6,28.79,1.45,82.38,4.14,94.5,9.31,36.7,15.66,95,66.85,129.9,97.47l.1.09c14.36,12.61,25.71,22.57,33.35,28.25,37.39,27.84,66.77,74.41,89.83,142.37C974,437.74,981.64,482.82,979.32,522.59Z"/></svg>