<svg id="Layer_1" data-name="Layer 1" xmlns="http://www.w3.org/2000/svg" viewBox="0 0 1080 1080"><defs><style>.cls-1{fill:#a45848;}</style></defs><path class="cls-1" d="M541.66,574.23a32.17,32.17,0,0,0-35.77,0q-7.61,5.43-11.73,15.57T490,613.4q0,13.47,4.13,23.61t11.73,15.57a32.17,32.17,0,0,0,35.77,0q7.61-5.43,11.73-15.57t4.13-23.61q0-13.47-4.13-23.6T541.66,574.23Z"/><path class="cls-1" d="M574.78,349l2.28,2.05a77.92,77.92,0,0,1-11.68-12.87c-2.15-3-4.15-6.17-7.15-8.28a30.34,30.34,0,0,0-7.35-3.34c-25.51-9.24-44.93-30.38-72.36-32.4-28.84-2.13-53.31,10-79.45,20.43-7.05,2.82-14.15,5.67-20.53,9.8-12.31,8-22,20.46-33.1,29.82s-15.94,20.73-20.66,34.6c-3.23,9.48-6.53,19.11-12.28,27.32-11.5,16.41-33.95,28.75-50.68,39.24-12.76,8-20.95,3.95-35.42,3.77-29.58-.39-58.16,11.36-85,22.55-7.93,3.3-15.94,6.66-22.86,11.75-9.23,6.79-16,16.3-22.67,25.65C78.88,543,61.6,567.47,53,595.55c-17.51,57.24.69,114.58,26,166.52,2.38,4.89,4.87,9.84,8.58,13.81,3.88,4.15,8.88,7,13.81,9.85,30.57,17.47,57.74,25.55,91.41,33.08,28,6.26,53.42-.36,81.88-.23,63.43.29,127.26-.09,190.34-.09h88c61.44,0,123.07-3.61,184.65-2.16,43.74,1,88.24,8.84,131.78,1.2,41.28-7.24,79.94-15,120.23-26.86,4-1.17,8.26-2.57,10.56-6,1.75-2.62,2-6,3.68-8.68,2-3.26,5.77-5,8.81-7.3,4.62-3.58,7.67-8.79,10.25-14C1038,724,1035.73,685,1025.55,653c-5.95-18.75-24.15-31.46-37.3-45.23a78.34,78.34,0,0,0-9.5-8.9c-17.55-13.12-44.94-13.76-65.87-13.83-10.56,0-31.25,4.28-38.66-5.94-7.69-10.61,1.75-37.17,3.79-48.83,3.22-18.4,6.59-37,4.2-55.73-5.06-39.61-35.59-72.87-72.08-89.11-25.82-11.49-55.68-18.23-84-17.21-13.79.5-25.56,2.06-35.67,11.55C671.55,397.5,646.16,419.29,620,399c-10.81-8.35-14.24-23.08-22.75-33.76-5.27-6.61-12.34-11.49-19.3-16.27-27.79-19.09-51-40.73-83.87-51.07l-2.29-.71m-34.6,358.33q-17.24,9.12-38.67,9.12-15.78,0-27.8-6.3a45.11,45.11,0,0,1-18.61-17.74q-6.6-11.43-6.59-26.5a53.29,53.29,0,0,1,6.73-26.87A47.85,47.85,0,0,1,391,568.8a60.29,60.29,0,0,1,40.33-5.29,105.32,105.32,0,0,1,11.08,3.41,16.46,16.46,0,0,0,3.76,1.16,2.06,2.06,0,0,0,2-.88,12.47,12.47,0,0,0,.94-3.76h6.52v31.43h-7.24q-4.79-26.07-30.56-26.07a31.86,31.86,0,0,0-18.39,5.43,34.43,34.43,0,0,0-12.24,15.57q-4.27,10.14-4.27,23.6,0,20.86,10,32.73T420.37,658q24.48,0,30.56-29.83h7.24Zm111.22-15.43a45.69,45.69,0,0,1-18.18,18.1,57.36,57.36,0,0,1-52.85,0,45.69,45.69,0,0,1-18.18-18.1,58,58,0,0,1,0-53.44,45.81,45.81,0,0,1,18.18-18.1,57.43,57.43,0,0,1,52.85,0,45.81,45.81,0,0,1,18.18,18.1q6.52,11.67,6.52,26.72T568.38,640.12Zm86.46,22.52h-64.3V648.16l15.06-12.6q16.21-13.32,23.31-23.1t7.1-19.33q0-9.27-4.92-14.41t-13.76-5.14q-9.27,0-14.77,5.21T596,594h-6.66q0-15.78,7.82-23.82t23.17-8q14.48,0,22.81,7.6T651.51,591a28.84,28.84,0,0,1-3.34,13.61A55.27,55.27,0,0,1,637.68,618q-7.17,7-20.79,18.32l-14.33,11.87h31.86q5.94,0,8.47-1.23t3.62-5.21a75.63,75.63,0,0,0,1.66-13.54h6.67Z"/></svg>