<svg id="Layer_1" data-name="Layer 1" xmlns="http://www.w3.org/2000/svg" viewBox="0 0 1080 1080"><defs><style>.cls-1{fill:#a45848;}</style></defs><g id="Q6Q0l2"><path class="cls-1" d="M487.16,1031.17c-17.2-3.13-34.46-6-51.59-9.46-44.74-9.11-87.13-25-127.41-46.29-51.07-27-95.78-62.53-134.35-105.4A488.55,488.55,0,0,1,73.65,699.46C52.38,637.24,44.34,573.22,48.46,508A480.45,480.45,0,0,1,89.33,342.52,498.11,498.11,0,0,1,170.89,215a483.56,483.56,0,0,1,122.6-100C344.22,85.74,398.14,65.1,456.11,56.65a714.26,714.26,0,0,1,89.51-7.77c35.57-.66,70.74,5.09,105.54,13a476.37,476.37,0,0,1,161.48,69.39Q913,198.42,971.51,304.36c27.87,50.34,45.2,104.11,54.87,160.5,2.63,15.38,3.1,31.13,4.66,46.7a73.57,73.57,0,0,0,1.54,7.57v45.3c-1,10.66-1.78,21.36-3.23,32-5.7,41.8-15.06,82.63-30.42,122.13A493.74,493.74,0,0,1,906.81,869c-31.72,35.64-68.11,65.62-108.63,90.81a479.09,479.09,0,0,1-152.25,61.68c-17.36,3.77-35,6.49-52.44,9.69Zm524.26-489.06C1014,285.51,799.68,61,524.16,69.53,277.82,77.16,71.68,278.12,68.09,534c-1.91,135.9,47.13,253,145.41,346.95,99.79,95.36,220.07,138.62,358.41,130.63C801.45,998.28,1011.06,803.5,1011.42,542.11Z"/><path class="cls-1" d="M534.65,871.44c-28.25-34.37-55.32-67.39-82.49-100.35q-81.9-99.35-163.91-198.61c-19-23-37.11-46.48-44.06-76.57C230.8,437.92,243.26,387,285.1,344c57.3-58.88,157-61.63,215.86-5.77,12.37,11.75,23,25.3,34,37.54,9.51-11,19.16-23.71,30.45-34.79,28.51-28,63.41-41.37,103.21-42.64,45.2-1.44,84.3,13.87,116,45.46,33.67,33.63,48.66,75.38,45.5,123.06C827.51,506,810,538,784.85,567.71c-63.39,75-125.38,151.19-187.83,227C576.32,819.83,555.94,845.22,534.65,871.44Zm-.87-60.73,201.8-395.82c-2.61-.58-3.84-1.09-5.07-1.09-28.87-.07-57.74-.25-86.6.19-2.8,0-6.75,3.42-8.12,6.25-9.86,20.28-19.24,40.8-28.66,61.29-16.53,35.93-32.9,71.94-49.49,107.84-7.5,16.21-15.39,32.24-23.87,50C521,612.28,509,587,497.23,561.65q-32.5-70.17-64.6-140.52c-2.6-5.72-5.85-7.6-11.9-7.54-26.57.27-53.15.1-79.72.17-2.73,0-5.45.53-9.05.91C399.27,546.75,466,677.61,533.78,810.71Z"/><path class="cls-1" d="M219.58,311.79l24.8,19.62L233.27,345,170,294.74c10.39-12.32,20.15-23.57,29.52-35.13,6.73-8.32,15.68-8.41,23.94-5.27,8.76,3.33,15.5,9.82,14.13,21-.35,2.83-.05,5.73-.05,9.24l38.94,2.8c-4.3,13.45-8.55,16.45-21,15.68-6.84-.42-13.71-.55-20.56-1C227.85,301.51,222.83,304.1,219.58,311.79Zm-26-21.62c3.64,3.23,6.47,6.36,9.91,8.51,1.62,1,5.45,1.09,6.48-.05A104.87,104.87,0,0,0,221,284c3.52-5.55,1.37-10.72-4.12-12.75-2.85-1.05-8,.5-10.43,2.73C201.8,278.35,198.35,284,193.56,290.17Z"/><path class="cls-1" d="M981.17,453.22c5.59,14.42,5.64,14.58-7.23,18.6-21.16,6.6-42.39,13-63.26,19.34-7.93-11.59-4.24-19.72,4.28-28,8.81-8.61,16.36-18.51,23.73-30.16l-42.93,12.42c-1.8-5.22-3.25-9.44-5.07-14.74,14-4.35,27.49-8.58,41-12.74,8.37-2.58,16.7-5.34,25.2-7.43,3.68-.91,10.71-1.41,11.09-.31,2,5.61,6.72,11.33.49,17.87-10.52,11-20.31,22.8-30.36,34.3-.57.65-.77,1.65-1.87,4.13Z"/><path class="cls-1" d="M885.11,300.45c-8-5.34-12.77-10-10.81-21.28,2.44-14.14-17.55-24.31-30.61-16.44A55.86,55.86,0,0,0,829,275.52c-9.32,11.75-4.4,28,10.17,33.82,3.06,1.23,7.26-.38,10.93-.69-.85-3.15-1.23-6.54-2.67-9.4-1.26-2.51-3.7-4.43-6.31-7.4,3.79-3.06,7.22-5.84,11.09-9,4,4.59,7.75,8.93,11.5,13.3,3.6,4.2,7.16,8.42,11.7,13.75-8.14,6.73-15.61,13.43-23.73,19.22-1.94,1.38-6.19.15-9.17-.66-18.21-4.91-33.35-22.63-33.52-38.88-.25-24.31,12.29-39.27,37.22-45.43,10.63-2.63,29,2.91,39.08,18.29C893.91,275.63,894.34,286.65,885.11,300.45Z"/><path class="cls-1" d="M719.54,853c12.75-8.59,24.05-16.9,36-24.06,10.48-6.25,18.57-4.83,26.5,2.75,8.53,8.16,9.43,14.09,4.08,26.36a26.49,26.49,0,0,0-1.13,4L821.1,876.1c-11.87,13-12.6,13.14-27.72,7.33-4.85-1.87-10-3-14.61-5.43-7-3.67-12.39-1.82-18.31,3.64,3.42,5.17,6.78,10.29,10.17,15.39,8.13,12.26,8.13,12.26-6.8,20Zm22.51,2c2.31,3.58,3.77,6.9,6.17,9.24,1.88,1.83,5.95,4.12,7.28,3.31,5.47-3.33,10.88-7.24,15-12,1.74-2,1.64-7.86-.07-10s-7.27-3.67-9.77-2.52C754.35,845.91,748.77,850.5,742.05,855Z"/><path class="cls-1" d="M562.56,94.83c14.27,1.93,27.68,2.78,40.6,5.75,13.63,3.14,19.72,13.9,21.52,27.19,2.15,15.74-4.32,44.23-20.86,48.57-3.1.82-6.28,2.29-9.33,2.08-13.57-.92-27.1-2.35-42.07-3.72ZM571,162.09c11.17.48,21.34,6.68,29.59-3.25,7.19-8.66,9.1-28.89,4.18-37.26-4.47-7.59-14.23-10.61-27.21-8.19C575.43,129,573.31,144.72,571,162.09Z"/><path class="cls-1" d="M856.65,803.69l-14.69,14-7-11.17,23.25-21.91c4.71,4.19,11.06,9.32,16.69,15.15,2.22,2.28,4.14,6.23,3.93,9.25-1.45,20-20,39.52-38.45,41.29-19,1.83-39.09-12.26-44.77-32.64-4.27-15.29,1.43-28.21,12.85-38.62,9.56-8.7,20.26-13.26,33.13-7.26a25.44,25.44,0,0,1,3.59,2.57c-4.16,5.92-3.94,14.45-16.23,11.59-11.72-2.73-23.74,17.8-17,28.51a52.56,52.56,0,0,0,18,17.23c12.55,7,28.11-1.56,30.22-15.87C860.66,812.43,858.18,808.64,856.65,803.69Z"/><path class="cls-1" d="M437,909.48c-7.93-.9-15.49-.44-17.66-11.85-1.55-8.13-15.73-12.77-24.12-9.86C386,891,376.47,906.88,377,918.28c.47,9.64,6.88,16.36,18.55,20.1,7.51,2.42,12.57.07,16.77-7.9l-14.64-7.36c.31-12.69,2.38-14.11,13.24-9.43,7.38,3.18,14.85,6.13,22.32,9.21-3.28,8.1-6.39,14.93-8.8,22-1.84,5.45-5.14,8.44-10.77,9-17.76,1.8-34.13-1.64-45.71-16.06-12.07-15-9.07-39.45,5.41-54.9,12.09-12.91,32.68-14.54,49.47-3.91C435.62,887.12,439.25,894.77,437,909.48Z"/><path class="cls-1" d="M597.23,976.87c-12.06,3.25-19.08.62-24.73-8.91-6.79-11.46-15.37-21.85-24.94-35.15,1,17.33,1.89,31.93,2.8,47.35H535.19q-2.62-37.83-5.18-74.72c10.57-4.5,17.3-2.75,23,6.81,7,11.68,15.66,22.33,23.61,33.42l2.72-.45c-.86-14.23-1.71-28.45-2.63-43.79l14.95-2.37Z"/><path class="cls-1" d="M728.46,913.54c0,23.12-14.62,36.45-39.86,36.42-21.66,0-37.35-18.89-37.45-45-.08-20.94,16.63-35.38,40.83-35.26C712.5,869.75,728.5,889,728.46,913.54Zm-16,1.72c-.28-15.61-12.39-31-24.3-30.87-12.18.13-20.53,9-20.34,21.54.22,15.07,12.34,29.16,24.94,29C704.54,934.78,712.69,926.65,712.49,915.26Z"/><path class="cls-1" d="M124.25,378.11l27.17-53.19,13.29,6.26c-5.59,11.06-10.67,21.26-15.89,31.38-2.17,4.19-3.61,7.55,2.38,10.18,4.94,2.18,8.49,4.31,11.67-2.6,4.33-9.4,9.74-18.3,15.2-28.36l12.52,6.7C184.77,360,179.24,371,173.3,382.81L190.14,393l20.62-38.89,13.37,5.68-28.43,55Z"/><path class="cls-1" d="M786.67,172.2l46.64,36.58c-7.46,12.51-7.47,12.52-17.85,4.54-4.37-3.37-8.74-6.75-13.05-10.2-11.58-9.24-11.57-9.26-20.39,4.61,8.25,6.53,16.47,13.32,25,19.69,3.93,2.93,5.21,5.55,1.65,9.54-3,3.34-5.57,6.43-10.5,2.37-8.22-6.77-16.78-13.11-25.81-20.11l-12.73,15.15,34.58,27.55-9,11.45-48.46-38C753.54,214.13,769.82,193.53,786.67,172.2Z"/><path class="cls-1" d="M532,160.33c.6,4.62,1.09,8.41,1.77,13.64l-60.58,6.71c-2.87-26.66-5.61-52.11-8.55-79.37l59.26-6.61v14l-40.46,5.23c.54,5.21,1,9.87,1.66,16l38.8-3.85c.57,4.09,1.18,8.45,1.88,13.5l-37.6,4.84c-.69,1.57-1.2,2.16-1.17,2.73.83,17.26.83,17.22,18.66,15.49C514.38,161.76,523.07,161.1,532,160.33Z"/><path class="cls-1" d="M278.68,889.41l43-65.06c15.49,9.95,30.48,19,44.55,29.26,2.18,1.58.15,8.93.06,13.62l-3.43.91L328.29,846l-8.67,12.34,32,21.63-7.69,11.67c-7.24-4.84-14.17-9.56-21.18-14.17-11.1-7.31-11.85-7.13-18.39,4-.83,1.4-1.43,2.93-2.75,5.69l34.16,23.25c-6.33,13.25-6.33,13.21-18.12,5.22C305,907,292.22,898.52,278.68,889.41Z"/><path class="cls-1" d="M875.53,360c-22.49,3.14-16.54,6.35-26.68-13,14.8-1.91,29.16-3.85,43.55-5.6,11.29-1.37,22.77-1.78,33.87-4,6.37-1.3,9.12.75,11.45,5.74s5.48,8.92.23,14.85c-17,19.24-33.31,39.16-49.88,58.82-10.78-9.26-11.6-13.82-2.88-23.8,3.94-4.51,4.4-8.07,1.41-13C882.74,373.68,879.37,367,875.53,360Zm25.05,15.22,16.26-19.2-1.66-1.84-23.59,4.11C894.63,364,897.14,368.78,900.58,375.26Z"/><path class="cls-1" d="M434.09,966.4c13.83-22.51,27.15-44.55,40.9-66.32,3.48-5.5,18.7-3.69,20,2.33,5.62,25.75,10.68,51.61,16,77.59-15.78.34-16.86-.61-20.14-14.08-.6-2.49-2.57-6-4.59-6.54a124.24,124.24,0,0,0-22-3.82c-2.12-.17-5.79,2.22-6.54,4.24C453.33,971.67,445.41,971.56,434.09,966.4Zm48.83-44.9-2.68-.52-11.69,20.36,18.09,3.53C485.29,936.36,484.1,928.93,482.92,921.5Z"/><path class="cls-1" d="M165,424.78c17.6,10.3,18.69,23.64,14.66,39.57-4.18,16.56-15.94,24.76-33,24.89-21.41.16-38.84-9.92-45.2-26.13-9-22.9,5.17-45.69,30.68-48.24V431c-15.13,4.69-19.59,10.81-17.07,23,1.9,9.21,9.43,11.87,16.65,14.92q20.65,8.73,30.48-3.15c5.27-6.39,5.43-13.45.84-19.94C155.13,434.78,154.87,435,165,424.78Z"/><path class="cls-1" d="M699.84,125c4.61,2.3,7.4,4,10.42,5.12,4.86,1.78,5.78,4.2,4.77,9.65-2.81,15-4.4,30.26-6.37,45.43-.15,1.17.49,2.45,1.49,7,11.16-11.81,20.7-22.24,30.62-32.31,10.65-10.82,10.8-10.67,25.46-.57-13.56,13-26.9,25.77-40.3,38.51-4.49,4.26-9.6,8-13.58,12.65-5.08,6-9.55,6.19-16.67,2.83-7.77-3.66-6.1-9-5.38-14.63C693.37,174.45,696.56,150.26,699.84,125Z"/><path class="cls-1" d="M310.23,816.16c-23.77,11.39-47.29,23-71.19,33.64-2.55,1.13-8.3-2-10.9-4.8-2.18-2.32-3.65-7.69-2.46-10.4C235.74,811.66,246.49,789,257,766.31c13.21,6,14.65,9.86,8.82,21.75-6.26,12.76-12.35,25.61-16.83,40.32,11.32-5.9,22.83-11.44,33.91-17.76C298,802,298.94,801.93,310.23,816.16Z"/><path class="cls-1" d="M337.3,145.54l50.14-23.2c2.21,4.25,4.11,7.89,6.72,12.89l-35,16.53c2.55,5.21,4.94,10.06,7.57,15.43l29-13.15c2.21,3.85,4.43,7.73,7.13,12.42-7.89,3.75-15.33,7.66-23.08,10.81-5.87,2.4-7.36,5-4,10.95,4,7.06,6.79,14.8,10.42,23l-15.44,7.39C359.7,194.34,348.76,170.51,337.3,145.54Z"/><path class="cls-1" d="M284,196.36l-16.55,15.91,42.5,48.78-12.49,11.88-43.58-49.09L235.7,238.76l-8.33-11.69,46.76-41.53Z"/><path class="cls-1" d="M310.44,161.8l43.31,66.36c-.79,1.22-1,1.93-1.5,2.28-15.34,10.8-11.1,10-20.33-3.76-12-17.89-23.43-36.11-35.68-55.07Z"/><path class="cls-1" d="M454.23,186.12l-16.35,4.82-22.1-77.18,16.61-4.31Z"/><path class="cls-1" d="M623.34,955.86l18-4c0,5.62,1.2,10.92-.5,15-.87,2.09-8.51,4-10.31,2.52C627.28,966.73,626.12,961.52,623.34,955.86Z"/></g></svg>