<svg width="237" height="381" viewBox="0 0 237 381" fill="none" xmlns="http://www.w3.org/2000/svg">
<path d="M203.842 181.45C202.157 181.45 201.858 181.45 201.124 181.751C200.39 182.052 199.928 182.763 199.411 182.681C198.895 182.599 198.378 181.368 197.835 179.399C197.578 178.607 197.395 177.792 197.291 176.965C197.073 174.75 198.079 173.382 199.493 170.237C200.662 167.502 200.118 168.159 201.396 165.205C202.673 162.251 204.495 158.833 205.99 155.769C206.495 154.718 206.922 153.63 207.268 152.515C207.467 151.913 207.63 151.312 207.757 150.71C208.056 149.315 208.437 147.975 208.79 146.553C208.95 145.979 209.068 145.394 209.143 144.802C209.47 140.64 209.158 136.452 208.219 132.386C207.431 129.268 206.534 126.178 205.827 123.06C205.827 122.458 205.582 121.747 204.876 117.809C203.788 111.71 203.679 110.999 203.136 107.99C202.561 103.884 201.652 99.8313 200.417 95.8745C199.738 94.2062 198.677 92.2096 197.373 89.0098C196.62 87.1434 195.594 85.401 194.328 83.8407C192.214 81.4035 190.771 78.4524 190.141 75.2804C190.045 74.5669 189.891 73.8625 189.679 73.1745C189.254 71.9266 189.07 70.6085 189.136 69.2909V58.8982C189.274 57.2353 189.08 55.5615 188.565 53.9753C188.495 53.6232 188.495 53.2608 188.565 52.9087C188.501 51.8361 188.328 50.773 188.048 49.7361C187.477 47.0012 186.472 44.5125 185.819 41.8596C185.632 40.8912 185.273 39.9647 184.759 39.1246C183.208 36.4375 181.316 33.9645 179.132 31.7677C178.161 30.9236 177.252 30.0095 176.413 29.0327C175.462 27.9661 174.619 26.8175 173.695 25.6688C172.269 23.9057 171.441 21.7306 171.33 19.4605C171.212 16.3211 169.921 13.342 167.714 11.1189C166.678 9.97466 165.488 8.9806 164.18 8.16519C162.93 7.45411 161.815 6.57895 160.619 5.78582C158.879 4.66449 159.26 3.87135 157.575 2.39449C155.889 0.917622 154.856 0.61681 155.074 0.288618C155.291 -0.0395734 155.509 -0.148971 159.015 0.288618C161.328 0.568168 163.611 1.05323 165.839 1.73813C168.28 2.44212 170.613 3.48209 172.771 4.82857C174.558 6.00829 176.216 7.37419 177.718 8.90364C179.768 10.7286 181.504 12.8817 182.856 15.276C183.721 16.8396 184.37 18.5141 184.786 20.2536C185.14 22.0313 185.819 23.6723 186.336 25.3953C186.774 26.8867 187.443 28.2989 188.32 29.5797C190.277 32.3146 190.767 32.5882 193.023 35.8427C194.56 37.9452 195.846 40.2216 196.856 42.6253C197.591 44.3899 198.156 46.2216 198.541 48.0952C198.945 50.0755 199.154 52.0907 199.167 54.112C199.167 56.847 198.868 57.0384 198.487 62.9732C198.324 65.1885 198.487 66.4192 198.487 68.0055C198.45 69.4383 198.709 70.8633 199.248 72.1899C200.171 74.6529 201.337 77.0168 202.728 79.2461C203.353 80.2033 203.19 79.8204 204.848 81.981C206.507 84.1416 207.241 85.2356 208.083 86.6304C208.994 88.1754 209.793 89.784 210.475 91.4438C212.142 95.5193 213.434 99.7395 214.336 104.052C214.526 104.9 214.743 106.048 214.934 107.553C215.124 109.057 215.07 109.276 215.178 110.752C215.287 112.229 215.505 113.487 215.613 114.663C216.048 118.191 215.885 118.821 216.347 123.88C216.619 126.889 216.673 126.615 217.027 130.608C217.38 134.601 217.516 135.859 217.543 136.926C217.543 138.649 217.38 141.001 217.027 145.678C217.027 147.018 216.891 147.701 216.864 147.811C216.005 152.021 214.363 156.029 212.025 159.626C210.311 162.068 209.023 164.788 208.219 167.666C207.893 168.788 207.784 169.991 207.485 171.14C206.841 173.328 206.908 175.666 207.675 177.813C207.885 178.368 208.067 178.934 208.219 179.509V179.509C208.438 180.131 208.602 180.772 208.708 181.423V181.423C207.088 181.297 205.461 181.306 203.842 181.45V181.45Z" fill="#955041"/>
<path d="M190.353 191.356C189.183 192.278 188.803 192.685 187.361 193.715C185.919 194.745 185.729 194.772 185.375 194.664C185.021 194.555 184.722 193.986 184.232 192.956C184.015 192.522 183.906 192.305 183.743 191.899C182.404 189.543 181.231 187.097 180.233 184.579C179.917 183.44 179.68 182.28 179.526 181.108C179.443 179.933 179.279 178.764 179.036 177.611C178.615 175.883 178.615 174.079 179.036 172.351C179.381 171.056 179.599 169.73 179.689 168.393C179.756 167.808 179.865 167.228 180.016 166.658C180.451 164.706 181.158 162.808 181.648 160.856C182.317 158.352 183.135 155.89 184.096 153.482C184.504 151.964 184.803 150.039 185.402 146.162C185.919 142.882 186.218 140.496 186.789 135.724C186.999 134.568 187.136 133.4 187.198 132.227C187.172 130.777 187.072 129.329 186.898 127.889C186.735 125.449 186.898 125.368 186.898 122.738C186.898 121.084 186.626 119.512 186.272 116.421C185.728 112.002 185.756 112.246 185.511 110.755C184.961 107.149 184.05 103.606 182.79 100.181C180.492 94.7171 177.302 89.6696 173.35 85.2431C171.48 83.416 169.943 81.2785 168.807 78.9262C168.047 76.9355 167.589 74.8431 167.447 72.7178C167.359 72.0247 167.359 71.3233 167.447 70.6302C167.612 68.9865 167.931 67.3618 168.399 65.7773C169.406 62.3884 169.732 62.6866 170.304 60.355C170.836 58.1558 171.019 55.8872 170.848 53.6315C170.839 51.8654 170.526 50.1138 169.923 48.4532C169.58 47.3218 169.115 46.2309 168.535 45.1999C167.034 42.928 165.125 40.952 162.904 39.371C161.449 38.3503 160.202 37.062 159.231 35.5754C157.38 32.8246 155.899 29.8442 154.824 26.7101C154.389 25.463 154.008 24.2429 153.6 22.9958C153.062 21.4085 152.022 20.0384 150.635 19.0918C148.941 17.7962 147.023 16.8221 144.976 16.218C143.578 15.9446 142.229 15.46 140.977 14.7811C139.756 13.8411 138.626 12.7881 137.604 11.6362C137.339 11.4037 137.093 11.1498 136.869 10.8771C135.775 9.61402 135.001 8.10794 134.611 6.48512C137.332 4.85845 139.182 3.77398 140.379 2.82509C140.596 2.63531 141.086 2.28287 141.521 2.44553C141.956 2.6082 141.929 3.93668 142.256 5.31936C142.956 7.2429 144.252 8.89484 145.956 10.0367C146.993 10.8315 148.205 11.3703 149.492 11.6091C150.592 12.0694 151.758 12.3531 152.947 12.4496C154.264 12.544 155.502 13.1125 156.429 14.0492C156.946 14.5372 157.409 15.0522 157.953 15.5402C158.882 16.4639 159.589 17.5855 160.02 18.8207C160.303 19.476 160.522 20.1569 160.673 20.8541C161.206 23.3913 161.962 25.877 162.931 28.2825C163.598 31.1846 165.336 33.7302 167.801 35.4128L168.073 35.6567C169.099 36.6322 170.189 37.538 171.337 38.3679C172.439 39.0537 173.37 39.9809 174.058 41.079C175.346 43.2087 176.439 45.4499 177.322 47.7754C177.812 49.131 177.676 50.4866 178.084 51.9235C178.562 54.1126 178.745 56.3555 178.628 58.5928C178.594 59.6534 178.448 60.7075 178.193 61.7377C177.773 63.7013 177.181 65.6245 176.425 67.4853C176.02 68.4088 175.811 69.4056 175.811 70.4133C175.811 71.421 176.02 72.4178 176.425 73.3413L177.105 74.968C179.063 78.8449 180.043 80.7698 180.614 81.7187C182.573 84.9991 182.79 84.4298 184.858 87.6289C187.081 91.1477 188.742 94.989 189.782 99.0156C189.972 99.6934 190.054 100.398 190.244 101.076C190.925 103.787 191.686 106.309 192.366 108.938C193.264 112.354 194.107 115.797 194.923 119.213C195.604 121.925 195.93 123.768 196.202 125.341C196.746 127.864 197.047 130.433 197.1 133.013C197.136 134.191 197.072 135.37 196.91 136.538C196.399 138.584 196 140.657 195.713 142.746C195.682 142.98 195.682 143.217 195.713 143.451C195.682 144.64 195.443 145.814 195.005 146.921C194.494 148.739 193.801 150.501 192.938 152.181C192.693 152.614 192.475 153.265 192.23 153.807C190.027 158.742 188.884 159.419 187.524 162.89C186.55 165.036 185.925 167.324 185.674 169.667C185.58 170.371 185.443 171.068 185.266 171.755C185.112 173.162 185.261 174.585 185.701 175.93C187.252 181.976 186.708 181.976 187.742 184.063C188.299 185.522 189.238 186.804 190.462 187.778C191.414 188.455 192.312 188.672 192.339 189.296C192.366 189.919 191.931 190.082 190.353 191.356Z" fill="#955041"/>
<path d="M151.119 0.0220421C151.273 -0.00734736 151.431 -0.00734736 151.585 0.0220421C151.865 0.100971 152.102 0.286941 152.244 0.539041C152.664 0.977509 153.167 1.32893 153.725 1.573C154.823 2.30767 155.454 4.86542 156.469 6.03546C158.499 8.21638 160.918 10.0061 163.604 11.3142C164.748 11.7955 165.709 12.6244 166.348 13.6815C167.959 16.17 169.077 18.9406 169.64 21.8446C169.99 24.5714 171.123 27.1408 172.906 29.2457C173.262 29.6811 173.619 30.1709 173.948 30.6606C174.921 32.0196 176.118 33.2063 177.488 34.1708C180.392 35.896 182.559 38.6158 183.579 41.8168C183.579 42.3882 184.128 42.878 184.32 43.4494C184.8 44.5275 185.141 45.6611 185.336 46.8235C185.517 48.2367 185.829 49.6304 186.269 50.9866C186.72 52.71 186.942 54.4848 186.927 56.2654C186.927 60.1837 186.927 64.1019 186.927 68.0201C186.862 68.8569 186.908 69.6987 187.064 70.5235C187.693 74.0258 188.859 77.4119 190.522 80.564C191.345 81.8701 192.086 83.2851 192.909 84.5095C195.841 88.8576 197.977 93.6841 199.22 98.7676C199.631 100.509 200.125 102.223 200.564 103.938C200.866 105.135 200.866 105.434 201.497 109.162C202.128 112.89 202.375 114.604 202.705 116.128C203.079 117.499 203.382 118.888 203.61 120.291C203.761 122.069 204.158 123.818 204.79 125.488C205.147 127.093 205.311 127.882 207.534 139.093C207.836 140.229 207.966 141.402 207.918 142.576C207.914 144.963 207.656 147.344 207.15 149.678C207.089 150.146 206.997 150.609 206.875 151.066C205.714 154.674 204.226 158.171 202.43 161.514C200.729 164.643 199.138 167.854 197.601 171.065C197.125 172.275 196.749 173.522 196.476 174.793V174.956C196.206 176.406 196.291 177.899 196.723 179.31C197.464 181.84 198.589 182.629 198.122 183.446C197.958 183.718 197.903 183.446 196.805 184.235C196.026 184.688 195.389 185.347 194.967 186.139V186.139C194.233 186.906 193.606 187.766 193.101 188.697L192.332 187.908C191.063 186.526 190.083 184.908 189.451 183.146C189.095 182.248 189.177 182.303 188.244 179.364C187.668 177.568 187.613 177.459 187.503 176.97C187.301 175.811 187.246 174.632 187.339 173.459C187.367 170.779 187.879 168.125 188.848 165.623C189.287 164.535 189.259 164.861 190.988 161.623C192.497 158.902 192.415 158.739 194.116 155.446C195.435 153.196 196.599 150.859 197.601 148.453C198.131 147.135 198.526 145.768 198.781 144.372C199.091 142.993 199.293 141.592 199.384 140.181C199.378 139.389 199.433 138.598 199.549 137.814C199.67 135.565 199.624 133.309 199.412 131.066C199.247 129.379 198.945 127.964 198.397 125.134C198.067 123.502 197.491 121.923 197.326 120.291C196.988 117.587 196.484 114.907 195.817 112.264C195.704 111.449 195.549 110.641 195.351 109.842C193.759 104.999 192.387 100.074 190.768 95.2303C189.621 91.8559 188.122 88.6094 186.296 85.5435C184.375 82.2511 182.427 78.9858 180.506 75.7206C179.673 74.2756 179.212 72.6497 179.162 70.9861C179.237 68.9667 179.607 66.9687 180.259 65.0543C181.155 62.345 181.527 59.4925 181.357 56.6463C181.357 56.0477 181.357 55.4491 181.357 54.8777C181.317 54.2831 181.234 53.692 181.11 53.109C180.181 48.934 178.657 44.9117 176.582 41.1638C176.155 40.3158 175.589 39.5436 174.909 38.8781C173.29 37.2727 171.726 35.6401 170.079 34.0891C168.762 32.8733 167.634 31.4702 166.732 29.926C165.509 28.0254 164.584 25.952 163.988 23.7765C163.339 20.5033 161.94 17.4218 159.899 14.7699C159.738 14.5979 159.6 14.4058 159.488 14.1985C159.11 13.4504 158.609 12.77 158.006 12.185C156.603 11.1068 154.985 10.337 153.259 9.92653C150.33 9.42135 147.575 8.1958 145.247 6.36201C143.765 4.89266 142.503 2.5798 143.244 1.51861C143.244 1.51861 143.491 1.21927 145.055 0.811118C147.044 0.345156 149.076 0.0807857 151.119 0.0220421Z" fill="#955041"/>
<path d="M148.083 167.944L145.693 172.384C143.856 176.077 141.778 179.645 139.473 183.063C138.902 183.853 138.277 184.643 137.218 186.141C136.159 187.64 135.67 188.539 134.719 189.765C133.879 190.847 132.972 191.875 132.003 192.843C133.279 198.918 133.796 202.623 134.067 204.939C134.067 205.783 134.23 206.491 134.42 207.663C134.828 209.924 135.616 212.103 136.104 214.364C136.267 215.182 136.756 216.544 136.24 217.252C135.62 217.785 134.853 218.118 134.04 218.206C133.47 218.369 132.872 218.451 132.329 218.641C128.526 220.004 124.615 220.848 120.73 221.911C118.066 222.48 115.464 223.311 112.961 224.39C112.519 224.558 112.065 224.695 111.603 224.798C106.795 226.46 102.015 228.258 97.2612 230.083C93.5127 231.527 89.6555 232.807 85.8255 233.952C84.9291 234.251 84.0056 234.496 83.1092 234.823C81.3153 235.409 79.6002 236.214 78.0025 237.221C75.6393 238.773 73.0588 239.945 70.5598 241.389C69.2758 242.001 68.0408 242.711 66.8657 243.514C66.2845 243.933 65.6553 244.28 64.9914 244.549C62.2751 245.884 59.5588 247.627 56.8425 249.153C54.1136 250.821 51.5165 252.697 49.0739 254.765C46.6554 256.845 44.1254 258.791 41.4953 260.595C40.9148 261.012 40.3697 261.476 39.8655 261.984C39.0556 262.846 38.1434 263.605 37.1492 264.245C36.5633 264.655 36.0175 265.12 35.5194 265.634C34.7615 266.381 33.9439 267.064 33.0748 267.677C31.2082 269.15 29.4888 270.802 27.9409 272.608C27.2232 273.858 26.3055 274.981 25.2246 275.932C24.7938 276.344 24.4194 276.811 24.111 277.321C22.8301 279.591 21.3386 281.734 19.6562 283.723C18.4338 285.33 17.3745 287.047 16.288 288.736C15.9545 289.369 15.664 290.024 15.4187 290.697C15.2938 291.152 15.0816 291.577 14.794 291.95C13.5783 293.419 12.5894 295.063 11.8604 296.827C10.801 298.952 9.7144 301.049 8.70937 303.201C7.70433 305.353 6.78093 307.56 5.80306 309.712C5.53143 311.973 4.11888 313.908 3.87442 316.169C3.36647 317.628 3.16298 319.176 3.27674 320.718C3.21229 322.163 3.64376 323.586 4.49912 324.75C4.90656 325.322 5.28685 325.921 5.6943 326.521C5.88205 326.823 6.11057 327.098 6.37338 327.338C8.21884 329.03 10.4184 330.287 12.811 331.016C16.1521 331.751 19.4116 332.759 22.807 333.358C25.5801 334.086 28.3023 334.996 30.956 336.083C35.3905 337.602 39.9298 338.795 44.5375 339.651C45.1623 339.651 48.2046 340.251 52.2791 340.496C57.2228 340.796 61.2429 340.496 63.3073 340.496C63.901 340.593 64.5063 340.593 65.1 340.496C66.9415 340.061 68.8317 339.868 70.7228 339.924C74.4442 339.515 75.4221 339.488 77.405 339.188L79.4964 338.861C80.3113 338.861 81.1263 338.589 81.9412 338.534C82.8601 338.492 83.7713 338.346 84.6575 338.099L86.7763 337.799C92.4534 337.118 108.045 337.063 108.045 337.063H115.162C128.064 337.063 126.244 337.063 128.553 337.063C133.225 337.063 137.816 337.063 141.021 337.063C142.204 336.982 143.392 337.12 144.525 337.472C145.559 337.755 146.636 337.847 147.703 337.744C149.714 337.616 151.733 337.819 153.679 338.344C154.381 338.454 155.096 338.454 155.798 338.344C157.455 338.344 159.139 338.344 160.796 338.344C161.62 338.332 162.443 338.433 163.24 338.643C164.262 338.944 165.327 339.073 166.391 339.025C169.002 339.003 171.602 339.37 174.106 340.115C175.41 340.221 176.677 340.607 177.82 341.246C178.964 341.885 179.957 342.763 180.733 343.819C182.246 345.168 183.579 346.706 184.699 348.396C184.965 348.785 185.285 349.134 185.65 349.431C188.765 352.721 190.95 356.783 191.979 361.2C192.543 363.391 193.26 365.539 194.125 367.629C195.424 370.42 196.39 373.356 197.004 376.374C197.18 377.308 197.453 378.221 197.819 379.098C198.009 379.531 198.309 379.906 198.688 380.188C199.089 380.553 199.578 380.807 200.107 380.925C200.635 381.043 201.186 381.022 201.703 380.862C202.221 380.703 202.689 380.411 203.06 380.016C203.431 379.621 203.694 379.135 203.822 378.608C204.942 376.367 205.528 373.895 205.533 371.389C205.459 370.198 205.616 369.005 205.995 367.874C206.389 366.485 206.389 365.014 205.995 363.624C205.615 362.126 205.533 360.573 205.099 359.102C204.899 358.542 204.789 357.954 204.773 357.359C204.737 355.567 204.272 353.81 203.415 352.237C202.334 349.729 201.62 347.077 201.296 344.364C200.94 342.606 201.091 340.782 201.73 339.107C202.315 337.172 203.05 335.286 203.931 333.467C205.385 330.448 205.878 327.052 205.343 323.742C205.183 322.795 204.812 321.896 204.257 321.113C203.702 320.33 202.978 319.683 202.138 319.22C201.05 318.499 199.926 317.835 198.77 317.231C198.459 317.062 198.117 316.96 197.765 316.931C196.583 316.782 195.384 316.865 194.234 317.177C193.917 317.33 193.577 317.431 193.229 317.476C191.446 317.556 189.718 318.121 188.23 319.111C186.35 320.136 184.296 320.802 182.173 321.072C180.869 321.29 179.647 321.644 178.397 321.971C177.148 322.298 175.681 322.788 174.296 323.115C173.478 323.246 172.652 323.31 171.824 323.306C169.929 323.15 168.021 323.353 166.201 323.905H159.791C158.567 323.449 157.265 323.245 155.961 323.306C155.375 323.246 154.794 323.146 154.222 323.006C153.657 322.832 153.074 322.722 152.484 322.679C150.11 322.683 147.752 322.297 145.503 321.535C144.036 321.099 142.488 321.018 140.994 320.582C139.289 320.122 137.611 319.568 135.969 318.92C134.184 318.275 132.479 317.425 130.889 316.387C129.222 315.318 127.384 314.544 125.457 314.098C124.207 313.771 122.93 313.472 121.708 313.063C119.252 312.198 116.725 311.551 114.157 311.129C111.25 310.666 108.398 309.876 105.519 309.304C99.2169 308.078 99.1898 307.969 97.8859 307.751C94.963 307.295 92.0146 307.022 89.0579 306.933C86.0971 306.933 86.3416 307.07 81.5881 307.07C76.8345 307.07 76.4542 306.825 73.4391 307.07C70.424 307.315 69.9894 307.506 66.5126 307.642C63.0357 307.778 63.7963 307.642 61.0799 307.642C59.0699 307.642 56.8154 308.078 52.3063 308.704L49.8616 309.058C49.0407 309.143 48.2247 309.271 47.4168 309.44C45.325 309.871 43.1745 309.936 41.0607 309.63C41.0607 309.63 40.7619 309.222 40.8162 309.113C40.9705 308.788 41.1928 308.5 41.4681 308.268C42.0645 307.898 42.6362 307.488 43.1794 307.042C45.0549 305.221 47.1544 303.646 49.427 302.357C51.6103 300.93 53.8781 299.639 56.2178 298.488C57.3132 298.028 58.352 297.443 59.3143 296.745C63.0526 294.789 66.9513 293.157 70.9674 291.869C74.4171 290.643 77.2419 289.635 81.2349 288.572C86.6676 287.156 87.3195 287.401 93.9473 285.712C95.74 285.249 98.1032 284.568 102.802 283.206C106.551 282.116 111.658 280.481 116.792 278.711C118.454 278.158 120.071 277.475 121.626 276.667C122.989 275.799 124.405 275.017 125.864 274.325C126.75 273.947 127.657 273.619 128.58 273.344C128.309 273.713 128.019 274.068 127.711 274.406C122.441 280.454 115.053 281.408 105.736 284.922L105.057 285.167C102.748 285.984 100.385 286.665 97.9945 287.265L90.7148 289.09C86.8033 290.098 84.8476 290.588 82.5659 291.324C79.5508 292.277 79.8497 292.386 75.1776 294.048C70.0709 295.819 69.7449 295.71 66.7569 296.772C63.769 297.835 61.9219 298.87 59.8032 299.905C56.7527 301.293 53.8724 303.03 51.2197 305.081C50.2418 305.898 49.4812 306.634 48.9651 307.151C49.617 307.151 50.5678 306.961 51.6814 306.716C52.7951 306.47 52.5507 306.416 53.5829 306.28C54.9262 306.204 56.2567 305.975 57.5488 305.599C58.2473 305.47 58.9583 305.425 59.6674 305.462C60.379 305.497 61.0921 305.433 61.7862 305.272C63.2621 304.817 64.8096 304.641 66.3496 304.754C70.0166 304.754 81.6424 304.1 95.1968 304.754C97.4785 304.754 100.412 305.027 104.025 305.462C106.062 305.708 108.126 306.007 108.914 306.116C110.561 306.271 112.195 306.544 113.803 306.933C115.841 307.533 117.987 307.642 120.024 308.377C122.74 309.358 125.456 310.366 127.928 311.537C130.4 312.709 132.981 313.608 135.371 314.888C136.001 315.234 136.698 315.443 137.414 315.499C138.13 315.555 138.851 315.459 139.527 315.215C143.004 314.016 146.644 313.472 150.094 312.191C152.175 311.725 154.204 311.05 156.151 310.175C158.079 309.576 159.926 308.759 161.828 308.105C162.588 307.833 163.403 307.669 164.218 307.451C166.365 306.802 168.565 306.346 170.792 306.089C172.31 305.84 173.802 305.448 175.246 304.918C176.496 304.563 177.718 304.182 178.968 303.746C181.407 302.828 183.939 302.179 186.519 301.812C187.094 301.699 187.658 301.535 188.203 301.322C191.3 300.532 194.478 300.177 197.547 299.224C198.125 299.086 198.72 299.031 199.313 299.06H206.43C208.457 299.033 210.439 299.664 212.08 300.858C212.65 301.294 213.248 301.648 213.845 302.03C214.773 302.574 215.541 303.354 216.073 304.291C217.07 305.913 218.286 307.389 219.685 308.677C220.274 309.26 220.794 309.909 221.234 310.611C222.456 312.518 223.624 314.425 224.765 316.359C225.053 316.876 225.281 317.425 225.444 317.994C225.947 319.587 226.537 321.151 227.21 322.679C227.421 323.104 227.542 323.568 227.563 324.042C227.669 325.471 228.116 326.854 228.867 328.073C229.204 328.769 229.678 329.389 230.262 329.895C230.846 330.401 231.526 330.782 232.262 331.016C232.597 331.142 232.961 331.17 233.312 331.098C233.663 331.026 233.986 330.855 234.245 330.607C234.826 330.184 235.217 329.547 235.331 328.836C235.869 326.522 236.151 324.156 236.173 321.78C236.078 321.313 236.078 320.831 236.173 320.364C236.743 317.569 236.908 314.706 236.662 311.864C236.605 311.39 236.496 310.925 236.336 310.475C235.61 307.23 234.703 304.029 233.62 300.886C233.283 300.017 233.108 299.094 233.104 298.161C233.131 297.808 233.131 297.453 233.104 297.099C233.021 294.242 233.351 291.389 234.082 288.627C234.761 285.276 235.576 281.925 236.472 278.629C236.981 276.884 236.796 275.009 235.956 273.398C235.702 272.865 235.475 272.32 235.277 271.764C234.857 270.584 234.083 269.563 233.062 268.841C232.041 268.119 230.822 267.732 229.573 267.732C228.506 267.676 227.439 267.814 226.422 268.141C225.417 268.467 224.276 268.413 223.298 268.767C221.983 269.302 220.704 269.92 219.468 270.62C217.956 271.319 216.503 272.139 215.122 273.071C214.263 273.65 213.354 274.152 212.406 274.57L201.54 280.018C200.372 280.59 199.15 281.053 197.928 281.517C192.785 283.296 187.554 284.806 182.255 286.039C181.791 286.153 181.318 286.226 180.842 286.257C179.921 286.274 179.006 286.421 178.126 286.693C177.562 286.867 176.977 286.959 176.387 286.965C174.614 286.939 172.844 287.131 171.118 287.537C169.954 287.752 168.767 287.816 167.587 287.728C166.275 287.651 164.96 287.808 163.702 288.191C163.019 288.362 162.315 288.435 161.611 288.409H156.966C155.667 288.354 154.367 288.492 153.109 288.817C152.219 289.026 151.305 289.108 150.392 289.063C146.128 289.063 141.836 289.063 137.571 289.063C136.386 288.988 135.198 289.136 134.067 289.498C132.911 289.77 131.719 289.853 130.536 289.744C128.995 289.652 127.45 289.837 125.973 290.289C125.399 290.449 124.802 290.513 124.207 290.479C122.901 290.37 121.587 290.537 120.35 290.97C120.026 291.116 119.672 291.181 119.318 291.16C115.705 290.97 112.364 292.441 108.833 292.74C108.717 292.713 108.596 292.713 108.48 292.74L107.067 293.203C106.171 293.503 103.427 294.293 101.634 294.729C97.6415 295.764 98.0761 295.437 95.4956 296.173C93.5942 296.69 93.1324 296.936 89.737 297.944C86.3416 298.952 85.9342 298.952 85.9071 298.897C87.7203 297.358 89.789 296.15 92.0188 295.328C93.3769 294.729 94.4091 294.348 95.3326 293.993C97.7695 293.101 100.254 292.346 102.775 291.732C104.731 291.215 106.279 290.888 108.615 290.37L113.803 289.226C115.153 288.782 116.533 288.436 117.932 288.191C119.318 288.191 120.649 287.591 122.088 287.428C123.83 287.101 125.59 286.883 127.358 286.774C128.332 286.784 129.273 286.424 129.993 285.766C131.053 285.025 132.17 284.369 133.334 283.805C134.067 283.423 134.773 283.042 136.24 282.334C137.707 281.625 139.201 280.944 141.32 280.073C142.651 279.555 144.036 278.983 145.938 278.411C146.535 278.22 146.698 278.166 149.469 277.403L153.407 276.341C155.472 275.796 157.373 275.278 159.845 274.788L163.594 274.079C164.583 273.894 165.562 273.658 166.527 273.371C167.804 272.935 168.238 272.554 170.683 271.519L171.688 271.11C175.409 269.557 179.403 267.432 179.647 267.296C181.351 266.444 183.002 265.489 184.591 264.436C186.24 263.265 187.777 261.943 189.181 260.486C190.452 259.29 191.607 257.977 192.631 256.563C193.699 254.986 194.608 253.307 195.347 251.55C195.984 250.063 196.546 248.544 197.031 247.001C197.526 245.653 197.917 244.268 198.199 242.86C198.445 241.247 198.536 239.614 198.471 237.983C198.471 237.575 198.471 235.859 198.471 234.496C198.123 231.28 197.337 228.127 196.135 225.125C194.994 221.72 193.962 219.867 193.065 217.17C192.495 215.346 191.572 213.652 190.349 212.185C189.711 211.472 189.222 210.639 188.91 209.733C188.143 207.488 187.103 205.347 185.813 203.359C185.562 202.954 185.352 202.525 185.188 202.078C184.354 199.596 183.074 197.288 181.413 195.268C180.964 194.715 180.614 194.088 180.38 193.415C180.219 192.843 180.029 192.279 179.81 191.726C178.531 189.065 177.617 186.243 177.094 183.336C176.833 182.451 176.696 181.534 176.686 180.611V170.968C176.653 170.046 176.773 169.126 177.039 168.243C177.222 167.802 177.323 167.331 177.338 166.854C177.543 164.488 178.064 162.161 178.886 159.935C179.348 158.409 179.647 157.537 180 156.556C181.136 153.006 181.945 149.358 182.418 145.66C183.246 141.339 183.71 136.955 183.803 132.556C183.785 128.786 183.549 125.02 183.097 121.278C183.097 120.76 182.825 119.671 182.662 118.118C182.431 116.056 182.322 113.982 182.336 111.906C182.093 107.605 181.09 103.38 179.375 99.4296C177.481 95.5888 175.128 91.9937 172.367 88.7234C168.456 83.5473 167.098 82.6484 166.337 79.7607C165.706 77.0799 165.351 74.3414 165.278 71.588C165.278 71.3428 165.278 70.9887 165.278 70.5256C165.317 67.8271 165.701 65.1447 166.418 62.5436C167.206 59.8194 167.478 60.3642 167.913 58.43C168.467 55.7166 168.336 52.9072 167.532 50.2574C167.022 48.4176 166.225 46.6705 165.169 45.0813C164.867 44.5745 164.492 44.1155 164.055 43.7192C162.757 42.3237 161.329 41.0557 159.791 39.9325C158.324 38.9133 157.129 37.5473 156.314 35.9552C154.711 33.231 153.598 30.1526 152.104 27.3467C151.234 25.1342 150.035 23.0674 148.545 21.2172C148.265 20.8369 147.89 20.5365 147.459 20.3454C145.9 19.4911 144.284 18.7447 142.624 18.1116C140.897 17.5691 139.317 16.6372 138.006 15.3873C137.544 15.018 137.063 14.6725 136.566 14.3521C135.546 13.6194 134.632 12.7485 133.85 11.7641C133.078 10.7122 132.405 9.59045 131.84 8.41333C131.84 8.41333 131.84 8.41333 131.84 8.41333C131.242 8.84921 130.59 9.23058 130.02 9.72094C127.604 11.8995 125.607 14.5032 124.126 17.4033C122.585 20.6059 121.216 23.8887 120.024 27.2377C120.024 27.5646 120.024 27.9732 119.725 28.2729C118.277 31.53 117.228 34.9512 116.601 38.4615C116.384 39.3605 116.194 40.2595 115.977 41.1857C115.433 43.7737 114.591 46.3345 114.238 48.977C114.238 49.5763 114.048 50.1484 114.021 50.7477C114.005 50.8195 114.005 50.8938 114.021 50.9657C114.021 51.2108 114.727 51.2381 114.944 51.2653C115.342 51.2933 115.742 51.2933 116.14 51.2653H118.068C118.503 51.2653 118.937 51.2653 119.372 51.4288C119.591 51.4245 119.809 51.4715 120.007 51.5661C120.205 51.6607 120.378 51.8002 120.513 51.9736C120.789 52.5149 120.947 53.1095 120.975 53.7171C121.161 55.4817 121.251 57.255 121.246 59.0294C121.246 59.9828 121.246 64.4778 123.963 66.4393C125.344 67.1789 126.915 67.4827 128.472 67.311C131.088 67.4047 133.702 67.0735 136.213 66.3303C138.181 65.9127 140.082 65.2252 141.863 64.2871C143.831 63.1804 145.655 61.8354 147.296 60.2825C149.55 58.321 150.827 57.3948 151.316 56.9862C152.54 55.9685 153.693 54.8671 154.766 53.6899L156.477 51.7284L157.917 50.0394C157.843 50.3171 157.752 50.5901 157.645 50.8567C157.267 51.6788 156.812 52.4632 156.287 53.1995L155.39 54.5616C155.064 54.943 155.01 54.943 153.788 56.3051C153.549 56.5994 153.295 56.8812 153.027 57.1496C152.62 57.5583 152.321 57.8034 151.968 58.1031C151.615 58.4028 151.044 58.9748 150.555 59.4652C149.605 60.4187 149.414 60.446 147.839 61.8353C146.263 63.2247 145.856 63.7423 144.661 64.5595C144.009 65.0499 143.466 65.404 143.113 65.6492C143.113 66.2758 143.248 66.8206 143.276 67.202C143.571 69.2126 143.671 71.2471 143.574 73.277C143.533 73.7574 143.533 74.2405 143.574 74.7209C143.555 74.9657 143.555 75.2116 143.574 75.4564C143.573 76.4673 143.509 77.4772 143.384 78.4803C142.917 81.2756 142.162 84.0145 141.13 86.653C140.161 89.2041 139.046 91.6964 137.789 94.1173C137.408 94.8528 137.164 95.6429 136.838 96.4057C136.617 97.0838 136.316 97.7331 135.941 98.3399C134.692 100.111 133.931 102.127 132.818 103.952C131.079 106.676 129.531 109.727 127.793 112.533C124.696 117.491 121.409 122.286 118.231 127.135C117.498 128.225 116.873 129.369 116.248 130.513C114.034 133.883 111.994 137.366 110.137 140.947C107.855 144.161 106.633 147.975 104.378 151.19C103.536 153.26 102.667 155.358 101.852 157.455C101.227 159.117 100.684 160.806 100.059 162.495C99.9607 162.841 99.7549 163.147 99.4716 163.367C99.1882 163.588 98.8422 163.712 98.4836 163.721C97.2913 163.671 96.1006 163.856 94.9795 164.266C94.6515 164.395 94.2972 164.441 93.9473 164.402C91.8142 164.361 89.6855 164.609 87.6184 165.138C85.6626 165.628 83.6796 165.955 81.7238 166.336C81.6066 166.352 81.4879 166.352 81.3707 166.336C79.3682 166.474 77.3941 166.886 75.5035 167.562C73.6836 168.134 71.8637 168.57 70.0709 169.197C68.2782 169.823 66.8928 170.15 65.2902 170.532C64.4753 170.685 63.6475 170.758 62.8184 170.75C60.4281 170.75 58.0649 170.75 55.7017 170.75C53.8086 170.704 51.9288 170.42 50.1061 169.905C49.4241 169.7 48.7678 169.416 48.1503 169.061C46.5776 168.366 45.045 167.584 43.5597 166.718C43.2609 166.527 42.1472 165.846 40.8434 164.838C37.9098 162.631 37.0134 161.188 36.3072 161.515C35.6009 161.841 35.6552 162.986 35.7367 163.667C35.9271 164.508 36.3732 165.27 37.0135 165.846C37.661 166.577 38.3698 167.252 39.1321 167.862C41.2508 169.687 42.3101 170.586 42.1472 171.104C41.7669 172.33 35.1119 171.104 34.3785 171.104C31.3305 170.555 28.3936 169.506 25.6863 167.998C24.769 167.551 23.9334 166.953 23.2145 166.227C22.4268 165.356 20.7428 163.313 20.7428 163.313C20.4923 163.061 20.1976 162.858 19.8735 162.713C19.6834 162.713 19.3301 162.55 19.2215 162.713C19.1128 162.877 18.7326 163.34 18.7869 163.585C19.4193 165.24 20.2787 166.799 21.3403 168.216C22.3133 169.267 23.3571 170.25 24.4641 171.158C25.408 172.031 26.4362 172.806 27.5336 173.474C28.491 174.039 29.4898 174.531 30.5214 174.945C32.4984 175.857 34.565 176.56 36.6875 177.043C38.2358 177.397 39.7025 177.587 39.8384 177.615L41.93 177.833L44.0486 178.051C46.0587 178.051 48.096 178.051 50.1061 178.051C52.8442 178.019 55.5774 178.293 58.255 178.868C58.7182 178.966 59.1724 179.103 59.6132 179.276C61.4331 179.794 63.2259 180.393 65.0458 180.802C66.8839 181.205 68.7429 181.505 70.6142 181.701C74.7329 182.111 78.8819 182.111 83.0006 181.701C83.897 181.701 86.396 181.456 89.6012 181.02C90.7421 180.857 91.8828 180.693 93.4311 180.421C96.1475 179.93 95.9302 179.794 97.9403 179.494C99.9504 179.195 100.276 178.868 101.77 178.759C102.471 178.637 103.137 178.368 103.726 177.969C104.45 177.572 105.141 177.117 105.79 176.607C106.234 176.224 106.634 175.795 106.986 175.326C109.05 172.793 109.05 172.956 109.702 172.085C110.831 170.546 111.813 168.904 112.635 167.181C113.885 164.647 113.369 166.091 119.1 156.148C121.626 151.789 121.382 152.089 124.995 145.823L128.417 139.83C130.319 136.506 131.134 134.844 131.46 134.381C132.111 132.905 132.864 131.476 133.714 130.104C134.029 129.695 134.319 129.267 134.583 128.824C134.798 128.38 135.072 127.968 135.398 127.598C135.44 127.731 135.44 127.874 135.398 128.007C135.3 128.459 135.173 128.905 135.018 129.342C135.018 129.641 134.855 129.914 134.801 130.213C134.746 130.513 134.801 130.813 134.611 131.085C134.384 131.536 134.184 132 134.013 132.474C133.633 133.482 133.307 134.518 132.845 135.498C132.558 136.149 132.193 136.762 131.758 137.323C131.482 137.712 131.237 138.122 131.025 138.549L126.434 146.994C126.136 147.512 125.81 148.002 125.484 148.52C123.046 152.162 120.859 155.967 118.937 159.907C116.656 164.62 114.238 169.279 111.956 173.991C111.62 174.618 111.199 175.195 110.707 175.708C110.025 176.57 109.29 177.389 108.507 178.16C106.955 179.564 105.16 180.672 103.21 181.429C98.1848 183.445 93.4855 184.752 89.0307 186.196C83.2993 188.076 82.7289 188.621 78.5186 189.683C76.0468 190.282 76.5086 190.037 71.6464 191.154C68.7025 191.91 65.7189 192.501 62.7097 192.925L59.7762 193.224C55.1313 193.715 54.5336 193.987 52.2247 194.205C49.1784 194.688 46.0667 194.559 43.0708 193.824C41.2865 193.317 39.5914 192.536 38.0457 191.508C35.3294 189.683 35.3292 188.784 31.798 185.706C29.8151 184.098 29.4621 183.744 27.6421 182.382C26.2785 181.411 25.2072 180.082 24.5455 178.541C24.2418 177.763 23.8499 177.023 23.3775 176.334C23.0516 175.817 21.6119 173.61 20.8514 173.937C20.0908 174.264 20.1995 177.043 20.5526 178.868C20.9216 180.548 21.5154 182.17 22.3181 183.69C24.0294 187.204 25.0345 187.939 24.7629 188.702C24.0566 190.092 19.4932 189.165 17.3202 188.512C14.9289 187.79 12.6974 186.615 10.7466 185.052C9.42389 183.952 8.17187 182.769 6.99808 181.51C5.91887 180.031 4.51583 178.819 2.89658 177.969C2.46197 177.778 0.696371 177.043 0.180272 177.669C-0.335827 178.296 0.316094 180.393 1.37546 181.674C2.58271 183.141 3.68978 184.688 4.68928 186.305C4.94933 186.707 5.24973 187.081 5.58571 187.422C5.99315 187.858 6.40049 188.266 6.8351 188.675C9.77081 191.93 13.2103 194.69 17.0213 196.848C17.7862 197.402 18.6165 197.86 19.4932 198.21C20.7342 198.63 21.9129 199.216 22.9972 199.953C25.6826 201.713 28.6647 202.969 31.798 203.658C34.2968 204.335 36.8377 204.845 39.4038 205.184C41.0336 205.456 42.5819 205.701 44.6735 205.892C46.3304 206.056 47.9058 206.083 51.0567 206.137C56.1362 206.137 58.4723 206.137 59.2057 206.137L62.3837 205.947C70.3697 205.347 82.1585 206.165 96.5006 205.211C98.6193 205.075 101.417 204.857 104.948 204.312C108.901 203.622 112.803 202.666 116.629 201.452C117.318 201.251 117.99 200.996 118.639 200.689C120.23 199.911 121.673 198.86 122.903 197.583L128.336 191.999C129.531 190.664 130.699 189.274 132.546 187.095C136.213 182.6 137.979 180.366 140.016 177.587C141.898 174.958 143.639 172.23 145.231 169.415C146.752 166.691 146.834 166.2 149.17 162.005C150.691 159.281 151.017 158.872 152.267 156.556C153.027 155.113 153.924 153.315 154.983 151.299L156.205 148.901C156.898 147.315 157.677 145.769 158.541 144.27C158.262 145.7 157.862 147.103 157.346 148.466C157.183 149.01 156.993 149.61 156.721 150.373C156.45 151.135 156.124 151.871 155.906 152.388C155.254 153.941 154.63 155.44 153.978 156.856C152.647 159.471 151.56 161.46 148.083 167.944ZM137.979 30.9971C137.679 31.3663 137.342 31.704 136.974 32.0051C136.102 32.8049 135.076 33.4169 133.959 33.8031C133.075 34.0477 132.151 34.1125 131.242 33.9938C130.279 33.8776 129.352 33.5522 128.526 33.0403C127.754 32.4912 127.067 31.8302 126.489 31.0788C126.136 30.6702 125.918 30.3705 125.701 30.0709C125.484 29.7712 124.886 28.9539 124.968 28.8722C125.049 28.7905 126.326 29.9619 128.146 30.8609C129.379 31.4554 130.718 31.798 132.084 31.8689C133.995 31.9852 135.895 31.4994 137.517 30.4795C138.386 29.9074 139.011 29.2264 139.12 29.3353C139.228 29.4443 138.522 30.3705 137.979 30.9971V30.9971Z" fill="#955041"/>
</svg>
