<svg width="17" height="20" viewBox="0 0 17 20" fill="none" xmlns="http://www.w3.org/2000/svg">
<path d="M0 10.2895C0.0253353 10.3314 0.040926 10.398 0.0750332 10.413C0.405375 10.5533 0.729872 10.7514 1.07191 10.8042C2.38353 11.0092 3.67859 11.3656 5.0253 11.2621C5.56126 11.2213 5.99976 11.6135 6.17906 12.1709C6.21317 12.2705 6.25215 12.377 6.27651 12.4845C6.72671 14.4166 7.16717 16.3537 7.62614 18.2839C7.7538 18.8164 7.92822 19.337 8.1007 19.8557C8.12789 19.8989 8.16502 19.9346 8.20884 19.9598C8.25267 19.9849 8.30186 19.9987 8.35211 20C8.42617 20 8.51875 19.9064 8.56455 19.8278C8.6097 19.7277 8.63865 19.6208 8.6503 19.5112C8.93777 17.9912 9.25349 16.4782 9.32755 14.9203C9.37154 14.312 9.44963 13.7068 9.56142 13.1076C9.67056 12.4347 10.0711 12.0455 10.6723 11.8902C11.0212 11.7996 11.369 11.6603 11.7189 11.6433C12.7021 11.5985 13.624 11.2621 14.5672 11.0242C15.263 10.851 15.9802 10.7843 16.6565 10.5145C16.7508 10.4752 16.8407 10.4254 16.9245 10.3662C16.9595 10.3403 17.0053 10.2786 16.9995 10.2438C16.981 10.1442 16.9654 9.98892 16.902 9.95408C16.0473 9.47312 15.1219 9.13694 14.1619 8.95865C13.4086 8.81929 12.6436 8.74264 11.8816 8.65205C11.6292 8.62119 11.369 8.65802 11.1157 8.62119C10.1822 8.4898 9.80504 8.22302 9.60235 7.08026C9.26713 5.17633 8.9212 3.27439 8.56455 1.37443C8.47068 0.946858 8.34693 0.526703 8.19425 0.117201C8.16989 0.0505071 8.02567 -0.00722635 7.94284 0.000737125C7.89465 0.00719722 7.84869 0.0254015 7.80884 0.053814C7.76898 0.0822265 7.7364 0.120009 7.71384 0.163984C7.35329 1.43814 7.17691 2.75212 6.99566 4.06908C6.86509 5.0008 6.74717 5.93452 6.59808 6.85629C6.50064 7.44061 6.20148 7.85969 5.66552 8.06674C4.75253 8.41623 3.81712 8.70127 2.86589 8.91982C1.91268 9.14084 0.998362 9.51014 0.15494 10.0148C0.0808792 10.0596 0.0506725 10.191 0 10.2836" fill="#A45848"/>
</svg>
