<svg width="63" height="61" viewBox="0 0 63 61" fill="none" xmlns="http://www.w3.org/2000/svg">
<path d="M20.7152 2.62588C20.804 2.47232 20.9538 2.43551 21.0845 2.38602C21.6417 2.17534 22.1963 1.95832 22.7623 1.77303C23.2573 1.61058 23.7637 1.4824 24.2675 1.34533C24.5556 1.26665 24.8513 1.21842 25.1356 1.12704C25.7818 0.939709 26.4436 0.811007 27.1129 0.742496L28.5965 0.568625C29.1168 0.504563 29.641 0.477843 30.1651 0.48867C30.6144 0.497554 31.0637 0.522937 31.5129 0.515322C31.912 0.511203 32.3099 0.558118 32.697 0.654926C33.282 0.784615 33.876 0.86947 34.4738 0.908752C35.069 0.959517 35.6617 1.04962 36.2506 1.12196C36.3727 1.14572 36.496 1.16267 36.6199 1.17273C37.1745 1.18161 37.7063 1.31106 38.2431 1.42656C38.8282 1.54458 39.4145 1.66134 40.0034 1.7616C40.958 1.93185 41.89 2.21032 42.7815 2.59161C42.9414 2.65888 43.1039 2.72614 43.2689 2.77818C43.9339 2.98758 44.5837 3.23252 45.2309 3.48508C45.8312 3.72114 46.4417 3.93562 47.0534 4.13868C47.6857 4.35773 48.2768 4.68118 48.8023 5.0956C49.1551 5.36466 49.5104 5.62737 49.8658 5.89388C51.1744 6.85242 52.4277 7.88418 53.6199 8.98421C54.204 9.54082 54.7331 10.1524 55.1999 10.8105C55.9555 11.8588 56.7038 12.9109 57.445 13.9668C57.9044 14.6255 58.3334 15.3007 58.7789 15.9707C58.9933 16.2944 59.1698 16.6396 59.435 16.9328C59.539 17.0679 59.6244 17.2165 59.6888 17.3744C60.0605 18.1349 60.3889 18.9158 60.6724 19.7134C60.9123 20.3708 61.1407 21.032 61.3463 21.6996C61.4523 22.0446 61.5217 22.3998 61.5532 22.7593C61.6068 23.3355 61.6919 23.9083 61.8083 24.4752C61.879 24.8296 61.9214 25.189 61.9352 25.5501C61.9491 25.9106 61.9796 26.2697 61.9986 26.6289C62.0215 27.0375 62.0494 27.4449 62.0545 27.8536C62.0634 28.5516 62.0545 29.2496 62.0545 29.9476C62.0608 30.765 62.0304 31.5823 61.958 32.3971C61.9403 32.5887 61.9314 32.7778 61.9276 32.9745C61.8887 34.1268 61.7562 35.2741 61.5316 36.405C61.2651 37.8238 60.9757 39.2389 60.6787 40.6515C60.464 41.6669 60.1507 42.659 59.7434 43.6136C59.2302 44.8428 58.6234 46.0308 57.9285 47.1672C57.8131 47.3525 57.7001 47.5403 57.6011 47.7345C57.2255 48.4456 56.7634 49.1076 56.2254 49.7054C55.903 50.0722 55.5794 50.439 55.2469 50.7969C55.0641 50.9948 54.8661 51.1776 54.6694 51.3629C54.0772 51.9112 53.479 52.4569 52.8749 53.0001C52.0295 53.7907 51.1088 54.4968 50.126 55.1081C49.5752 55.4393 49.032 55.7807 48.4761 56.112C47.7565 56.546 46.9937 56.9064 46.2399 57.2834C45.5761 57.6146 44.9327 57.9852 44.2385 58.2619C43.2469 58.6545 42.2544 59.0449 41.2611 59.4333C41.1913 59.4612 41.1202 59.4828 41.0517 59.5132C40.2801 59.866 39.4589 60.0653 38.6289 60.2392C38.068 60.3572 37.5096 60.4778 36.9499 60.5996C36.3858 60.7073 35.812 60.7558 35.2378 60.7443C34.7138 60.743 34.1902 60.776 33.6705 60.8433C33.2516 60.9017 32.8252 60.8991 32.4077 60.9816C32.2346 61.0099 32.0579 61.0065 31.8861 60.9715C30.9545 60.8115 30.0103 60.724 29.094 60.4549C28.7366 60.3398 28.3627 60.2845 27.9873 60.2912C27.3324 60.3191 26.6966 60.1884 26.057 60.0869C25.9085 60.064 25.7625 60.026 25.614 60.0171C25.0458 59.9827 24.482 59.8956 23.9299 59.7569C23.6634 59.6922 23.3956 59.6376 23.1278 59.5792C22.7153 59.4874 22.3114 59.36 21.9209 59.1985C21.3472 58.9624 20.7596 58.7619 20.1796 58.5385C19.856 58.4116 19.5362 58.2847 19.2189 58.14C18.5843 57.8583 17.9498 57.5689 17.3152 57.2872C16.9269 57.1133 16.5537 56.9204 16.2758 56.5968C16.1937 56.5057 16.0967 56.4294 15.989 56.3709C15.1133 55.8988 14.3391 55.2972 13.5421 54.7121C13.0906 54.3746 12.6636 54.0057 12.2641 53.608C12.056 53.4024 11.8199 53.2272 11.5965 53.0318C11.4836 52.9366 11.3605 52.8516 11.2539 52.7513C10.4581 51.9898 9.61923 51.2639 8.88187 50.4453C8.42498 49.9377 7.96683 49.43 7.52137 48.9084C7.3303 48.6866 7.15394 48.4526 6.99341 48.2078C6.49449 47.427 5.93341 46.6877 5.31562 45.997C5.26613 45.9425 5.21536 45.8891 5.17221 45.8308C4.53765 44.9424 3.88532 44.054 3.44239 43.0527C3.12638 42.3432 2.87255 41.6084 2.61111 40.8863C2.41694 40.3418 2.25068 39.7859 2.09204 39.2364C1.95371 38.749 1.83822 38.2566 1.71892 37.7655C1.66561 37.5548 1.62754 37.3403 1.56028 37.1309C1.49102 36.9008 1.44427 36.6644 1.42067 36.4253C1.36737 36.0217 1.29376 35.6194 1.19984 35.2196C1.07683 34.7543 1.00198 34.2775 0.976478 33.7969C0.971601 33.6525 0.953332 33.5089 0.921906 33.3679C0.794993 32.7562 0.753112 32.1305 0.590664 31.5239C0.576703 31.4731 0.618584 31.4097 0.646505 31.3056C0.75016 31.5137 0.816321 31.7383 0.841951 31.9694C0.896882 32.4233 1.00333 32.8695 1.15923 33.2994C1.30391 33.7347 1.41306 34.1802 1.54632 34.618C1.80014 35.448 2.06158 36.2755 2.32048 37.103C2.39282 37.334 2.48674 37.5586 2.5375 37.7934C2.67457 38.4381 2.96774 39.0206 3.2901 39.5917C3.56974 40.045 3.8064 40.5234 3.997 41.0208C4.12899 41.3888 4.33846 41.7242 4.61126 42.0044C5.09387 42.5211 5.50804 43.0978 5.84358 43.7202C5.92651 43.869 6.02385 44.0093 6.13421 44.139C6.63044 44.7419 7.13682 45.3371 7.63559 45.9374C7.94903 46.314 8.29936 46.6584 8.68135 46.9654C9.31591 47.473 9.91875 48.0124 10.5368 48.5365C10.6447 48.637 10.7587 48.7307 10.8782 48.817C11.4519 49.1978 12.0318 49.5785 12.6029 49.9592C13.1741 50.34 13.7985 50.6585 14.3353 51.0951C14.5711 51.2754 14.833 51.4188 15.112 51.5203C15.4598 51.6586 15.7783 51.8464 16.1083 52.0165C17.2276 52.5939 18.328 53.2146 19.5501 53.5877C19.6212 53.6093 19.6923 53.6346 19.7646 53.6511C20.5172 53.825 21.2394 54.0941 21.9805 54.3022C22.3884 54.4147 22.8018 54.5058 23.2192 54.5751C23.7315 54.6823 24.2512 54.7502 24.7739 54.7781C25.098 54.7924 25.4198 54.8392 25.7346 54.9177C26.363 55.0762 27.006 55.1693 27.6535 55.1957C28.6688 55.3886 29.6943 55.301 30.7159 55.3226C30.9904 55.3254 31.2642 55.2965 31.532 55.2363C32.1881 55.0954 32.8506 54.9824 33.5105 54.8555C33.9763 54.7658 34.4502 54.7258 34.9244 54.7362C35.6487 54.7502 36.3682 54.6159 37.0387 54.3415C37.4767 54.1666 37.9237 54.015 38.3776 53.8872C39.2898 53.6441 40.1591 53.2623 40.9552 52.7551C41.4071 52.4569 41.8817 52.1891 42.3513 51.9175C43.4935 51.2626 44.5367 50.4821 45.5926 49.7156C45.9825 49.4188 46.3368 49.0782 46.6485 48.7003C46.9 48.3991 47.1815 48.1244 47.4887 47.8804C47.5899 47.8104 47.6819 47.7281 47.7628 47.6355C48.24 47.0161 48.8594 46.5199 49.3416 45.9044C49.5562 45.6373 49.7922 45.3881 50.0473 45.1594C50.74 44.5047 51.3584 43.7756 51.8913 42.9854C52.1175 42.6695 52.2927 42.3201 52.4104 41.9498C52.5261 41.5801 52.6973 41.23 52.918 40.9116C53.2462 40.4306 53.5174 39.9131 53.7265 39.3696C53.8512 39.0545 54.0033 38.7509 54.1808 38.4622C54.3429 38.1918 54.4838 37.9092 54.6022 37.617C54.856 36.9913 55.1098 36.3631 55.3294 35.7247C55.5843 34.9459 55.794 34.1531 55.9576 33.3502C56.1505 32.4707 56.3028 31.595 56.4297 30.7142C56.4843 30.3588 56.5312 30.0009 56.5833 29.6443C56.7038 28.8029 56.6277 27.9627 56.5465 27.1251C56.4956 26.6463 56.3948 26.1742 56.2457 25.7164C55.967 24.7937 55.7386 23.8565 55.5616 22.9091C55.3005 21.6577 54.9467 20.4275 54.5032 19.2286C54.3471 18.7971 54.1846 18.3669 54.0564 17.9277C53.8065 17.1164 53.4244 16.3519 52.9257 15.6649C52.6617 15.2842 52.4472 14.878 52.2137 14.4808C51.9598 14.0417 51.706 13.6 51.4458 13.1596C51.193 12.7426 50.8997 12.3515 50.5701 11.992C50.197 11.5732 49.8455 11.1341 49.5104 10.6848C48.8961 9.83408 48.19 9.05352 47.4049 8.35726C47.1638 8.14912 46.9443 7.91687 46.7044 7.70746C46.1785 7.22479 45.6106 6.78988 45.0076 6.40788C44.4999 6.10456 44.0126 5.7657 43.5201 5.43827C43.4162 5.37217 43.3192 5.29562 43.2308 5.20982C42.9835 4.96607 42.6853 4.78013 42.3576 4.66537C41.5441 4.36205 40.7788 3.94704 39.9463 3.67418C39.5958 3.54818 39.2562 3.39368 38.931 3.21222C38.1108 2.79546 37.2407 2.48499 36.342 2.28829C35.616 2.11823 34.8787 1.99512 34.1438 1.85933C33.9703 1.83789 33.7958 1.82602 33.621 1.82379C32.8239 1.77303 32.0219 1.75653 31.2312 1.65881C30.4628 1.57156 29.6894 1.53679 28.9163 1.55474C28.6168 1.55474 28.3198 1.59916 28.0216 1.61946C27.6979 1.64231 27.3743 1.67023 27.0507 1.68038C25.9048 1.73291 24.7635 1.86009 23.6342 2.06112C22.723 2.20961 21.8346 2.44186 20.936 2.64619C20.862 2.65044 20.7876 2.64446 20.7152 2.62842" fill="#EADED2"/>
</svg>
