<svg width="61" height="102" viewBox="0 0 61 102" fill="none" xmlns="http://www.w3.org/2000/svg">
<path d="M5.5716 44.4407C5.13488 44.4238 4.65731 44.2702 4.26849 44.3984C2.46666 44.9901 0.869115 45.9269 0.343642 47.8992C0.142188 48.636 -0.405825 49.5517 0.528192 50.435C0.631032 50.1533 0.693018 49.9504 0.77191 49.7574C0.897291 49.4545 0.959277 49.0699 1.17905 48.8741C2.10152 48.0845 3.27265 47.6451 4.48685 47.633C6.01959 47.5949 7.48894 48.0373 8.90053 48.6811C10.7728 49.5334 12.252 50.9013 13.6904 52.2932C14.4117 52.9905 14.7455 54.1246 15.5218 54.7191C16.708 55.6292 16.4699 56.7858 16.484 57.9226C16.5023 59.7738 16.422 61.6249 16.429 63.476C16.4445 68.8787 16.5121 74.2813 16.5023 79.6769C16.5023 82.9594 16.3403 86.2418 16.3276 89.5243C16.3121 93.4914 16.3403 97.4557 16.3558 101.421H18.6676C18.6676 100.024 18.7 98.6235 18.6873 97.2246C18.6323 90.8217 18.5464 84.4203 18.5112 78.0188C18.4788 72.5668 18.5112 67.1163 18.4915 61.6658C18.4915 60.905 18.2675 60.1471 18.2252 59.3821C18.1505 58.1058 18.0843 56.8111 18.8493 55.6771C19.0113 55.439 19.3029 55.2882 19.4635 55.0487C20.1552 54.0091 20.6229 52.8271 21.8049 52.1481C23.4334 51.2112 24.9606 50.3406 27.0329 50.7393C28.9882 51.1126 31.5001 52.9539 31.8227 55.0008C31.9044 55.5249 32.0861 56.0349 32.22 56.5505L32.489 56.5068C32.4764 54.5416 32.8736 52.496 31.7847 50.6773C29.5799 47.0061 26.2383 46.0509 22.1022 46.9497C22.46 46.134 22.7305 45.362 23.1221 44.6647C23.6687 43.6983 24.4604 42.9361 25.3156 42.2247C26.409 41.2942 27.7784 40.7496 29.2122 40.675C31.1183 40.582 32.7553 41.3893 34.0021 42.8657C34.543 43.5067 35.0164 44.2068 35.5517 44.9168C35.1911 43.0235 34.5557 41.3526 33.2625 39.8932C32.1509 38.6394 30.7633 37.9857 29.2813 37.4475C27.1371 36.6699 25.2987 37.7025 23.4785 38.6126C22.4543 39.1268 21.4823 39.7551 20.4905 40.3397C20.1468 40.5426 19.8918 40.4595 19.9355 40.058C20.0236 39.454 20.1488 38.8561 20.3102 38.2674C20.5919 37.0728 21.5598 36.3895 22.3994 35.6302C23.7701 34.3919 25.3804 33.7749 27.247 33.9721C28.0824 34.0622 28.9122 34.2059 29.7433 34.3243L29.8842 34.1468C29.2291 33.572 28.6473 32.8789 27.9119 32.4478C25.1775 30.8601 21.8739 31.5927 19.6185 33.5452C18.7253 34.3186 18.0181 35.3062 17.1151 36.3191C16.9404 35.8119 16.808 35.4738 16.7037 35.1174C16.3938 34.089 16.167 33.0268 15.7754 32.0294C15.3647 30.9813 14.8631 29.9711 14.2764 29.0104C13.9198 28.4471 13.4377 27.9741 12.8676 27.6284C11.3025 26.6873 9.52603 26.4211 7.73689 26.3872C7.0325 26.3732 6.3098 26.6451 5.40818 26.8254C8.1722 28.1764 10.6953 29.3485 12.1351 31.9449C13.4762 34.3665 14.4272 36.9009 14.3764 39.6931C13.5424 39.1592 12.7268 38.6506 11.9252 38.1209C9.97966 36.8389 7.86931 35.9556 5.53779 35.8429C4.65449 35.8007 3.56551 35.9416 2.89916 36.4374C1.83553 37.2292 1.03253 38.3787 0.15064 39.3959C0.0492087 39.5142 0.137961 39.7945 0.137961 40.0622C1.67212 39.2747 2.57937 38.7943 4.16565 39.0028C5.23772 39.1437 6.35347 39.1127 7.3861 39.3959C9.10481 39.8692 10.329 41.1667 11.5462 42.3768C12.3556 43.1986 13.0745 44.105 13.6904 45.0803C14.0623 45.6635 14.1708 46.4144 14.4581 47.2667C13.5861 46.8624 12.9085 46.6215 12.3112 46.2552C10.2403 44.9788 7.95807 44.5266 5.5716 44.4308" fill="#EADED2"/>
<path d="M44 8.96518C44.2818 9.24693 44.6565 9.33991 45.0284 9.38781C46.2625 9.54419 47.4769 9.87243 48.7419 9.77522C49.2519 9.73437 49.6295 10.0711 49.7943 10.5867C49.8675 10.8149 49.9352 11.0473 49.9915 11.2798C50.4282 12.9985 50.865 14.7172 51.3017 16.4359C51.3454 16.6231 51.4116 16.8043 51.4989 16.9755C51.5719 17.0874 51.6716 17.1794 51.7891 17.2431C51.868 17.2896 52.0709 17.1178 52.0934 16.9881C52.2258 16.3796 52.3752 15.7724 52.4766 15.1567C52.6273 14.2115 52.7964 13.2676 52.8203 12.3026C52.8518 11.9203 52.9241 11.5425 53.0359 11.1755C53.08 10.9864 53.1754 10.8132 53.3116 10.6747C53.4478 10.5363 53.6195 10.4381 53.8079 10.3909C54.314 10.2368 54.8325 10.1265 55.3575 10.0612C55.9303 10.0026 56.4963 9.89031 57.0481 9.72592C57.5118 9.60027 57.9821 9.5001 58.4568 9.42585C58.9739 9.32724 59.4923 9.23566 59.953 8.96518C59.9786 8.92979 59.9947 8.88836 59.9997 8.84491C60.0046 8.80147 59.9982 8.75749 59.9811 8.71723C59.8884 8.6105 59.7715 8.52743 59.6402 8.47493C58.1678 7.88613 56.6043 7.55769 55.0194 7.50428C54.7313 7.49919 54.4438 7.47566 54.1587 7.43384C53.543 7.33523 53.2204 7.02812 53.0965 6.42375C52.9894 5.90673 52.9105 5.38549 52.8048 4.8741C52.5156 3.46533 52.2221 2.05655 51.9244 0.647779C51.9046 0.505445 51.8568 0.36847 51.7835 0.24487C51.6899 0.134362 51.5689 0.0503291 51.4327 0.0011518C51.4017 -0.0129359 51.2721 0.105401 51.2495 0.181475C51.1265 0.544322 51.0268 0.914641 50.9509 1.29018C50.7368 2.51863 50.548 3.75131 50.3423 4.98117C50.2705 5.4038 50.1859 5.82643 50.0845 6.24906C50.0479 6.41489 49.9682 6.56812 49.8534 6.69329C49.7386 6.81845 49.5929 6.91111 49.4308 6.9619C48.7025 7.19435 47.9699 7.42962 47.2247 7.60149C46.2418 7.82105 45.2826 8.13576 44.3606 8.54114C44.2679 8.57225 44.1853 8.62802 44.1217 8.70247C44.0582 8.77691 44.0161 8.86724 44 8.96377" fill="#EADED2"/>
</svg>
