<svg width="89" height="90" viewBox="0 0 89 90" fill="none" xmlns="http://www.w3.org/2000/svg">
<path d="M39.505 29.9586C39.5323 29.9562 39.5598 29.9611 39.5845 29.9728C39.6093 29.9846 39.6304 30.0028 39.6458 30.0255C39.9422 30.3905 40.2342 30.7582 40.5315 31.1215C40.6697 31.294 40.7908 31.4796 40.893 31.6756C41.1569 32.1761 41.4674 32.6511 41.7489 33.1419C42.0304 33.6328 42.3365 34.1421 42.6285 34.6417C43.0059 35.2847 43.3814 35.9294 43.7606 36.5715C44.013 36.999 44.2655 37.4274 44.5249 37.8514C44.7053 38.1451 44.897 38.4328 45.0844 38.7231C45.2858 39.0371 45.4732 39.3581 45.6552 39.6845C45.8575 40.0451 46.0722 40.3996 46.271 40.762C46.5445 41.2572 46.8084 41.7595 47.0415 42.2758C47.0966 42.4022 47.1647 42.5224 47.2447 42.6347C47.5313 43.0412 47.7879 43.4681 48.0126 43.9119C48.2013 44.2802 48.4187 44.6331 48.6626 44.9674C48.8428 45.2119 49.0031 45.4705 49.142 45.7406C49.3751 46.1804 49.6038 46.6202 49.88 47.0353C50.141 47.4265 50.3534 47.848 50.5124 48.2905C50.6391 48.6424 50.7622 48.9942 50.8951 49.3461C51.0279 49.6979 51.1326 50.0498 51.2302 50.413C51.2838 50.6127 51.3182 50.8185 51.3498 51.0226C51.4466 51.6075 51.5504 52.1925 51.6322 52.7818C51.7333 53.4664 51.713 54.1634 51.5724 54.841C51.5257 55.0574 51.4844 55.2746 51.4518 55.4937C51.4011 55.7637 51.3263 56.0286 51.2284 56.2853C51.2141 56.3243 51.1971 56.3622 51.1774 56.3988C51.034 56.689 51.0208 56.6873 50.698 56.6715C50.3948 56.6525 50.094 56.6062 49.7991 56.5334C49.5992 56.4771 49.4084 56.3923 49.2326 56.2818C48.9089 56.0971 48.5905 55.9018 48.2729 55.7056C48.1548 55.6341 48.0433 55.5523 47.9396 55.4611C47.5394 55.1014 47.1479 54.7337 46.7785 54.3396C46.3536 53.8857 46.1461 53.46 45.8593 52.9674C45.6464 52.6015 45.5022 52.3139 45.4503 52.2074C45.2632 51.8241 45.0956 51.4316 44.948 51.0314C44.7615 50.5222 44.6015 50.0037 44.4686 49.478C44.4264 49.3135 44.3253 48.923 44.1889 48.3952C44.1502 48.2483 44.1106 48.1023 44.0631 47.9554C43.9866 47.7188 43.9092 47.4822 43.8204 47.2517C43.7219 46.9878 43.6814 46.7178 43.6057 46.4522C43.5301 46.1865 43.4298 45.9297 43.377 45.6605C43.3084 45.3227 43.209 44.9911 43.1316 44.6542C43.0639 44.3587 43.0076 44.0605 42.9487 43.7632C42.8402 43.2214 42.7332 42.6798 42.6276 42.1386C42.5951 41.9758 42.5678 41.8122 42.5397 41.6495C42.4772 41.3232 42.3796 41.0065 42.2951 40.6863C42.1139 40.0064 41.8747 39.3414 41.7586 38.6439C41.6196 38.1953 41.5624 37.7247 41.3918 37.2849C41.3664 37.2205 41.3467 37.1539 41.3328 37.0861C41.2334 36.5689 41.0593 36.0728 40.9124 35.5697C40.8543 35.3709 40.8033 35.1694 40.747 34.9706C40.7066 34.8246 40.6643 34.6777 40.6212 34.5308C40.4999 34.1201 40.3679 33.7119 40.2588 33.2994C40.1181 32.7655 39.995 32.2263 39.863 31.6906C39.8199 31.5147 39.7751 31.3387 39.7214 31.1716C39.6173 30.8415 39.5414 30.5031 39.4945 30.1601C39.472 30.0938 39.4767 30.0214 39.5077 29.9586" fill="#955041"/>
<path d="M52.1701 56.1191C52.0997 56.1464 51.9941 56.186 51.8666 56.2379C51.6907 56.3082 51.5957 56.3513 51.579 56.3258C51.5622 56.3003 51.6238 56.259 51.6819 56.1499C51.7144 56.0843 51.7387 56.0148 51.754 55.9432C51.9299 55.2395 51.9801 55.1858 52.0469 54.7364C52.0543 54.6816 52.0649 54.6272 52.0786 54.5736C52.2158 54.0951 52.273 53.5999 52.3706 53.1126C52.4023 52.9508 52.4506 52.7915 52.4955 52.6323C52.5298 52.5127 52.5773 52.3966 52.6063 52.2805C52.6628 52.0675 52.7419 51.8611 52.8421 51.6648C53.0362 51.2671 53.2683 50.8892 53.5352 50.5362C53.6531 50.3788 53.7507 50.3471 53.9117 50.1545C54.0404 49.9969 54.1563 49.8292 54.2582 49.6531C54.4245 49.3839 54.4289 49.3373 54.6734 48.9098C54.8546 48.5941 54.8573 48.6099 54.9144 48.4894C55.027 48.2493 55.0543 48.0804 55.1475 47.7857C55.2302 47.5218 55.2962 47.2527 55.3868 46.9941C55.5371 46.5344 55.6374 46.0599 55.6858 45.5788C55.7114 45.3597 55.7395 45.139 55.7641 44.9208C55.783 44.769 55.8439 44.6255 55.9401 44.5065C56.2769 44.0515 56.6421 43.6182 57.0334 43.2091C57.2664 42.9732 57.4781 42.7171 57.6658 42.4438C57.7439 42.3299 57.8279 42.2201 57.9174 42.1149C58.4355 41.5053 58.9466 40.8878 59.491 40.3011C59.5852 40.2 59.6845 40.1041 59.7866 40.0117C60.0102 39.8061 60.2217 39.5876 60.4199 39.3573C60.5849 39.1553 60.7611 38.9626 60.9477 38.7803C60.9565 38.7724 60.9776 38.7644 60.9846 38.7688C61.0066 38.7829 61.0374 38.7996 61.0427 38.8199C61.0536 38.8734 61.0581 38.928 61.0559 38.9826C61.0418 39.1893 61.0295 39.396 61.0084 39.5983C60.9368 40.2709 60.8641 40.9438 60.7902 41.617C60.7797 41.7129 60.7656 41.8088 60.7489 41.9038C60.6187 42.6663 60.4484 43.4215 60.2387 44.1661C60.0056 44.9472 59.7417 45.7186 59.4796 46.49C59.3916 46.7539 59.2667 46.9993 59.1621 47.2553C59.0891 47.4312 59.0204 47.6151 58.951 47.7954C58.8567 48.0406 58.7444 48.2784 58.6149 48.507C58.439 48.8201 58.2754 49.1403 58.0942 49.4499C57.9341 49.7235 57.7582 49.9891 57.5876 50.2565C57.4618 50.4553 57.3237 50.6462 57.2093 50.8503C56.791 51.5824 56.3019 52.2717 55.7492 52.9085C55.3727 53.3483 55.0068 53.7987 54.6356 54.2447C54.5388 54.3608 54.4421 54.4786 54.3374 54.5895C54.2538 54.6806 54.1622 54.7642 54.0638 54.8393C53.7322 55.0873 53.4121 55.3503 53.0637 55.5746C52.8817 55.6925 52.8878 55.7268 52.7717 55.8051C52.5836 55.9321 52.3818 56.0375 52.1701 56.1191Z" fill="#955041"/>
<path d="M48.6727 56.9362C48.0121 57.0347 47.881 57.1411 47.2811 57.2476C47.0213 57.2873 46.7581 57.3003 46.4956 57.2863C45.7101 57.259 44.9246 57.2256 44.1383 57.2071C43.5033 57.1833 42.8715 57.1053 42.2498 56.974C41.9525 56.9151 41.6525 56.8641 41.3526 56.8192C41.0245 56.7708 40.6981 56.7181 40.3762 56.6371C40.0543 56.5562 39.7314 56.4806 39.4086 56.4076C39.1531 56.3465 38.9024 56.2672 38.6583 56.1701C38.3628 56.0557 38.0619 55.9519 37.7664 55.834C37.433 55.7012 37.0988 55.5702 36.7733 55.4189C36.1092 55.1119 35.4372 54.819 34.8004 54.4513C34.2726 54.1496 33.7492 53.8409 33.2417 53.5066C32.8512 53.248 32.4861 52.9498 32.1158 52.6631C31.7226 52.3578 31.3347 52.0473 30.9468 51.736C30.8718 51.6751 30.8001 51.6102 30.7322 51.5416C30.7242 51.5316 30.7184 51.5199 30.7154 51.5074C30.7124 51.495 30.7121 51.482 30.7146 51.4694C30.7207 51.4466 30.7489 51.4299 30.7691 51.414C30.7811 51.407 30.7948 51.4033 30.8087 51.4035C31.0726 51.4035 31.3365 51.4079 31.5942 51.4149C31.8976 51.4228 32.2012 51.4096 32.5028 51.3753C32.6396 51.3572 32.7774 51.3478 32.9154 51.3472C33.5496 51.3621 34.1846 51.3375 34.8188 51.3868C35.0247 51.4017 35.2322 51.3955 35.4346 51.4017C35.5314 51.403 35.628 51.41 35.724 51.4228C36.1064 51.4795 36.4938 51.4963 36.8798 51.473C37.3347 51.4606 37.7899 51.4747 38.2431 51.5152C38.8492 51.5609 38.6768 51.5152 39.1395 51.8582C39.4314 52.0924 39.7356 52.3109 40.0507 52.5126C40.2047 52.6006 40.3621 52.6886 40.5213 52.7765C40.8406 52.941 41.1626 53.1002 41.4836 53.2612C41.5821 53.3105 41.6807 53.3615 41.7818 53.4063C42.1486 53.5673 42.5172 53.7239 42.8831 53.8866C43.0876 53.9703 43.3001 54.033 43.5173 54.074C43.9087 54.1619 44.2992 54.2499 44.6916 54.329C45.1917 54.4392 45.6703 54.6306 46.1086 54.8955C46.2634 54.9835 46.4226 55.0714 46.581 55.1532C46.9007 55.3192 47.2074 55.5092 47.4984 55.7215C47.9188 56.0346 48.1414 56.1727 48.3296 56.3372C48.4385 56.4375 48.5618 56.5208 48.6955 56.5844C48.8023 56.6303 48.9123 56.6685 49.0245 56.6987C49.3192 56.7867 49.4238 56.7981 49.4238 56.8227C49.4238 56.8685 49.0878 56.8737 48.6771 56.9353" fill="#955041"/>
<path d="M45.2421 52.891C45.2781 52.9526 45.33 53.0379 45.3916 53.1382C45.5455 53.3818 45.6054 53.4496 45.5799 53.49C45.5543 53.5305 45.4444 53.49 45.2104 53.4962C45.1049 53.4995 44.9997 53.5098 44.8955 53.527C44.8955 53.527 44.7706 53.5428 44.1962 53.5974C43.7404 53.6232 43.2838 53.5599 42.8522 53.4109C42.4023 53.234 41.9642 53.0283 41.5407 52.7952C41.1625 52.594 40.7872 52.3888 40.4148 52.1794C40.0086 51.9433 39.6178 51.6815 39.2449 51.3957C38.672 50.9623 38.1008 50.5266 37.5314 50.0886C37.016 49.6928 36.5419 49.2477 36.0678 48.8061C35.986 48.7305 35.9094 48.6513 35.8259 48.5783C35.2409 48.0699 34.7035 47.514 34.1705 46.9537C33.7781 46.5456 33.4184 46.1074 33.0947 45.6431C33.0889 45.6311 33.0859 45.618 33.0859 45.6048C33.0859 45.5915 33.0889 45.5785 33.0947 45.5665C33.1022 45.5561 33.1122 45.5475 33.1236 45.5415C33.1351 45.5356 33.1478 45.5324 33.1607 45.5322C33.5189 45.5681 33.866 45.6764 34.181 45.8506C34.2886 45.9102 34.4007 45.9614 34.5161 46.0037C35.0562 46.2157 35.6042 46.4048 36.1566 46.5842C36.5161 46.6878 36.8687 46.8141 37.2121 46.9625C37.2627 46.9852 37.3151 47.0038 37.3687 47.0179C37.8837 47.1784 38.3764 47.4033 38.835 47.6873C39.3165 47.984 39.8159 48.2508 40.3304 48.4859C40.6092 48.6073 40.8898 48.7234 41.1669 48.8492C41.4818 48.9917 41.7923 49.143 42.1045 49.289C42.1288 49.302 42.1538 49.3137 42.1793 49.3242C42.6499 49.4931 43.0765 49.7517 43.518 49.9804C43.655 50.0481 43.7752 50.1455 43.8699 50.2654C44.1036 50.5563 44.2988 50.8762 44.4504 51.2171C44.6985 51.7959 44.8665 52.1029 45.1409 52.6764C45.1849 52.7644 45.2219 52.8435 45.2447 52.891" fill="#955041"/>
<path d="M51.8343 51.2068C51.8263 51.1681 51.8123 51.1188 51.8044 51.0608C51.7419 50.6377 51.6838 50.2137 51.617 49.7906C51.5827 49.5725 51.5378 49.3569 51.4903 49.1414C51.4436 48.91 51.4302 48.673 51.4507 48.4378C51.4675 48.1624 51.4833 47.8871 51.507 47.6118C51.5192 47.4883 51.5398 47.3657 51.5686 47.245C51.6003 47.1104 51.6399 46.9811 51.6812 46.8457C51.792 46.4938 51.8853 46.1297 51.9688 45.7655C52.0305 45.5107 52.1057 45.2594 52.194 45.0126C52.3339 44.6079 52.4852 44.2077 52.6338 43.8049C52.837 43.2454 52.969 42.6658 53.115 42.0905C53.166 41.89 53.2161 41.6885 53.2751 41.4906C53.3654 41.1859 53.4804 40.8891 53.619 40.6031C53.7632 40.3058 53.8829 39.9953 54.0166 39.6927C54.1045 39.4904 54.2048 39.2925 54.2928 39.0902C54.4974 38.621 54.7 38.1519 54.9006 37.6828C54.9312 37.6058 54.9554 37.5263 54.9727 37.4453C55.0624 37.0954 55.2202 36.7666 55.4371 36.4777C55.4414 36.4726 55.4468 36.4687 55.4529 36.4662C55.4591 36.4638 55.4657 36.4629 55.4723 36.4637C55.4961 36.4716 55.5313 36.4812 55.5374 36.4988C55.5618 36.5634 55.5792 36.6303 55.5893 36.6985C55.6701 37.328 55.718 37.9613 55.7327 38.5958C55.7415 39.2036 55.7485 39.8106 55.723 40.4175C55.7054 40.8309 55.6975 41.2452 55.6869 41.6595C55.6755 42.1151 55.6324 42.5681 55.5761 43.0211C55.5031 43.6105 55.4389 44.2007 55.3694 44.79C55.3483 44.9659 55.321 45.1419 55.2973 45.324C55.2683 45.5289 55.2151 45.7297 55.1389 45.9221C55.0633 46.1147 55 46.3126 54.9437 46.5123C54.8311 46.9108 54.7299 47.3127 54.6173 47.7112C54.581 47.8445 54.5321 47.9741 54.4713 48.0982C54.2884 48.4694 54.0984 48.8371 53.9075 49.2057C53.7807 49.4358 53.6269 49.6499 53.4492 49.8434C53.1959 50.1366 52.944 50.4298 52.6936 50.723C52.5284 50.9269 52.3414 51.1121 52.136 51.2754C52.1016 51.2985 52.0654 51.3188 52.0278 51.3361C52.0019 51.3433 51.9744 51.3426 51.9489 51.3342C51.9233 51.3257 51.9009 51.3098 51.8844 51.2886C51.8712 51.2639 51.8589 51.2393 51.8378 51.2006" fill="#955041"/>
<path d="M48.3122 36.7045C48.4881 37.227 48.6702 37.7495 48.8558 38.2711C48.9156 38.44 48.9886 38.6045 49.0643 38.7672C49.205 39.0681 49.3492 39.3662 49.3915 39.7014C49.5461 40.2609 49.6405 40.8353 49.6729 41.4148C49.6993 41.7456 49.7372 42.0746 49.7609 42.4053C49.7767 42.6252 49.7838 42.8451 49.7776 43.0668C49.7829 43.3021 49.8011 43.537 49.8322 43.7704C49.8603 44.1276 49.8999 44.4847 49.9201 44.8427C49.9377 45.1066 49.9571 45.8261 49.9703 46.1744C49.9703 46.3363 50.1462 47.1587 49.9043 46.6538C49.833 46.5737 49.6404 46.192 49.5876 46.1084C49.2358 45.5279 48.774 44.4829 48.4441 43.9094C48.3781 43.7878 48.3236 43.6603 48.2814 43.5285C48.1248 43.0998 47.9269 42.6874 47.6903 42.2971C47.6571 42.2518 47.6277 42.2038 47.6023 42.1537C47.4977 41.8802 47.327 41.6444 47.174 41.3981C47.129 41.3286 47.0896 41.2557 47.0561 41.18C46.8421 40.67 46.6669 40.1445 46.5319 39.6081C46.3454 38.8578 46.18 38.1031 46.0481 37.3405C46.0243 37.205 45.9812 37.0722 45.9601 36.9368C45.8969 36.5973 45.8633 36.2529 45.8598 35.9076C45.851 34.8996 45.7992 33.8924 45.764 32.8853C45.7462 32.4853 45.7527 32.0847 45.7833 31.6855C45.7956 31.5758 45.7939 31.4649 45.778 31.3557C45.7458 31.1368 45.7434 30.9146 45.771 30.6951C45.7833 30.5719 45.7895 30.4479 45.8027 30.3239C45.8027 30.3045 45.8326 30.2852 45.8519 30.272C45.8581 30.272 45.8801 30.2764 45.8889 30.286C45.9175 30.3158 45.9428 30.3485 45.9645 30.3837C45.997 30.444 46.0263 30.506 46.0525 30.5693C46.3709 31.3196 46.6964 32.0646 46.9629 32.8387C47.1027 33.2424 47.269 33.6365 47.3842 34.049C47.4176 34.1695 47.4598 34.2874 47.4818 34.4096C47.5698 34.8618 47.7457 35.2813 47.9313 35.6974C48.0782 36.0254 48.206 36.3617 48.3139 36.7045" fill="#955041"/>
<path d="M51.4291 32.5104C51.5724 32.8411 51.5953 33.2326 51.693 33.6073C51.7607 33.8712 51.8135 34.1465 51.8689 34.4165C52.1328 35.648 52.3535 36.8838 52.5902 38.1197C52.6077 38.2138 52.6227 38.3097 52.6324 38.4055C52.6547 38.6124 52.6882 38.818 52.7327 39.0213C52.7925 39.2904 52.8206 39.5666 52.8576 39.8402C52.9187 40.2503 52.9425 40.6651 52.9288 41.0795C52.9212 41.37 52.876 41.6583 52.7942 41.9372C52.6684 42.3611 52.5383 42.7833 52.3711 43.1941C52.2325 43.5403 52.115 43.8945 52.0193 44.2549C51.8328 44.9349 51.6296 45.6104 51.386 46.2719C51.2342 46.688 51.0239 47.0805 50.7614 47.4373C50.7368 47.469 50.7351 47.4954 50.7034 47.5253C50.7087 47.557 50.575 47.659 50.5635 47.6335C50.5354 47.5711 50.494 47.3696 50.4756 47.308C50.4307 47.0723 50.3753 46.7345 50.334 46.3255C50.2889 45.8075 50.2698 45.2876 50.2768 44.7677C50.2768 44.2822 50.2856 44.0218 50.2979 43.4958C50.2979 43.4413 50.3208 42.4456 50.326 41.4472C50.3322 39.9668 50.326 39.8542 50.326 39.0432C50.326 38.6844 50.3551 38.3255 50.3647 37.9666C50.3744 37.6482 50.3753 37.3307 50.3779 37.0131C50.3777 36.64 50.4107 36.2677 50.4765 35.9004C50.5099 35.7245 50.5442 35.5486 50.5644 35.3682C50.6251 34.7895 50.7518 34.2248 50.8441 33.6504C50.8793 33.4322 50.9101 33.2106 50.9365 32.9933C50.9722 32.691 51.0492 32.3951 51.1652 32.1137C51.1784 32.0838 51.2532 32.0759 51.2751 32.1031C51.3008 32.135 51.3223 32.1698 51.3394 32.2069C51.3701 32.2949 51.3939 32.3925 51.4273 32.5157" fill="#955041"/>
<path d="M43.7524 49.1413C43.851 49.2724 44.0216 49.7571 44.0427 49.8679C44.0437 49.8699 44.0442 49.8722 44.0442 49.8745C44.0442 49.8768 44.0437 49.879 44.0427 49.8811C44.019 49.9057 43.8668 49.7826 43.6539 49.6542C43.5818 49.6102 43.5607 49.6014 43.4164 49.5231C43.1165 49.3612 42.8948 49.2311 42.7796 49.1651C42.4427 48.9733 41.9879 48.8044 41.147 48.355C40.8181 48.179 40.4794 48.0242 40.1355 47.8782C39.7291 47.7023 39.3306 47.5141 38.9313 47.3232C38.6704 47.1954 38.4314 47.027 38.2232 46.8245C37.9475 46.5749 37.6957 46.3002 37.4712 46.0038C37.2442 45.6915 36.9838 45.403 36.7921 45.0644C36.7387 44.9831 36.6799 44.9055 36.6162 44.8321C36.4763 44.6439 36.3285 44.4609 36.1966 44.2674C35.7615 43.6288 35.3299 42.9882 34.9018 42.3455C34.6186 41.9206 34.3283 41.5011 34.0636 41.063C33.8639 40.7323 33.6449 40.413 33.4294 40.0954C33.2747 39.8504 33.1394 39.5937 33.0247 39.3276C33.0177 39.3156 33.0146 39.3018 33.0159 39.288C33.0179 39.2628 33.0271 39.2387 33.0423 39.2185C33.0523 39.2098 33.0642 39.2034 33.077 39.1999C33.0897 39.1964 33.1032 39.1958 33.1162 39.1983C33.3772 39.2898 33.6215 39.4235 33.8392 39.5941C34.2395 39.9143 34.6722 40.1852 35.0909 40.4737C35.4648 40.7376 35.8254 41.0146 36.2019 41.2706C36.4425 41.4325 36.6731 41.6087 36.8924 41.7984C36.9548 41.8529 37.019 41.9057 37.0771 41.9646C37.5169 42.4203 38.0016 42.8354 38.4651 43.2691C39.0087 43.7792 39.5347 44.3079 40.0625 44.8339C40.7861 45.5552 41.4784 46.3061 42.1392 47.0866C42.2457 47.2124 42.3653 47.3285 42.4832 47.4446C42.8146 47.7773 43.1133 48.141 43.3751 48.5309C43.4692 48.6672 43.551 48.8097 43.639 48.9531C43.6805 49.0148 43.7184 49.0788 43.7524 49.1449" fill="#955041"/>
<path d="M42.4049 43.2639C42.5271 43.6087 42.6089 43.9061 42.7726 44.4954C42.9265 45.0495 43.0531 45.5668 43.1182 45.8298C43.2942 46.544 43.2766 46.5334 43.3584 46.7973C43.3883 46.8958 43.4745 47.172 43.5598 47.5424C43.675 48.0358 43.6478 48.0824 43.6267 48.0912C43.5906 48.1071 43.5264 48.02 43.2053 47.6356L42.9784 47.3647C42.7066 47.0348 42.4867 46.8096 42.3767 46.6812C41.6572 45.8421 41.016 44.9414 40.3536 44.0591C40.1052 43.7301 39.8772 43.3861 39.6711 43.0291C39.5794 42.8748 39.5011 42.7129 39.4371 42.5453C39.379 42.3896 39.3227 42.2339 39.2612 42.08C39.2065 41.9233 39.1407 41.7707 39.0641 41.6235C38.9343 41.3803 38.8169 41.1308 38.7123 40.8758C38.5759 40.5741 38.4361 40.2724 38.2866 39.9768C38.1073 39.6182 37.9488 39.2496 37.8116 38.8729C37.6818 38.5381 37.5198 38.2167 37.3278 37.9133C37.149 37.6316 36.9914 37.337 36.8563 37.0319C36.7596 36.8032 36.6478 36.5807 36.544 36.3546C36.4922 36.2411 36.442 36.1286 36.3928 36.0142C36.23 35.6333 36.0611 35.2542 35.9072 34.8707C35.7779 34.5505 35.6644 34.2242 35.5475 33.9031C35.5459 33.891 35.5475 33.8787 35.5519 33.8674C35.5564 33.856 35.5636 33.8459 35.573 33.8381C35.5848 33.833 35.5977 33.8308 35.6105 33.8317C35.6234 33.8327 35.6358 33.8366 35.6468 33.8433C35.8228 33.9964 35.9987 34.153 36.1746 34.3087C36.1859 34.3166 36.1962 34.3257 36.2054 34.3359C36.4226 34.6038 36.6641 34.8512 36.9267 35.0748C37.1721 35.2947 37.4034 35.5339 37.6304 35.7785C38.2754 36.4822 38.9278 37.1768 39.5875 37.8623C39.7733 38.0476 39.943 38.2483 40.095 38.4622C40.2475 38.676 40.3775 38.905 40.4829 39.1456C40.621 39.479 40.8075 39.786 40.972 40.1053C41.2359 40.6207 41.3036 40.8151 41.7012 41.6833C42.2413 42.8628 42.2835 42.9253 42.4049 43.2666" fill="#955041"/>
<path d="M44.4772 89.1043C34.7188 89.1043 25.5991 83.4599 18.2385 78.9009C15.8231 77.4055 13.3259 75.8601 11.3389 73.6285C8.79944 70.775 7.38063 67.064 6.13247 63.7892C3.69859 57.42 1.18291 50.8308 0.305943 43.8925C-0.683616 36.0639 0.745747 28.9171 4.32663 23.7776C5.07694 22.7009 5.92576 21.7026 6.74731 20.7368C7.40614 19.9618 8.09223 19.1596 8.69916 18.339C9.1548 17.7232 9.5946 17.0679 10.0186 16.4329C10.5129 15.6957 11.024 14.9375 11.579 14.2066C15.6982 8.82073 21.9232 5.82214 27.47 3.60025L28.4895 3.18948C33.695 1.08985 38.6146 -0.892786 44.8854 0.423988C45.969 0.651806 48.3053 0.768794 50.7787 0.893698C54.8416 1.09777 59.047 1.30887 60.8063 2.06006C64.7548 3.74627 70.1873 8.51462 73.7814 11.6707C75.0366 12.7728 76.0288 13.6427 76.6031 14.0702C80.6986 17.1198 83.8476 22.0148 86.2287 29.0359C88.0442 34.3874 88.8095 39.0142 88.5667 43.1817C88.3855 46.2859 87.6449 49.2941 86.9271 52.203L84.904 60.4124C84.3692 62.5824 83.8159 64.8271 82.8519 66.9215C79.7117 73.7323 72.8587 77.6773 67.3523 80.8466C60.8195 84.6078 53.414 88.8712 45.1677 89.0982C44.9373 89.1023 44.7071 89.1043 44.4772 89.1043ZM12.2475 14.7167L12.9151 15.2269C12.3874 15.9112 11.8957 16.6519 11.4154 17.3679C10.9756 18.0197 10.5279 18.6934 10.0467 19.3408C9.40373 20.2055 8.70356 21.0297 8.02362 21.8257C7.23198 22.7608 6.40602 23.7283 5.70146 24.739C2.35895 29.5364 1.0325 36.2619 1.96928 43.6822C2.82338 50.42 5.303 56.9107 7.70081 63.1937C8.95865 66.487 10.2587 69.8928 12.5941 72.5175C14.4175 74.5662 16.8091 76.0465 19.1225 77.4777C26.4664 82.0235 35.6011 87.6697 45.122 87.4172C52.9434 87.2017 60.1536 83.0509 66.5149 79.3882C73.024 75.6419 78.6298 72.0654 81.3266 66.2152C82.223 64.2703 82.7569 62.1047 83.2732 60.0113L85.2963 51.8019C85.9956 48.966 86.7186 46.0343 86.8902 43.085C87.1197 39.1373 86.3835 34.719 84.6384 29.5768C82.3699 22.8918 79.4135 18.258 75.6004 15.4151C74.9715 14.9534 73.9573 14.0597 72.6731 12.9303C69.159 9.85163 63.8488 5.1897 60.1448 3.60641C58.66 2.97309 54.2435 2.75055 50.6943 2.57287C48.0432 2.43917 45.7527 2.32394 44.537 2.06973C38.7659 0.854116 34.2949 2.65907 29.1149 4.7499L28.0945 5.15892C22.7606 7.30076 16.7854 10.1639 12.9151 15.2269L12.2475 14.7167Z" fill="#955041"/>
<path d="M11.623 36.2075C12.0271 36.231 12.3821 36.5775 12.6882 37.2472C13.0536 37.5991 13.3019 38.0872 13.4333 38.7118C13.4485 38.8806 13.7312 39.2823 14.2812 39.9168C14.4525 40.3607 14.6172 40.5874 14.7756 40.5968C14.8688 40.602 15.1242 40.3229 15.5417 39.7594C16.0061 39.3278 16.2923 38.9466 16.4002 38.6159C16.5873 38.0242 17.0376 37.4085 17.7513 36.7687C17.9139 36.7012 18.0866 36.661 18.2623 36.65C18.4934 36.6629 18.766 36.896 19.0804 37.3492C19.2563 37.7099 19.3272 38.1878 19.2932 38.783C19.2632 38.9683 19.2426 39.155 19.2317 39.3424L19.2246 39.4603C19.2147 39.7188 19.2294 39.9777 19.2686 40.2335C19.2317 40.5326 19.2059 40.8073 19.1912 41.0577L19.1798 41.2644C19.175 41.5522 19.1879 41.8401 19.2185 42.1264C19.1598 42.5123 19.0994 43.0022 19.0373 43.5962V44.7221C18.9563 46.1242 18.7992 46.9642 18.5658 47.2422C18.2573 47.4615 18.0143 47.5659 17.8366 47.5553C17.3833 47.529 17.1288 47.1478 17.0731 46.4119C17.0819 45.8348 17.076 45.4273 17.0555 45.1892C17.0725 44.5535 17.091 44.0633 17.1109 43.7185L17.1215 43.5426C17.121 43.5385 17.1214 43.5344 17.1228 43.5306C17.1242 43.5267 17.1265 43.5233 17.1296 43.5205C17.1326 43.5177 17.1362 43.5158 17.1402 43.5147C17.1441 43.5136 17.1483 43.5135 17.1523 43.5144C17.1194 43.3971 17.1141 43.15 17.1364 42.7729C17.2584 42.0247 17.3255 41.5447 17.3379 41.333C17.328 41.1702 17.2984 41.0093 17.2499 40.8536C16.9649 40.8378 16.5796 41.1808 16.0941 41.8827C15.9011 42.244 15.655 42.5744 15.364 42.8626C15.0861 43.133 14.8392 43.262 14.6234 43.2497C14.21 43.225 13.7408 42.7929 13.216 41.9531C13.1703 41.8945 13.0313 41.5705 12.7991 40.9812C12.7255 40.8947 12.6241 40.8365 12.5123 40.8167C12.3059 40.8044 12.13 41.1002 11.9846 41.7042L11.9626 42.0877C11.884 42.765 11.8432 43.128 11.8403 43.1767L11.8298 43.3526C11.8167 43.7479 11.8235 44.1436 11.85 44.5383C11.7327 46.0125 11.6013 46.7455 11.4559 46.7373C11.2425 47.0205 11.0176 47.1554 10.7813 47.1419C10.3033 47.115 9.977 46.7801 9.80226 46.1374L9.81985 45.8427L9.85943 45.6668C9.81937 45.3908 9.79588 45.1127 9.78906 44.8338L9.79434 44.7459C9.80314 44.5981 9.83832 44.3237 9.90165 43.9226C9.96498 42.826 10.0271 41.9657 10.0881 41.3418L10.1013 41.1052L10.2086 40.149C10.2437 39.6462 10.2437 39.1416 10.2086 38.6388C10.425 37.1106 10.6663 36.3544 10.9326 36.3702C10.9378 36.277 11.17 36.2216 11.623 36.2075Z" fill="#955041"/>
<path d="M13.9692 26.1721C14.1337 26.0251 14.2896 25.8689 14.4362 25.7041C14.5849 25.4543 14.6896 25.2863 14.7485 25.201L15.3396 24.4243L15.5076 24.1806C15.6624 23.9584 15.9322 23.5338 16.3168 22.907L16.5024 22.6431C16.623 22.4623 16.7844 22.3123 16.9735 22.2054C17.1627 22.0984 17.3743 22.0374 17.5914 22.0273C17.6955 22.0353 17.7962 22.0679 17.8852 22.1223C18.2013 22.3411 18.3247 22.6302 18.2555 22.9896C18.3083 23.0266 18.1617 23.3441 17.8157 23.9423C17.5418 24.2683 17.3293 24.5407 17.178 24.7594L16.8138 25.4429L16.7259 25.5642C16.6813 25.6288 16.433 25.9662 15.9808 26.5767C15.972 26.589 15.9193 26.6479 15.8216 26.7526C15.6613 27.0126 15.5604 27.3049 15.5261 27.6085C15.5753 27.7633 15.7099 27.9154 15.9289 28.0667C16.9458 28.6748 17.5105 28.898 17.6231 28.7361L17.8729 28.5875C18.1262 28.1518 18.3399 27.8081 18.5141 27.5566C18.6625 27.3419 18.8835 27.0396 19.1773 26.6497C19.4946 25.9829 19.6705 25.6249 19.7051 25.5757C19.9854 25.1711 20.4504 25.0013 21.1002 25.0664C21.1751 25.0938 21.2461 25.1311 21.3113 25.1772L21.3843 25.2274C21.7455 25.4772 21.5989 26.1307 20.9445 27.188L20.8767 27.2856C20.6791 27.535 20.4668 27.7724 20.2408 27.9964C20.0911 28.2862 19.9221 28.5657 19.735 28.8329C19.7069 28.8733 19.5342 29.0537 19.2169 29.3738L19.1835 29.4222C18.8809 29.8603 18.9809 30.2531 19.4834 30.6009L20.1036 31.0293C20.8987 31.5254 21.3734 31.662 21.5276 31.4392L21.744 31.2298C21.8742 31.0081 21.9833 30.8322 22.073 30.702L22.9931 29.6843C23.1551 29.3329 23.3417 28.9934 23.5516 28.6684C23.907 28.2673 24.0908 28.0708 24.1031 28.079L24.1128 28.014L24.331 27.6973C24.5731 27.349 24.9045 27.2425 25.3249 27.378L25.5439 27.5302C25.7797 27.6929 25.8448 28.0131 25.741 28.4933C25.3223 29.3061 25.0514 29.8016 24.9282 29.9799C24.4403 30.5475 24.1612 30.8818 24.0908 30.9826L24.0565 31.0319C23.8173 31.4471 23.6821 31.6769 23.651 31.7215L23.6343 31.7461C23.0802 32.3378 22.7623 32.6923 22.6808 32.8096L22.4794 33.1016C22.1182 33.6253 21.4479 33.6411 20.4686 33.1491L20.3472 33.0655C20.2616 33.0069 20.0191 32.8017 19.6198 32.4498C19.3462 32.3498 19.0814 32.2271 18.8281 32.083C18.4552 31.825 17.874 31.435 17.0847 30.9131C16.9264 30.7261 16.8516 30.6264 16.8604 30.6141C16.5813 30.4452 16.3728 30.313 16.235 30.2174L15.1426 29.4671C14.9156 29.3093 14.4424 28.8499 13.7229 28.0887C13.5772 27.8172 13.5276 27.5044 13.5821 27.2012C13.6384 26.835 13.7702 26.4846 13.9692 26.1721V26.1721Z" fill="#955041"/>
<path d="M29.3291 12.8819C29.4593 12.8531 29.8237 12.813 30.4225 12.7614C30.835 12.6391 31.0822 12.5696 31.164 12.5511C31.5868 12.4579 31.9093 12.596 32.1315 12.9654C32.1777 13.0089 32.2109 13.0643 32.2274 13.1255L32.3022 13.465C32.3608 13.7342 32.1963 14.1315 31.8087 14.6569L31.441 15.73C31.3642 15.818 31.1147 16.2417 30.6925 17.0011C30.3594 17.479 30.1644 17.9211 30.1076 18.3275C29.9548 18.6227 29.7456 18.8851 29.4918 19.0998C29.273 19.516 29.0298 19.919 28.7635 20.3066C28.6055 20.7948 28.3821 21.2594 28.0994 21.6876C27.8649 22.0834 27.7716 22.3919 27.8197 22.613L27.9956 22.7792C28.2102 22.6875 28.431 22.6108 28.6562 22.5496C28.9312 22.4996 29.2107 22.4784 29.4901 22.4863L29.5481 22.4731C29.8214 22.3512 30.1009 22.2437 30.3855 22.1512L30.4735 22.1327C30.8171 22.075 31.1647 22.0435 31.5132 22.0386L31.6011 22.0192C31.6451 22.0093 31.9061 21.9113 32.384 21.7254C32.4852 21.6847 32.5893 21.6514 32.6954 21.6261L32.8106 21.6005C33.7571 21.4064 34.2792 21.5305 34.3772 21.9726L34.4027 22.0887C34.4971 22.5121 34.3487 22.8452 33.9576 23.088L33.9004 23.1012L32.0348 23.4987L30.8913 23.7362C30.5738 23.7864 30.2932 23.8383 30.0477 23.8928L28.7582 24.2235C27.3122 24.5332 26.5721 24.6111 26.5381 24.4575C26.1206 24.3027 25.8514 23.9535 25.7306 23.4099C25.6538 23.0633 25.7623 22.5496 26.0561 21.8688C26.557 21.2431 26.9748 20.5551 27.299 19.822C27.3916 19.2819 27.9103 18.3873 28.855 17.1383C29.1066 16.4715 29.3382 15.9203 29.5499 15.4846C29.8495 15.0407 29.9906 14.7768 29.973 14.693V14.6859C29.95 14.6174 29.9128 14.5545 29.8639 14.5012C29.8182 14.4537 29.6314 14.4537 29.3036 14.5012C29.2007 14.5135 29.103 14.5303 29.0116 14.5505C28.8337 14.5875 28.6611 14.6466 28.4979 14.7264C28.2914 14.8278 28.0734 14.904 27.8487 14.9533L26.787 15.0826C26.471 15.1685 26.1615 15.2766 25.8608 15.4063L25.7166 15.438C24.7783 15.5752 24.2561 15.4058 24.15 14.9296L24.1368 14.8715C24.099 14.7336 24.1069 14.5871 24.1594 14.454C24.2119 14.321 24.3061 14.2085 24.4279 14.1335C24.5113 14.0723 24.602 14.0217 24.698 13.9831C24.722 13.9779 24.9668 13.9438 25.4324 13.8811L25.5204 13.8617L26.3033 13.5671L26.4185 13.5416C26.7133 13.4845 27.014 13.4638 27.3139 13.48C27.837 13.2664 28.3769 13.0963 28.928 12.9716L29.3291 12.8819Z" fill="#955041"/>
<path d="M39.7454 9.38817C40.3365 9.23453 41.1971 9.21372 42.3271 9.32572C42.6437 9.40606 43.1061 9.73356 43.7142 10.3082C44.0379 10.5346 44.2217 10.731 44.2657 10.8976L44.3027 11.041C44.3677 11.289 44.1813 11.511 43.7432 11.7068L43.7142 11.7139C43.2416 11.837 42.8167 11.6526 42.4396 11.1606C41.6849 10.8281 41.0191 10.7369 40.4421 10.887C39.67 11.0959 38.9652 11.501 38.3961 12.0631C38.2614 12.5822 38.0996 13.094 37.9114 13.5962L37.9352 13.8038L37.9651 13.9182C38.024 14.1425 38.0926 14.3685 38.1735 14.5972L38.2518 15.249C38.36 15.5876 38.4278 15.8137 38.4594 15.9289C38.5227 16.3292 38.5738 16.6018 38.6116 16.7443L38.6186 16.7734C39.0004 17.6313 39.2414 18.047 39.3417 18.0206C39.6845 18.2432 40.0586 18.4134 40.4517 18.5255C41.2997 18.712 41.8931 18.761 42.2321 18.6724C42.2989 18.6548 42.6197 18.4789 43.1943 18.1447C43.728 18.0057 44.0962 17.543 44.2991 16.7566C44.5566 16.2412 44.7879 15.9568 44.9931 15.9034L45.0503 15.8885C45.4843 15.8298 45.744 15.9656 45.8297 16.2957L45.8587 16.4101C45.9806 16.8792 45.7461 17.5416 45.155 18.3971C44.225 19.3225 43.6327 19.8235 43.3782 19.9004C43.3826 19.9197 43.3659 19.9338 43.328 19.9443C43.2659 19.9602 43.1014 19.9927 42.8346 20.042C42.6434 20.0918 42.2667 20.2091 41.7043 20.3938C41.3038 20.4982 40.4945 20.363 39.2766 19.9883C38.7083 19.7848 38.1331 19.1811 37.5508 18.1772C37.0905 17.1217 36.8301 16.4766 36.7697 16.2421L36.5313 15.3264C36.5208 15.2863 36.5208 15.2442 36.5313 15.2041C36.5308 15.2001 36.5294 15.1963 36.5272 15.1929C36.5249 15.1896 36.522 15.1868 36.5185 15.1847C36.515 15.1827 36.5111 15.1815 36.5071 15.1812C36.503 15.1809 36.499 15.1815 36.4953 15.183C36.3838 14.7573 36.3281 13.8463 36.3281 12.4501C36.5335 11.8731 36.8523 11.3432 37.2658 10.8914C37.5502 10.5396 38.1199 10.1464 38.9749 9.71187C39.2211 9.58029 39.4791 9.47192 39.7454 9.38817V9.38817Z" fill="#955041"/>
<path d="M50.2964 20.6217C49.8859 20.3139 49.742 19.1882 49.8645 17.2449C50.0598 16.0721 50.1161 15.2156 50.0334 14.6756C50.1337 14.1062 50.1545 13.647 50.0959 13.2981C50.0413 13.2178 50.0633 12.8249 50.1618 12.1194C50.0739 11.6145 50.1214 11.1683 50.3043 10.7807C50.3917 10.3197 50.4732 10.0092 50.5489 9.84915C50.8315 9.43867 51.1417 9.31289 51.4795 9.4718C51.8454 9.64421 51.9721 10.391 51.8595 11.7122C51.7135 12.471 51.8653 12.9571 52.3151 13.1706L53.1534 13.4028L53.2871 13.4661C53.3539 13.4978 53.5996 13.6467 54.0242 13.9129C54.6282 14.1111 55.202 14.3278 55.7456 14.563C56.0781 14.5401 56.2962 14.4689 56.4018 14.3501C56.4977 14.2859 56.7387 14.0079 57.1239 13.5136C57.5154 13.1918 57.9956 12.997 58.5005 12.955C58.585 12.9407 58.6718 12.9476 58.753 12.9753L58.9403 13.0632C59.2206 13.2978 59.3051 13.5341 59.1937 13.7722C59.2033 13.7977 59.1778 13.8734 59.1189 13.9983L59.0934 14.0519C58.6389 14.704 58.1991 15.1503 57.774 15.3907C57.2872 15.904 56.7575 16.3748 56.1907 16.7981C56.1015 16.9851 55.6943 17.3161 54.9689 17.7911C54.4546 18.4632 54.1441 18.7742 54.0374 18.7244C53.7383 18.861 53.2715 19.2944 52.6371 20.0245C52.0653 20.3921 51.634 20.6355 51.3432 20.7545C50.9893 20.8312 50.6199 20.7844 50.2964 20.6217ZM54.0084 16.2281L54.0963 16.0407C54.172 15.8806 54.0673 15.734 53.7823 15.6009C53.665 15.5464 53.4827 15.471 53.2352 15.3749C53.1683 15.3432 52.9223 15.1942 52.4972 14.928C52.1588 14.7679 51.9052 14.8661 51.7363 15.2227C51.6015 15.5077 51.5889 15.9267 51.6985 16.4796C51.719 16.6098 51.6604 16.8977 51.5226 17.3434C51.505 17.7387 51.5683 18.0195 51.7126 18.1861C51.8885 18.2682 52.1366 18.1128 52.4567 17.7199C53.1751 17.2678 53.6923 16.7705 54.0084 16.2281Z" fill="#955041"/>
<path d="M58.8817 19.8371C59.2265 19.5439 59.7071 19.5996 60.3234 20.0043C61.0235 20.6675 61.519 21.1501 61.8099 21.4521C62.1618 21.9846 62.3834 22.3018 62.4749 22.4038C62.7178 22.6656 62.9794 22.9093 63.2577 23.133C63.7093 23.74 64.0057 24.1888 64.147 24.4797C64.7692 25.1136 65.209 25.4866 65.4664 25.5986C65.7066 25.6813 65.8957 25.6601 66.0355 25.5352L66.3267 25.2837C66.5538 25.0902 66.7982 24.918 67.0568 24.7691C67.331 24.4362 67.6247 24.1199 67.9364 23.8218L69.313 22.5903C69.63 22.3828 70.0029 22.2772 70.3817 22.2877C70.5682 22.3255 70.6825 22.3686 70.7256 22.4161L70.8294 22.5323C71.0687 22.8067 71.03 23.2582 70.7133 23.8869L70.5761 23.9994C70.3942 24.1592 70.1858 24.286 69.9604 24.3742C69.6883 24.6497 69.4314 24.9398 69.1907 25.2432L68.9611 25.4332C68.6565 25.6028 68.3628 25.7911 68.0815 25.997L68.0595 26.0173C67.8169 26.3289 67.5523 26.6228 67.2679 26.8969L67.2406 26.9215C67.0368 27.0277 66.8454 27.156 66.6697 27.3041L66.6425 27.3288C66.5651 27.398 66.4006 27.5654 66.149 27.831C65.7901 28.1389 65.233 27.9923 64.4778 27.3912L64.2455 27.122C64.2432 27.1202 64.2412 27.1179 64.2399 27.1152C64.2386 27.1126 64.2379 27.1096 64.2379 27.1067C64.2379 27.1037 64.2386 27.1007 64.2399 27.0981C64.2412 27.0954 64.2432 27.0931 64.2455 27.0913L64.2517 27.086L64.1848 27.0561L63.9931 26.8283C63.957 26.7878 63.9456 26.7614 63.9605 26.7482L63.8409 26.6523L63.7864 26.5925C63.589 26.356 63.4102 26.1046 63.2516 25.8405C62.3198 25.0013 61.2974 23.9684 60.1844 22.7416L59.975 22.4531C59.7405 22.2385 59.547 22.0447 59.3945 21.8717L59.3303 21.8004C58.7198 21.0967 58.4697 20.5962 58.58 20.2989C58.6422 20.1231 58.7456 19.9647 58.8817 19.8371Z" fill="#955041"/>
<path d="M25.6151 56.8992C25.9811 57.5783 26.2262 58.0222 26.3505 58.2309C26.6472 58.7552 26.7566 59.09 26.6786 59.2354C26.6935 59.5178 26.5669 59.7518 26.296 59.9391C25.95 60.0957 25.6817 60.0341 25.4911 59.7544L25.4577 59.7052C25.3478 59.6111 25.2429 59.5113 25.1437 59.4061C24.803 58.9716 24.3925 58.8123 23.9122 58.9285L23.7618 59.0305C23.6163 59.1312 23.4759 59.2393 23.3414 59.3542C22.9948 59.5178 22.6928 59.6752 22.4354 59.8265C22.3726 59.8699 22.2304 59.9793 22.0088 60.1546L20.407 61.1328L20.2733 61.2603C19.7719 61.5535 19.4001 61.7828 19.1579 61.9482C18.6302 62.3094 18.4654 62.7888 18.6636 63.3863C18.9292 64.0167 19.0327 64.392 18.9741 64.5122C18.9802 64.6558 18.9491 64.7984 18.8839 64.9265C18.8187 65.0545 18.7217 65.1636 18.602 65.2432C18.0743 65.3604 17.7066 65.2693 17.499 64.9696L17.3961 64.8192C17.3242 64.6874 17.2653 64.5489 17.2202 64.4058L16.9976 64.0803C16.6182 63.6698 16.4086 63.4353 16.3687 63.3766C16.1869 62.8594 16.0289 62.5029 15.8946 62.307C15.8436 62.2326 15.6169 61.9901 15.2147 61.5796L15.1126 61.4301C14.7968 60.6542 14.7124 60.218 14.8584 60.1177C14.8162 60.0555 14.8921 59.9426 15.0862 59.779C15.2982 59.6348 15.592 59.6295 15.9658 59.7658C16.0732 59.7963 16.3394 60.0602 16.7645 60.5575C17.148 60.8953 17.5585 60.9146 17.996 60.6155C18.2425 60.5309 18.4786 60.4185 18.6997 60.2804L18.7498 60.2461C18.941 60.061 19.1492 59.8943 19.3717 59.7483C19.5933 59.597 19.8525 59.4351 20.1493 59.2627L20.86 58.5854L21.5329 58.2538C21.6291 58.1887 21.8076 57.9937 22.0686 57.6689L22.2929 57.5149C22.4711 57.3883 22.6629 57.2818 22.8646 57.1974C23.1619 56.7998 23.1795 56.409 22.9174 56.0249C22.8945 55.9923 22.8664 55.9554 22.8338 55.9176C22.5154 55.4484 22.5031 54.9737 22.7969 54.4935C22.8513 54.4325 22.9131 54.3784 22.9807 54.3325C23.4557 54.2217 23.8225 54.356 24.0811 54.7354C24.2491 55.0186 24.345 55.1752 24.3635 55.2033C24.6062 55.5499 24.7863 55.8088 24.9035 55.98C25.2032 56.3823 25.4404 56.6887 25.6151 56.8992Z" fill="#955041"/>
<path d="M31.0971 62.8421C31.1974 62.9102 31.5014 63.1362 32.0092 63.5203L32.0849 63.5713C32.2805 63.7292 32.4624 63.9034 32.6285 64.0921C32.9627 64.3729 33.2486 64.9063 33.4861 65.6921C33.533 66.3078 33.4043 66.842 33.0999 67.2947C32.829 67.5985 32.5572 67.6586 32.2845 67.475L32.1596 67.3871C32.0083 67.2856 31.8758 66.8314 31.7621 66.0246C31.5275 65.3795 31.2384 64.9415 30.8948 64.7104L30.8446 64.6761C30.4506 64.4844 29.9284 64.1938 29.278 63.8044C28.6406 63.6871 28.2301 63.6528 28.0466 63.7015C27.8645 63.7508 27.6578 63.9425 27.4309 64.2741L27.3966 64.3252C27.0811 64.7943 26.9984 65.152 27.1485 65.3983C27.1878 65.5472 27.7478 66.1436 28.8286 67.1874L28.979 67.2886C29.0376 67.3284 29.2792 67.563 29.7038 67.9922C30.1283 68.4215 30.401 68.8513 30.5218 69.2817C30.6732 69.6638 30.7456 70.0725 30.7347 70.4833C30.6174 71.201 30.4896 71.6625 30.3512 71.8678L30.2826 71.9681C29.6962 72.5885 29.22 72.9887 28.8541 73.1687C28.4882 73.3488 27.8815 73.4367 27.0342 73.4326L25.6409 73.0078C24.5959 72.2372 24.0045 71.7417 23.8667 71.5212C23.465 71.2503 23.0563 70.6463 22.6405 69.7092C22.4746 69.3421 22.5388 68.7771 22.8332 68.0142L23.0363 67.7125C23.1771 67.5032 23.446 67.4654 23.8429 67.5991C24.0857 67.7621 24.1652 68.1318 24.0813 68.7082C24.2352 69.0759 24.4075 69.4355 24.5977 69.7858C24.774 70.1022 24.9888 70.3956 25.2371 70.6592C25.4255 70.8515 25.6246 71.033 25.8335 71.2028C26.5214 71.5376 27.0075 71.6945 27.2919 71.6734C27.6662 71.6294 28.0321 71.5314 28.3782 71.3823C28.5014 71.3136 28.6172 71.2326 28.7239 71.1404L28.8761 70.9143C29.0901 70.5965 28.9887 70.1235 28.5717 69.4955C28.4503 69.2504 28.0862 68.8015 27.4792 68.1488L27.3711 68.0389C27.2191 67.8614 27.0503 67.6991 26.867 67.5542C26.2971 67.0358 25.9367 66.586 25.786 66.2049C25.5209 65.2959 25.4166 64.7998 25.4729 64.7166C25.5397 64.2381 25.6719 63.8525 25.8696 63.5599C25.9185 63.4849 25.9742 63.4146 26.0358 63.3497C26.0627 63.264 26.1021 63.1828 26.1528 63.1087C26.2906 62.9034 26.5252 62.6982 26.8565 62.4929C27.3097 62.2161 27.8222 62.0509 28.3518 62.0109C28.7435 61.9276 29.4302 62.0742 30.4119 62.4507C30.7344 62.6219 30.9628 62.7524 31.0971 62.8421Z" fill="#955041"/>
<path d="M41.7822 67.3361C42.1956 67.3168 42.5941 67.632 42.9776 68.2817C43.3881 68.6019 43.6927 69.0731 43.8915 69.6952C43.9243 69.8659 44.2548 70.245 44.8828 70.8326C45.1045 71.2665 45.2959 71.48 45.4572 71.4729C45.554 71.4688 45.785 71.1574 46.1503 70.5388C46.5766 70.0497 46.8276 69.6316 46.9033 69.2844C47.0317 68.6629 47.4255 67.9885 48.0846 67.2614C48.2427 67.1746 48.4142 67.1151 48.5921 67.0854C48.8267 67.0737 49.1293 67.2822 49.4999 67.7108C49.7174 68.0627 49.8403 68.5421 49.8684 69.149C49.8569 69.3408 49.8554 69.5331 49.864 69.7251L49.8702 69.8456C49.887 70.1101 49.9294 70.3723 49.9969 70.6285C49.9907 70.9372 49.9968 71.2196 50.0056 71.4773L50.0144 71.6884C50.0408 71.9819 50.0845 72.2736 50.1455 72.5619C50.1238 72.9624 50.1141 73.4682 50.1165 74.0792L50.237 75.2227C50.3032 76.66 50.232 77.5322 50.0232 77.8395C49.73 78.0958 49.4937 78.228 49.3143 78.2362C48.8498 78.2573 48.5502 77.897 48.4153 77.1552C48.3637 76.5688 48.3145 76.1542 48.2675 75.9114C48.22 75.2658 48.1884 74.767 48.1725 74.4152L48.1637 74.234C48.1631 74.2299 48.1633 74.2257 48.1645 74.2218C48.1657 74.2178 48.1677 74.2141 48.1705 74.2111C48.1733 74.208 48.1768 74.2057 48.1806 74.2042C48.1845 74.2026 48.1886 74.202 48.1928 74.2023C48.147 74.088 48.1154 73.8367 48.0978 73.4485C48.1435 72.6733 48.1614 72.1772 48.1514 71.9602C48.1225 71.7957 48.0744 71.6351 48.0081 71.4817C47.7149 71.4952 47.3589 71.8855 46.9402 72.6525C46.7811 73.0406 46.5649 73.4029 46.299 73.7274C46.0456 74.0326 45.8073 74.1891 45.5856 74.1997C45.1622 74.2191 44.6392 73.8288 44.0164 73.0289C43.9636 72.9703 43.7877 72.6548 43.4886 72.0825C43.4043 72.0024 43.295 71.9539 43.179 71.9453C42.9679 71.9552 42.8213 72.2751 42.7392 72.9049L42.7568 73.299C42.7492 73.9968 42.7462 74.3706 42.748 74.4205L42.7559 74.6026C42.7846 75.0068 42.8336 75.4092 42.9028 75.8085C42.9362 77.3226 42.8799 78.0829 42.7339 78.0893C42.5457 78.4013 42.3308 78.5629 42.0892 78.574C41.6001 78.5963 41.2324 78.2896 40.9861 77.6539L40.9721 77.3513L40.9941 77.1684C40.924 76.8915 40.8706 76.6107 40.834 76.3275V76.2395C40.8269 76.0891 40.834 75.805 40.856 75.3898C40.8038 74.2657 40.7745 73.3828 40.768 72.7413L40.7566 72.4994L40.7645 71.5134C40.7469 70.9974 40.6931 70.4834 40.6035 69.9749C40.6622 68.3963 40.8278 67.6006 41.1005 67.5877C41.0952 67.4795 41.3239 67.3977 41.7822 67.3361Z" fill="#955041"/>
<path d="M55.8917 64.9154C56.3943 64.7606 57.4138 65.3177 58.9501 66.5866C59.8063 67.4533 60.483 68.0151 60.9803 68.272C61.3908 68.6959 61.7587 68.9891 62.0842 69.1516C62.1839 69.1551 62.4964 69.4099 63.0218 69.916C63.491 70.1464 63.8323 70.454 64.0457 70.8387C64.3759 71.1905 64.5843 71.4447 64.6711 71.6013C64.8435 72.0827 64.7614 72.4155 64.4248 72.5996C64.0624 72.799 63.3672 72.4551 62.3393 71.5679C61.7974 70.9897 61.3031 70.8234 60.8562 71.0691L60.1587 71.6242L60.0259 71.6972C59.9602 71.7329 59.689 71.847 59.2123 72.0393C58.6845 72.4211 58.1603 72.7665 57.6395 73.0755C57.4583 73.3646 57.3853 73.5886 57.4205 73.7475C57.4164 73.8648 57.5044 74.2322 57.6844 74.8497C57.7153 75.3675 57.5884 75.8825 57.3202 76.3265C57.2819 76.4055 57.2237 76.4731 57.1513 76.5227L56.9657 76.6247C56.6004 76.715 56.3535 76.6432 56.2251 76.4092C56.1987 76.4013 56.1503 76.3353 56.0826 76.2113L56.0536 76.1585C55.7868 75.3892 55.6812 74.7561 55.7369 74.2595C55.6031 73.5468 55.5302 72.8241 55.5188 72.0991C55.4173 71.9133 55.388 71.3767 55.4308 70.4895C55.1828 69.6591 55.1118 69.2146 55.218 69.156C55.2842 68.8264 55.2051 68.179 54.9805 67.2138C55.0203 66.5189 55.079 66.0152 55.1564 65.7026C55.304 65.3637 55.5636 65.0857 55.8917 64.9154V64.9154ZM57.2991 70.6328L57.4003 70.8184C57.4882 70.9776 57.673 70.9794 57.9571 70.8246C58.0743 70.7613 58.2465 70.6551 58.4734 70.5062C58.5397 70.4698 58.8109 70.3558 59.287 70.164C59.623 69.9793 59.694 69.7098 59.4999 69.3556C59.3445 69.0724 59.0047 68.8085 58.4804 68.564C58.3632 68.5054 58.1605 68.2825 57.8726 67.8955C57.5554 67.6439 57.2842 67.5266 57.059 67.5437C56.8831 67.6387 56.8663 67.9368 56.9983 68.4409C56.9402 69.3158 57.0417 70.0464 57.3026 70.6328H57.2991Z" fill="#955041"/>
<path d="M63.2235 58.7398C63.2868 58.6518 63.4056 58.4988 63.5797 58.2868C63.7266 58.0449 63.8577 57.8408 63.9747 57.6763C64.2679 57.2658 64.7903 56.8935 65.5421 56.5592C66.644 56.2496 67.4116 56.2478 67.8449 56.5539C68.2783 56.8601 68.4835 57.1653 68.4607 57.4696C68.4592 57.5346 68.4397 57.598 68.4044 57.6526L68.283 57.8285C68.1346 58.0384 67.6614 58.0258 66.8633 57.7907C66.3584 57.7174 65.8676 57.8525 65.3908 58.1962L64.7751 58.6501L64.7399 58.6993C64.6356 59.0999 64.4566 59.4771 64.2122 59.8111C64.0761 60.302 64.0568 60.9063 64.1541 61.624C64.3148 61.8861 64.644 62.2424 65.1419 62.6927L65.1252 62.7174L65.192 62.7279L66.0338 63.582L66.1754 63.6453L66.3514 63.7676C66.4387 63.8263 66.6484 63.9494 66.9803 64.1371C67.2576 64.3575 67.4251 64.488 67.4825 64.5285C68.154 64.7044 68.6278 64.8909 68.904 65.0879C69.3145 65.1735 69.8422 65.0759 70.4873 64.795C70.4961 64.7827 70.9752 64.3669 71.9246 63.5477C72.1796 62.7402 72.2383 62.2884 72.1005 62.1922C72.0125 62.0163 71.9413 61.6445 71.8867 61.0769C71.8498 60.901 71.7281 60.7409 71.5217 60.5966C71.1886 60.5087 70.911 60.6215 70.6887 60.9353C70.5942 61.218 70.4657 61.4883 70.3061 61.7401C69.9976 62.1776 69.6165 62.3157 69.1626 62.1544L68.9867 62.0321C68.789 61.8926 68.7342 61.5325 68.8222 60.952C68.8493 60.7977 68.9139 60.6524 69.0104 60.5289C69.3922 60.0932 69.5998 59.8692 69.6332 59.8569C69.7591 59.5545 69.9045 59.2607 70.0686 58.9773C70.314 58.6316 70.7934 58.4759 71.5103 58.512C71.6933 58.5779 71.8683 58.6643 72.0319 58.7697L72.1313 58.84C72.4245 59.0465 72.7707 59.5012 73.1701 60.2043C73.4932 60.5867 73.6571 60.9494 73.6618 61.2924C73.7667 62.4922 73.6902 63.353 73.4322 63.8749C73.1976 64.1681 73.0088 64.4176 72.8657 64.6235L72.4796 65.1653C72.1922 65.5758 71.6058 66.0024 70.7204 66.4451C69.9537 66.7429 69.109 66.7739 68.3226 66.5331C67.9637 66.4891 67.3749 66.3079 66.5563 65.9895C66.5361 66.0185 66.442 65.9763 66.274 65.8637L66.0268 65.6878L64.9413 64.8082C64.8308 64.7563 64.7254 64.6942 64.6264 64.6226L64.4039 64.466C63.9987 63.9817 63.6023 63.5284 63.2147 63.1061C62.7532 62.2975 62.6039 61.3886 62.767 60.3794C62.7511 59.7396 62.9033 59.1931 63.2235 58.7398Z" fill="#955041"/>
<path d="M67.2991 49.7914C67.5495 49.0613 67.7096 48.5799 67.7794 48.3471C67.9629 47.7736 68.1344 47.4663 68.2939 47.4252C68.4921 47.2223 68.7504 47.1575 69.0689 47.2308C69.4207 47.3786 69.5576 47.6173 69.4796 47.9468L69.4656 48.0058C69.4656 48.2697 69.4656 48.4104 69.4594 48.4394C69.3697 48.9836 69.5315 49.3941 69.9449 49.6709L70.1209 49.7113C70.2936 49.7503 70.4683 49.7797 70.6442 49.7993C70.9996 49.9436 71.3201 50.0588 71.6056 50.145C71.6795 50.1626 71.8563 50.1925 72.1334 50.2329L73.9357 50.7414L74.1196 50.7528C74.6761 50.9228 75.0968 51.0401 75.3818 51.1046C76.0063 51.2489 76.4705 51.0451 76.7742 50.4933C77.0575 49.8694 77.2627 49.5386 77.3899 49.5011C77.4915 49.3988 77.6177 49.3246 77.7565 49.2856C77.8952 49.2466 78.0417 49.2442 78.1816 49.2786C78.6284 49.5894 78.8111 49.9216 78.7296 50.2752L78.6883 50.4511C78.6398 50.5927 78.5774 50.7292 78.5018 50.8583L78.4138 51.2419C78.3681 51.8013 78.3373 52.1153 78.3215 52.1839C78.0646 52.6683 77.9095 53.0263 77.8561 53.2579C77.8356 53.3465 77.8113 53.6775 77.7831 54.251L77.7418 54.4269C77.3864 55.1846 77.1225 55.5434 76.9501 55.5036C76.9334 55.5774 76.7997 55.5977 76.5473 55.566C76.2963 55.5074 76.094 55.2951 75.9404 54.9292C75.8911 54.8301 75.9049 54.4551 75.9817 53.8042C75.97 53.294 75.7061 52.9794 75.19 52.8603C74.9599 52.7363 74.7164 52.6387 74.4644 52.5692L74.4054 52.5551C74.1384 52.5403 73.8734 52.5005 73.6138 52.4364C73.3499 52.3757 73.0579 52.2956 72.7289 52.1936L71.749 52.1311L71.0453 51.8611C70.9327 51.8347 70.668 51.8365 70.2537 51.8611L69.9898 51.8004C69.7757 51.7555 69.5673 51.6865 69.3688 51.5946C68.8745 51.6474 68.5754 51.8998 68.4716 52.3519C68.4617 52.3961 68.4541 52.4407 68.4487 52.4856C68.3209 53.0374 67.9805 53.3685 67.4275 53.4787C67.3458 53.4801 67.2643 53.4715 67.1847 53.4532C66.7819 53.1799 66.6318 52.819 66.7344 52.3704C66.8276 52.0555 66.8786 51.8813 66.8865 51.8426C66.9745 51.4283 67.0449 51.1213 67.0915 50.919C67.1929 50.4388 67.2621 50.0629 67.2991 49.7914Z" fill="#955041"/>
<path d="M67.8904 40.9995C67.7884 40.382 67.847 39.5024 68.0663 38.3606C68.1777 38.0446 68.5554 37.6048 69.1993 37.0412C69.4608 36.7316 69.6783 36.5627 69.8519 36.5346L70.0015 36.5099C70.2606 36.4666 70.4694 36.6777 70.6277 37.1433L70.633 37.1732C70.7139 37.6669 70.4855 38.083 69.9478 38.4213C69.5373 39.1596 69.3816 39.8299 69.4807 40.4321C69.6208 41.2397 69.9675 41.9972 70.487 42.6311C71.0036 42.818 71.51 43.0318 72.0043 43.2715H72.2181L72.3377 43.2513C72.5723 43.2137 72.8097 43.1645 73.0502 43.1035L73.7222 43.085C74.074 43.0067 74.315 42.9566 74.4347 42.9372C74.8498 42.91 75.1313 42.8845 75.2809 42.859L75.3116 42.8546C76.2223 42.5461 76.6689 42.3409 76.6513 42.2388C76.909 41.9097 77.1165 41.5442 77.267 41.1543C77.5362 40.3075 77.6417 39.707 77.5837 39.3528C77.5719 39.2836 77.4233 38.9397 77.1377 38.3211C77.0462 37.7634 76.6091 37.3444 75.8262 37.0641C75.3248 36.7527 75.0566 36.4888 75.0214 36.2724L75.0108 36.2126C74.9938 35.7646 75.1571 35.5128 75.5008 35.4571L75.6204 35.4368C76.1089 35.3571 76.7621 35.6588 77.5802 36.3419C78.4357 37.3769 78.8908 38.0284 78.9453 38.2964C78.9647 38.2964 78.9787 38.3114 78.9849 38.351C78.9954 38.4161 79.0133 38.587 79.0385 38.8638C79.0708 39.0632 79.1564 39.4584 79.2954 40.0495C79.364 40.4682 79.15 41.2809 78.6533 42.4878C78.3917 43.0472 77.7218 43.577 76.6434 44.0772C75.5228 44.4455 74.8402 44.6507 74.5956 44.6929L73.6395 44.8504C73.598 44.8577 73.5552 44.854 73.5155 44.8398C73.5113 44.8399 73.5071 44.841 73.5034 44.8429C73.4997 44.8449 73.4965 44.8477 73.494 44.8511C73.4915 44.8545 73.4899 44.8584 73.4892 44.8626C73.4885 44.8667 73.4888 44.871 73.49 44.875C73.042 44.9477 72.1061 44.9184 70.6823 44.7871C70.1133 44.5236 69.603 44.1485 69.1817 43.684C68.8474 43.3603 68.5 42.7423 68.1393 41.8298C68.0306 41.5614 67.9473 41.2834 67.8904 40.9995V40.9995Z" fill="#955041"/>
</svg>
