<svg width="71" height="133" viewBox="0 0 71 133" fill="none" xmlns="http://www.w3.org/2000/svg">
<path d="M42.3837 1.56627C42.324 1.47777 42.2331 1.41519 42.1291 1.39113C41.7462 1.23635 41.3634 1.0775 40.9723 0.943086C40.6282 0.816819 40.284 0.729247 39.9357 0.629456C39.7321 0.572433 39.5284 0.533738 39.339 0.468568C38.8957 0.334878 38.441 0.242166 37.9806 0.191597L36.9624 0.0612571C36.6027 0.0127377 36.2397 -0.00701164 35.8769 0.00219703C35.5653 0.00219703 35.2659 0.0286723 34.9462 0.020526C34.6714 0.0187699 34.3975 0.0530034 34.1316 0.122354C33.7299 0.217412 33.3213 0.280068 32.9096 0.309717C32.5023 0.348412 32.095 0.413581 31.6877 0.466532C31.6037 0.484395 31.5187 0.497315 31.4331 0.505226C31.056 0.52712 30.6821 0.587166 30.3171 0.684443C29.9098 0.772015 29.5025 0.85755 29.0951 0.930866C28.4353 1.05637 27.7932 1.26153 27.1828 1.54183C27.0726 1.59325 26.9598 1.63879 26.8448 1.67828C26.3886 1.83102 25.9405 2.01024 25.4945 2.19557C25.0872 2.36868 24.6616 2.52549 24.24 2.67619C23.8016 2.83889 23.3944 3.07588 23.0364 3.37677C22.794 3.58043 22.5497 3.76575 22.3032 3.96126C21.3996 4.66585 20.5367 5.42127 19.7188 6.22388C19.3149 6.63328 18.9514 7.08067 18.6334 7.55986C18.114 8.32356 17.5968 9.09338 17.0897 9.86931C16.774 10.352 16.4787 10.8448 16.1712 11.3356C16.0392 11.582 15.8881 11.8177 15.719 12.0403C15.6485 12.1398 15.591 12.2479 15.548 12.3621C15.2915 12.9204 15.0651 13.4922 14.8698 14.0748C14.7048 14.5554 14.548 15.0401 14.4055 15.5289C14.3327 15.7823 14.285 16.0421 14.2629 16.3048C14.2252 16.7253 14.1647 17.1434 14.0817 17.5573C14.0334 17.8175 14.0055 18.081 13.9982 18.3455C13.988 18.6082 13.9676 18.8709 13.9554 19.1356C13.9391 19.433 13.9187 19.7323 13.9167 20.0317C13.9167 20.5429 13.9167 21.05 13.9167 21.5632C13.9167 22.162 13.933 22.7607 13.9839 23.3554C13.9961 23.4979 14.0022 23.6385 14.0043 23.779C14.0309 24.6238 14.1222 25.4653 14.2772 26.2962C14.4605 27.3348 14.66 28.3694 14.8637 29.404C15.0103 30.1436 15.2243 30.8682 15.5032 31.5688C15.8554 32.466 16.2734 33.3359 16.7536 34.1715C16.833 34.308 16.9104 34.4444 16.9797 34.5788C17.2366 35.0962 17.5545 35.581 17.9267 36.0228C18.1493 36.2943 18.374 36.5611 18.6008 36.8231C18.727 36.9677 18.8615 37.1021 18.9979 37.2304C19.4052 37.6377 19.8173 38.0376 20.2341 38.43C20.8125 39.0062 21.447 39.5234 22.1281 39.9737C22.5069 40.216 22.8816 40.4665 23.2604 40.7089C23.7573 41.0266 24.2787 41.2893 24.8 41.5642C25.2583 41.8086 25.7002 42.0795 26.1788 42.2811L28.2296 43.1405C28.2764 43.1609 28.3274 43.1751 28.3742 43.1975C28.9078 43.4404 29.4684 43.6188 30.0442 43.7291C30.4291 43.8146 30.814 43.9042 31.1989 43.9938C31.587 44.0717 31.9823 44.1072 32.3781 44.0997C32.7391 44.0987 33.0998 44.1232 33.4574 44.1731C33.7466 44.2138 34.0399 44.2118 34.3271 44.2728C34.4461 44.2962 34.5685 44.2962 34.6875 44.2728C35.3343 44.188 35.9751 44.0621 36.606 43.8961C36.8521 43.815 37.1107 43.7784 37.3697 43.7881C37.817 43.785 38.2628 43.7345 38.6995 43.6374C38.8014 43.6211 38.9032 43.5926 39.005 43.5865C39.3999 43.5584 39.7909 43.4902 40.172 43.3829C40.3553 43.336 40.5386 43.2953 40.7239 43.2546C41.0087 43.1868 41.2868 43.0934 41.5548 42.9756C41.9499 42.8045 42.3552 42.6558 42.7543 42.4929C42.9783 42.4013 43.1983 42.3035 43.4162 42.2017C43.8541 41.998 44.2879 41.7842 44.7257 41.5764C44.9994 41.4649 45.244 41.2921 45.4405 41.0714C45.498 41.0046 45.567 40.9488 45.6442 40.9064C46.2342 40.5401 46.7971 40.1317 47.3284 39.6845C47.6429 39.4375 47.9397 39.1687 48.2164 38.88C48.3589 38.7293 48.5219 38.597 48.6766 38.4585C48.754 38.3872 48.8396 38.3261 48.9129 38.2548C49.4607 37.6988 50.0371 37.1673 50.5421 36.5686C50.8557 36.1959 51.1714 35.8232 51.4789 35.4423C51.6066 35.2804 51.7237 35.1104 51.8292 34.9332C52.1698 34.36 52.5559 33.8152 52.9839 33.304C53.0187 33.265 53.0514 33.2243 53.0817 33.1818C53.5438 32.5488 53.9428 31.8722 54.2731 31.1615C54.489 30.6442 54.6661 30.1106 54.8433 29.5771C54.9777 29.1698 55.0918 28.7624 55.1997 28.3551C55.2975 27.9987 55.3749 27.6383 55.4584 27.2778C55.495 27.125 55.5215 26.9682 55.5683 26.8175C55.6165 26.6485 55.6485 26.4753 55.6641 26.3002C55.7007 26.0029 55.7557 25.7096 55.8168 25.4164C55.901 25.0751 55.9529 24.7267 55.9716 24.3757C55.9735 24.2702 55.9858 24.1652 56.0082 24.0621C56.0938 23.614 56.1243 23.1558 56.2363 22.7118C56.2363 22.6752 56.216 22.6283 56.1976 22.553C56.1251 22.7064 56.0789 22.8709 56.0612 23.0397C56.0242 23.3712 55.9512 23.6976 55.8433 24.0132C55.7435 24.3309 55.6702 24.6588 55.5785 24.9785C55.4034 25.5895 55.2221 26.2005 55.0449 26.7992C54.994 26.9662 54.9289 27.1312 54.8942 27.3022C54.7879 27.7649 54.6128 28.209 54.3749 28.6199C54.1831 28.9533 54.0209 29.3029 53.8902 29.6646C53.8014 29.9321 53.6571 30.1778 53.4666 30.3856C53.132 30.7665 52.8467 31.1879 52.6174 31.6401C52.5601 31.7493 52.4919 31.8523 52.4137 31.9476C52.0716 32.3895 51.7233 32.8254 51.3791 33.2653C51.1645 33.5386 50.9238 33.7903 50.6602 34.0168C50.2244 34.3915 49.8069 34.7845 49.3833 35.1674C49.3084 35.2396 49.2295 35.3076 49.1471 35.3711C48.7398 35.6521 48.3528 35.925 47.9577 36.2101C47.5626 36.4952 47.1431 36.7213 46.7663 37.041C46.6047 37.1715 46.424 37.2766 46.2307 37.3526C45.9951 37.4601 45.766 37.5811 45.5444 37.7151C44.7726 38.1367 44.015 38.5929 43.1739 38.8658C43.125 38.88 43.0761 38.9004 43.0252 38.9126C42.5079 39.0389 42.0069 39.2364 41.4998 39.3892C41.2193 39.4724 40.9344 39.5404 40.6465 39.5928C40.2946 39.6703 39.9371 39.7193 39.5773 39.7395C39.3531 39.7518 39.1307 39.7866 38.9134 39.8433C38.4822 39.9588 38.0397 40.0271 37.5937 40.047C36.8952 40.1896 36.1864 40.1244 35.4838 40.1366C35.2945 40.1382 35.1057 40.1163 34.9217 40.0714C34.4696 39.9696 34.0134 39.8861 33.5593 39.7924C33.2382 39.7284 32.9111 39.6997 32.5838 39.7069C32.0831 39.7157 31.5864 39.6164 31.1276 39.4157C30.827 39.2884 30.5197 39.1776 30.2071 39.0837C29.5757 38.904 28.9769 38.6249 28.4333 38.2569C28.1196 38.0369 27.7938 37.8496 27.4679 37.6459C26.6929 37.1494 25.9451 36.6116 25.2277 36.035C24.9568 35.8153 24.7128 35.5644 24.5007 35.2876C24.328 35.0658 24.1343 34.8612 23.9223 34.6766C23.8518 34.6267 23.7887 34.567 23.7349 34.4994C23.405 34.0453 22.9773 33.6848 22.6454 33.2306C22.4986 33.0367 22.3365 32.8549 22.1607 32.6869C21.6801 32.2041 21.2539 31.6701 20.8899 31.0943C20.7332 30.8611 20.6124 30.6057 20.5314 30.3367C20.4529 30.0673 20.3356 29.8107 20.1832 29.575C19.9551 29.221 19.7672 28.8425 19.6231 28.4468C19.5393 28.2166 19.435 27.9944 19.3115 27.7829C19.1995 27.587 19.1028 27.3827 19.0223 27.1719C18.8472 26.7116 18.6721 26.2534 18.5213 25.785C18.3452 25.2143 18.2004 24.6343 18.0876 24.0478C17.9572 23.4083 17.8554 22.7668 17.7638 22.1233C17.7271 21.8626 17.6945 21.6019 17.6599 21.3412C17.5967 20.7266 17.6049 20.1068 17.6843 19.4941C17.7166 19.1445 17.7849 18.7992 17.888 18.4636C18.0916 17.7874 18.226 17.0991 18.3584 16.4087C18.537 15.4946 18.78 14.5942 19.0855 13.7143C19.1954 13.4007 19.3075 13.085 19.395 12.7633C19.564 12.1729 19.8274 11.6137 20.175 11.1075C20.3563 10.8306 20.5029 10.5292 20.6638 10.24L21.1933 9.2726C21.3677 8.9683 21.5724 8.68241 21.8043 8.41928C22.0609 8.11176 22.3032 7.78999 22.5334 7.4621C22.9533 6.84041 23.4402 6.26674 23.9854 5.75139C24.1504 5.59865 24.3031 5.42758 24.4681 5.27688C24.8286 4.92516 25.2213 4.6081 25.6411 4.32988C25.9914 4.10789 26.3275 3.85943 26.6594 3.62116C26.7325 3.57135 26.8007 3.51476 26.8631 3.45212C27.0302 3.2729 27.2355 3.13368 27.4639 3.04481C28.026 2.82283 28.5534 2.51938 29.1237 2.3198C29.3693 2.23222 29.6071 2.12389 29.8344 1.99599C30.3952 1.69131 30.9946 1.46387 31.6164 1.31985C32.1154 1.19358 32.6245 1.11619 33.1316 1.00622C33.2538 0.989754 33.3769 0.980912 33.5002 0.979744C34.0481 0.941049 34.6 0.930867 35.1437 0.859587C35.6734 0.795222 36.207 0.769358 36.7404 0.782198C36.944 0.782198 37.1477 0.814783 37.3513 0.831075C37.555 0.847368 37.7974 0.865697 38.0193 0.873843C38.8088 0.912985 39.5946 1.00552 40.3716 1.15081C41.0009 1.25875 41.6118 1.4339 42.2309 1.57849C42.2822 1.58224 42.3337 1.57812 42.3837 1.56627" fill="#955041"/>
<path d="M45.1658 122.112C45.1373 122.161 45.1189 122.236 45.0762 122.253C44.6851 122.407 44.3002 122.629 43.8929 122.69C42.339 122.921 40.8014 123.32 39.2088 123.202C38.5714 123.157 38.0541 123.595 37.8382 124.22C37.7995 124.336 37.7527 124.452 37.7222 124.572C37.1886 126.737 36.6672 128.904 36.1235 131.067C35.9728 131.663 35.763 132.246 35.5573 132.826C35.5243 132.875 35.4804 132.915 35.4291 132.943C35.3778 132.971 35.3206 132.987 35.262 132.989C35.1744 132.989 35.0583 132.883 35.0074 132.786C34.9545 132.674 34.9208 132.554 34.9076 132.431C34.5675 130.729 34.1908 129.034 34.093 127.289C34.0423 126.605 33.9505 125.925 33.8181 125.252C33.6877 124.497 33.2071 124.061 32.4984 123.888C32.0942 123.756 31.6781 123.664 31.2561 123.613C30.0912 123.562 28.9955 123.183 27.8754 122.919C27.0608 122.715 26.1993 122.65 25.3969 122.348C25.2853 122.303 25.1788 122.247 25.0792 122.179C25.0364 122.153 24.9835 122.084 24.9896 122.043C25.012 121.931 25.0303 121.758 25.1057 121.719C26.1269 121.179 27.2264 120.804 28.3642 120.605C29.2603 120.45 30.1665 120.365 31.0728 120.261C31.3722 120.228 31.6838 120.261 31.9791 120.228C33.089 120.08 33.537 119.782 33.7753 118.501C34.1745 116.368 34.5852 114.238 35.0074 112.111C35.1195 111.631 35.2672 111.161 35.4494 110.703C35.4758 110.628 35.653 110.565 35.7467 110.573C35.8029 110.58 35.8567 110.6 35.9038 110.631C35.9508 110.663 35.9898 110.705 36.0176 110.754C36.4452 112.18 36.655 113.658 36.8729 115.129C37.0236 116.171 37.1662 117.218 37.3434 118.257C37.381 118.564 37.5048 118.855 37.7005 119.095C37.8961 119.335 38.1557 119.514 38.4492 119.613C39.535 120.004 40.6452 120.323 41.7729 120.568C42.8997 120.813 43.9836 121.225 44.9886 121.79C45.0762 121.841 45.1128 121.994 45.1719 122.09" fill="#955041"/>
<path d="M22.6703 86.454C21.4198 86.4011 20.705 86.9163 20.2508 88.7533C19.3812 92.2582 18.5401 95.7713 17.6583 99.2721C17.4547 100.111 17.3202 100.999 16.7724 101.716C16.7059 101.782 16.6229 101.828 16.5321 101.85C16.4883 101.874 16.4397 101.888 16.3898 101.89C16.34 101.893 16.2903 101.884 16.2444 101.864C16.1985 101.845 16.1577 101.815 16.125 101.777C16.0923 101.739 16.0685 101.695 16.0555 101.647C15.8315 100.802 15.579 99.9584 15.4446 99.099C15.0902 96.9789 14.6646 94.8711 14.5627 92.7083C14.484 91.6372 14.3309 90.5729 14.1045 89.5231C13.9009 88.4437 13.1372 87.8287 12.1596 87.5863C11.0497 87.3053 9.89903 87.1933 8.77485 86.955C5.97459 86.3624 3.17433 85.7575 0.408686 84.9958C0.241236 84.931 0.098638 84.8148 0.00137434 84.6639C0.13626 84.4214 0.296698 84.194 0.47996 83.9857C0.552792 83.9218 0.63912 83.8751 0.732497 83.8493C3.84478 82.5972 7.15463 81.9077 10.508 81.8127C11.0806 81.8144 11.6517 81.7522 12.2105 81.6274C12.5902 81.5386 12.9393 81.3503 13.2221 81.0818C13.5048 80.8134 13.711 80.4745 13.8194 80.1C13.9247 79.7242 14.0084 79.3428 14.0699 78.9574C14.5722 76.4674 15.0753 73.9767 15.579 71.4853C15.8478 70.1453 16.1003 68.8011 16.3936 67.4652C16.4864 67.193 16.6241 66.9383 16.8009 66.7116C16.8437 66.6444 16.9598 66.6261 17.0392 66.5833C17.2551 66.4713 17.4465 66.5141 17.5198 66.7483C17.8198 67.6715 18.0693 68.6104 18.2672 69.5608C18.7295 72.2572 19.1226 74.9658 19.5523 77.6683C19.6204 78.1491 19.7183 78.6252 19.8456 79.0939C20.0737 79.8841 20.5319 80.5032 21.3323 80.7517C22.7904 81.2078 24.2486 81.6783 25.7292 82.055C27.4928 82.5011 29.2382 82.9898 30.898 83.7535C31.2407 83.9242 31.5702 84.1202 31.8837 84.3401C31.9216 84.3704 31.9519 84.4093 31.9721 84.4535C31.9923 84.4977 32.0017 84.5461 31.9997 84.5946C31.9658 84.7638 31.8813 84.9186 31.7574 85.0386C31.5262 85.2124 31.2612 85.3359 30.9794 85.4011C28.7216 85.7935 26.461 86.1689 24.1977 86.5273C23.9207 86.5721 23.6275 86.5008 22.6845 86.4459" fill="#955041"/>
<path d="M70.1582 65.6078C69.7994 65.9313 69.3412 66.1231 68.8589 66.1516C67.3009 66.3552 65.7674 66.7809 64.1748 66.6526C63.5292 66.6017 63.0527 67.0355 62.8449 67.7034C62.7533 67.9987 62.6718 68.2981 62.5965 68.5995C62.0439 70.8194 61.492 73.0413 60.9408 75.2652C60.8868 75.5085 60.8019 75.744 60.6882 75.9658C60.5982 76.111 60.4718 76.2304 60.3216 76.312C60.2239 76.3731 59.9734 76.149 59.9367 75.9841C59.7718 75.1959 59.5803 74.4119 59.4541 73.6176C59.2299 72.3982 59.085 71.1655 59.0203 69.9274C58.9818 69.4328 58.8924 68.9434 58.7535 68.4672C58.6999 68.224 58.5803 68.0002 58.4079 67.8206C58.2354 67.6409 58.0168 67.5123 57.7759 67.4489C57.1408 67.2498 56.4893 67.1073 55.829 67.0232C55.1054 66.9512 54.3906 66.8086 53.6947 66.5976C53.1101 66.4373 52.5173 66.3088 51.9188 66.2127C51.2671 66.0823 50.6113 65.9642 50.0309 65.616C49.9984 65.5697 49.978 65.516 49.9716 65.4598C49.9652 65.4035 49.973 65.3466 49.9943 65.2942C50.111 65.1537 50.2588 65.0421 50.426 64.9684C52.2815 64.2087 54.257 63.7839 56.2607 63.7138C56.6241 63.7074 56.9867 63.6775 57.3462 63.6242C58.1242 63.4959 58.5315 63.0968 58.6883 62.3188C58.8227 61.6508 58.9225 60.9747 59.0569 60.3067C59.4208 58.4846 59.7908 56.6633 60.1669 54.8426C60.194 54.6587 60.2577 54.4821 60.3542 54.3233C60.4646 54.1847 60.6092 54.0773 60.7738 54.0117C60.8124 53.9934 60.9774 54.1481 61.0039 54.2459C61.1592 54.7127 61.285 55.1889 61.3806 55.6715C61.6535 57.26 61.8877 58.8546 62.1505 60.4452C62.2401 60.995 62.3541 61.5429 62.4763 62.0744C62.5183 62.2865 62.6159 62.4837 62.759 62.6457C62.9021 62.8078 63.0857 62.929 63.2909 62.997C64.2135 63.2984 65.1381 63.6079 66.079 63.8238C67.3215 64.1101 68.5324 64.5195 69.6939 65.0457C69.816 65.0868 69.9242 65.1612 70.0063 65.2605C70.0883 65.3598 70.141 65.4801 70.1582 65.6078" fill="#955041"/>
</svg>
