<svg width="71" height="133" viewBox="0 0 71 133" fill="none" xmlns="http://www.w3.org/2000/svg">
<path d="M27.7765 1.56627C27.8361 1.47777 27.9271 1.41519 28.0311 1.39113C28.4139 1.23635 28.7968 1.0775 29.1878 0.943086C29.532 0.816819 29.8762 0.729247 30.2244 0.629456C30.4281 0.572433 30.6317 0.533738 30.8211 0.468568C31.2645 0.334878 31.7192 0.242166 32.1795 0.191597L33.1978 0.0612571C33.5575 0.0127377 33.9205 -0.00701164 34.2833 0.00219703C34.5949 0.00219703 34.8942 0.0286723 35.214 0.020526C35.4888 0.0187699 35.7627 0.0530034 36.0286 0.122354C36.4302 0.217412 36.8389 0.280068 37.2505 0.309717C37.6579 0.348412 38.0652 0.413581 38.4725 0.466532C38.5565 0.484395 38.6415 0.497315 38.727 0.505226C39.1042 0.52712 39.4781 0.587166 39.8431 0.684443C40.2504 0.772015 40.6577 0.85755 41.065 0.930866C41.7248 1.05637 42.367 1.26153 42.9773 1.54183C43.0875 1.59325 43.2004 1.63879 43.3154 1.67828C43.7716 1.83102 44.2196 2.01024 44.6656 2.19557C45.073 2.36868 45.4986 2.52549 45.9202 2.67619C46.3586 2.83889 46.7658 3.07588 47.1238 3.37677C47.3661 3.58043 47.6105 3.76575 47.8569 3.96126C48.7606 4.66585 49.6235 5.42127 50.4413 6.22388C50.8452 6.63328 51.2088 7.08067 51.5268 7.55986C52.0461 8.32356 52.5634 9.09338 53.0705 9.86931C53.3862 10.352 53.6815 10.8448 53.989 11.3356C54.1209 11.582 54.2721 11.8177 54.4411 12.0403C54.5117 12.1398 54.5692 12.2479 54.6122 12.3621C54.8687 12.9204 55.095 13.4922 55.2904 14.0748C55.4553 14.5554 55.6121 15.0401 55.7547 15.5289C55.8274 15.7823 55.8752 16.0421 55.8972 16.3048C55.935 16.7253 55.9955 17.1434 56.0785 17.5573C56.1268 17.8175 56.1547 18.081 56.162 18.3455C56.1722 18.6082 56.1925 18.8709 56.2048 19.1356C56.2211 19.433 56.2414 19.7323 56.2435 20.0317C56.2435 20.5429 56.2435 21.05 56.2435 21.5632C56.2435 22.162 56.2272 22.7607 56.1763 23.3554C56.164 23.4979 56.1579 23.6385 56.1559 23.779C56.1292 24.6238 56.038 25.4653 55.883 26.2962C55.6997 27.3348 55.5001 28.3694 55.2965 29.404C55.1499 30.1436 54.9358 30.8682 54.657 31.5688C54.3047 32.466 53.8868 33.3359 53.4065 34.1715C53.3271 34.308 53.2497 34.4444 53.1805 34.5788C52.9236 35.0962 52.6056 35.581 52.2335 36.0228C52.0108 36.2943 51.7861 36.5611 51.5594 36.8231C51.4331 36.9677 51.2987 37.1021 51.1623 37.2304C50.7549 37.6377 50.3429 38.0376 49.9261 38.43C49.3476 39.0062 48.7132 39.5234 48.0321 39.9737C47.6533 40.216 47.2785 40.4665 46.8997 40.7089C46.4028 41.0266 45.8815 41.2893 45.3601 41.5642C44.9019 41.8086 44.4599 42.0795 43.9814 42.2811L41.9305 43.1405C41.8837 43.1609 41.8328 43.1751 41.786 43.1975C41.2524 43.4404 40.6918 43.6188 40.116 43.7291C39.7311 43.8146 39.3462 43.9042 38.9612 43.9938C38.5732 44.0717 38.1778 44.1072 37.7821 44.0997C37.421 44.0987 37.0603 44.1232 36.7027 44.1731C36.4135 44.2138 36.1203 44.2118 35.8331 44.2728C35.7141 44.2962 35.5917 44.2962 35.4726 44.2728C34.8258 44.188 34.1851 44.0621 33.5542 43.8961C33.3081 43.815 33.0494 43.7784 32.7905 43.7881C32.3431 43.785 31.8973 43.7345 31.4606 43.6374C31.3588 43.6211 31.257 43.5926 31.1551 43.5865C30.7602 43.5584 30.3692 43.4902 29.9882 43.3829C29.8049 43.336 29.6216 43.2953 29.4363 43.2546C29.1515 43.1868 28.8734 43.0934 28.6054 42.9756C28.2103 42.8045 27.805 42.6558 27.4058 42.4929C27.1818 42.4013 26.9619 42.3035 26.7439 42.2017C26.3061 41.998 25.8723 41.7842 25.4344 41.5764C25.1607 41.4649 24.9162 41.2921 24.7196 41.0714C24.6622 41.0046 24.5932 40.9488 24.516 40.9064C23.9259 40.5401 23.3631 40.1317 22.8317 39.6845C22.5172 39.4375 22.2205 39.1687 21.9438 38.88C21.8012 38.7293 21.6383 38.597 21.4835 38.4585C21.4061 38.3872 21.3206 38.3261 21.2473 38.2548C20.6994 37.6988 20.1231 37.1673 19.618 36.5686C19.3044 36.1959 18.9887 35.8232 18.6812 35.4423C18.5535 35.2804 18.4365 35.1104 18.3309 34.9332C17.9904 34.36 17.6042 33.8152 17.1762 33.304C17.1414 33.265 17.1088 33.2243 17.0785 33.1818C16.6164 32.5488 16.2174 31.8722 15.8871 31.1615C15.6712 30.6442 15.494 30.1106 15.3168 29.5771C15.1824 29.1698 15.0684 28.7624 14.9604 28.3551C14.8627 27.9987 14.7853 27.6383 14.7018 27.2778C14.6651 27.125 14.6387 26.9682 14.5918 26.8175C14.5437 26.6485 14.5116 26.4753 14.4961 26.3002C14.4594 26.0029 14.4045 25.7096 14.3434 25.4164C14.2591 25.0751 14.2073 24.7267 14.1886 24.3757C14.1867 24.2702 14.1744 24.1652 14.1519 24.0621C14.0664 23.614 14.0358 23.1558 13.9238 22.7118C13.9238 22.6752 13.9442 22.6283 13.9625 22.553C14.0351 22.7064 14.0812 22.8709 14.099 23.0397C14.1359 23.3712 14.209 23.6976 14.3169 24.0132C14.4167 24.3309 14.49 24.6588 14.5816 24.9785C14.7568 25.5895 14.938 26.2005 15.1152 26.7992C15.1661 26.9662 15.2313 27.1312 15.2659 27.3022C15.3723 27.7649 15.5473 28.209 15.7852 28.6199C15.9771 28.9533 16.1393 29.3029 16.2699 29.6646C16.3587 29.9321 16.5031 30.1778 16.6935 30.3856C17.0281 30.7665 17.3135 31.1879 17.5428 31.6401C17.6 31.7493 17.6683 31.8523 17.7464 31.9476C18.0886 32.3895 18.4368 32.8254 18.781 33.2653C18.9956 33.5386 19.2364 33.7903 19.4999 34.0168C19.9357 34.3915 20.3532 34.7845 20.7768 35.1674C20.8517 35.2396 20.9306 35.3076 21.0131 35.3711C21.4204 35.6521 21.8073 35.925 22.2024 36.2101C22.5975 36.4952 23.0171 36.7213 23.3938 37.041C23.5555 37.1715 23.7361 37.2766 23.9294 37.3526C24.165 37.4601 24.3942 37.5811 24.6157 37.7151C25.3876 38.1367 26.1452 38.5929 26.9863 38.8658C27.0352 38.88 27.0841 38.9004 27.135 38.9126C27.6523 39.0389 28.1532 39.2364 28.6603 39.3892C28.9409 39.4724 29.2258 39.5404 29.5137 39.5928C29.8656 39.6703 30.2231 39.7193 30.5829 39.7395C30.8071 39.7518 31.0295 39.7866 31.2468 39.8433C31.678 39.9588 32.1205 40.0271 32.5665 40.047C33.265 40.1896 33.9737 40.1244 34.6763 40.1366C34.8657 40.1382 35.0545 40.1163 35.2384 40.0714C35.6905 39.9696 36.1467 39.8861 36.6009 39.7924C36.9219 39.7284 37.2491 39.6997 37.5764 39.7069C38.0771 39.7157 38.5737 39.6164 39.0325 39.4157C39.3331 39.2884 39.6404 39.1776 39.953 39.0837C40.5845 38.904 41.1833 38.6249 41.7269 38.2569C42.0405 38.0369 42.3664 37.8496 42.6922 37.6459C43.4672 37.1494 44.215 36.6116 44.9324 36.035C45.2033 35.8153 45.4474 35.5644 45.6595 35.2876C45.8321 35.0658 46.0258 34.8612 46.2379 34.6766C46.3084 34.6267 46.3715 34.567 46.4252 34.4994C46.7551 34.0453 47.1828 33.6848 47.5148 33.2306C47.6616 33.0367 47.8237 32.8549 47.9995 32.6869C48.4801 32.2041 48.9063 31.6701 49.2703 31.0943C49.4269 30.8611 49.5478 30.6057 49.6287 30.3367C49.7073 30.0673 49.8246 29.8107 49.977 29.575C50.2051 29.221 50.3929 28.8425 50.537 28.4468C50.6209 28.2166 50.7251 27.9944 50.8486 27.7829C50.9607 27.587 51.0574 27.3827 51.1378 27.1719C51.313 26.7116 51.4881 26.2534 51.6388 25.785C51.8149 25.2143 51.9597 24.6343 52.0726 24.0478C52.2029 23.4083 52.3048 22.7668 52.3964 22.1233C52.4331 21.8626 52.4657 21.6019 52.5003 21.3412C52.5634 20.7266 52.5552 20.1068 52.4758 19.4941C52.4435 19.1445 52.3753 18.7992 52.2722 18.4636C52.0685 17.7874 51.9341 17.0991 51.8017 16.4087C51.6231 15.4946 51.3802 14.5942 51.0747 13.7143C50.9647 13.4007 50.8527 13.085 50.7651 12.7633C50.5962 12.1729 50.3328 11.6137 49.9851 11.1075C49.8039 10.8306 49.6572 10.5292 49.4964 10.24L48.9668 9.2726C48.7925 8.9683 48.5878 8.68241 48.3559 8.41928C48.0993 8.11176 47.8569 7.78999 47.6268 7.4621C47.2069 6.84041 46.7199 6.26674 46.1747 5.75139C46.0098 5.59865 45.857 5.42758 45.6921 5.27688C45.3316 4.92516 44.9388 4.6081 44.519 4.32988C44.1687 4.10789 43.8327 3.85943 43.5007 3.62116C43.4277 3.57135 43.3595 3.51476 43.2971 3.45212C43.13 3.2729 42.9246 3.13368 42.6963 3.04481C42.1342 2.82283 41.6067 2.51938 41.0365 2.3198C40.7908 2.23222 40.553 2.12389 40.3257 1.99599C39.7649 1.69131 39.1655 1.46387 38.5438 1.31985C38.0448 1.19358 37.5357 1.11619 37.0286 1.00622C36.9064 0.989754 36.7832 0.980912 36.6599 0.979744C36.1121 0.941049 35.5602 0.930867 35.0164 0.859587C34.4868 0.795222 33.9532 0.769358 33.4198 0.782198C33.2161 0.782198 33.0125 0.814783 32.8088 0.831075C32.6052 0.847368 32.3628 0.865697 32.1408 0.873843C31.3514 0.912985 30.5655 1.00552 29.7886 1.15081C29.1593 1.25875 28.5483 1.4339 27.9292 1.57849C27.878 1.58224 27.8265 1.57812 27.7765 1.56627" fill="#955041"/>
<path d="M24.9944 122.112C25.0229 122.161 25.0412 122.236 25.084 122.253C25.475 122.407 25.8599 122.629 26.2672 122.69C27.8211 122.921 29.3587 123.32 30.9513 123.202C31.5888 123.157 32.106 123.595 32.3219 124.22C32.3606 124.336 32.4075 124.452 32.438 124.572C32.9716 126.737 33.4929 128.904 34.0367 131.067C34.1874 131.663 34.3972 132.246 34.6029 132.826C34.6358 132.875 34.6797 132.915 34.731 132.943C34.7823 132.971 34.8396 132.987 34.8982 132.989C34.9857 132.989 35.1018 132.883 35.1527 132.786C35.2057 132.674 35.2394 132.554 35.2525 132.431C35.5926 130.729 35.9694 129.034 36.0671 127.289C36.1178 126.605 36.2097 125.925 36.3421 125.252C36.4724 124.497 36.953 124.061 37.6618 123.888C38.066 123.756 38.482 123.664 38.9041 123.613C40.069 123.562 41.1646 123.183 42.2847 122.919C43.0994 122.715 43.9608 122.65 44.7632 122.348C44.8748 122.303 44.9813 122.247 45.0809 122.179C45.1237 122.153 45.1767 122.084 45.1705 122.043C45.1481 121.931 45.1298 121.758 45.0545 121.719C44.0333 121.179 42.9337 120.804 41.796 120.605C40.8999 120.45 39.9936 120.365 39.0874 120.261C38.788 120.228 38.4764 120.261 38.1811 120.228C37.0712 120.08 36.6231 119.782 36.3848 118.501C35.9857 116.368 35.575 114.238 35.1527 112.111C35.0407 111.631 34.893 111.161 34.7108 110.703C34.6843 110.628 34.5071 110.565 34.4135 110.573C34.3572 110.58 34.3034 110.6 34.2564 110.631C34.2093 110.663 34.1703 110.705 34.1426 110.754C33.7149 112.18 33.5052 113.658 33.2872 115.129C33.1365 116.171 32.994 117.218 32.8168 118.257C32.7792 118.564 32.6554 118.855 32.4597 119.095C32.264 119.335 32.0044 119.514 31.711 119.613C30.6252 120.004 29.5149 120.323 28.3873 120.568C27.2604 120.813 26.1765 121.225 25.1716 121.79C25.084 121.841 25.0473 121.994 24.9883 122.09" fill="#955041"/>
<path d="M47.4899 86.454C48.7403 86.4011 49.4552 86.9163 49.9093 88.7533C50.7789 92.2582 51.62 95.7713 52.5018 99.2721C52.7055 100.111 52.8399 100.999 53.3877 101.716C53.4542 101.782 53.5373 101.828 53.6281 101.85C53.6719 101.874 53.7205 101.888 53.7703 101.89C53.8201 101.893 53.8699 101.884 53.9157 101.864C53.9616 101.845 54.0024 101.815 54.0352 101.777C54.0679 101.739 54.0916 101.695 54.1046 101.647C54.3286 100.802 54.5812 99.9584 54.7156 99.099C55.0699 96.9789 55.4956 94.8711 55.5974 92.7083C55.6761 91.6372 55.8292 90.5729 56.0556 89.5231C56.2593 88.4437 57.023 87.8287 58.0005 87.5863C59.1105 87.3053 60.2611 87.1933 61.3853 86.955C64.1856 86.3624 66.9858 85.7575 69.7515 84.9958C69.9189 84.931 70.0615 84.8148 70.1588 84.6639C70.0239 84.4214 69.8635 84.194 69.6802 83.9857C69.6074 83.9218 69.521 83.8751 69.4277 83.8493C66.3154 82.5972 63.0055 81.9077 59.6522 81.8127C59.0795 81.8144 58.5085 81.7522 57.9496 81.6274C57.57 81.5386 57.2208 81.3503 56.9381 81.0818C56.6553 80.8134 56.4491 80.4745 56.3408 80.1C56.2354 79.7242 56.1518 79.3428 56.0903 78.9574C55.5879 76.4674 55.0849 73.9767 54.5812 71.4853C54.3123 70.1453 54.0598 68.8011 53.7665 67.4652C53.6737 67.193 53.5361 66.9383 53.3592 66.7116C53.3165 66.6444 53.2004 66.6261 53.121 66.5833C52.9051 66.4713 52.7136 66.5141 52.6403 66.7483C52.3403 67.6715 52.0908 68.6104 51.8929 69.5608C51.4306 72.2572 51.0376 74.9658 50.6078 77.6683C50.5398 78.1491 50.4419 78.6252 50.3146 79.0939C50.0865 79.8841 49.6283 80.5032 48.8279 80.7517C47.3697 81.2078 45.9116 81.6783 44.431 82.055C42.6673 82.5011 40.922 82.9898 39.2622 83.7535C38.9194 83.9242 38.59 84.1202 38.2765 84.3401C38.2385 84.3704 38.2082 84.4093 38.1881 84.4535C38.1679 84.4977 38.1584 84.5461 38.1604 84.5946C38.1944 84.7638 38.2789 84.9186 38.4028 85.0386C38.634 85.2124 38.899 85.3359 39.1807 85.4011C41.4386 85.7935 43.6992 86.1689 45.9625 86.5273C46.2394 86.5721 46.5327 86.5008 47.4756 86.4459" fill="#955041"/>
<path d="M0.00195313 65.6078C0.360788 65.9313 0.819004 66.1231 1.30128 66.1516C2.85924 66.3552 4.39277 66.7809 5.98535 66.6526C6.63094 66.6017 7.1075 67.0355 7.31523 67.7034C7.40687 67.9987 7.48833 68.2981 7.56369 68.5995C8.11627 70.8194 8.66818 73.0413 9.2194 75.2652C9.27336 75.5085 9.35823 75.744 9.47194 75.9658C9.56197 76.111 9.68832 76.2304 9.83852 76.312C9.93627 76.3731 10.1868 76.149 10.2234 75.9841C10.3884 75.1959 10.5798 74.4119 10.7061 73.6176C10.9303 72.3982 11.0752 71.1655 11.1399 69.9274C11.1784 69.4328 11.2678 68.9434 11.4067 68.4672C11.4602 68.224 11.5798 68.0002 11.7523 67.8206C11.9247 67.6409 12.1434 67.5123 12.3842 67.4489C13.0193 67.2498 13.6709 67.1073 14.3312 67.0232C15.0548 66.9512 15.7696 66.8086 16.4655 66.5976C17.05 66.4373 17.6429 66.3088 18.2413 66.2127C18.893 66.0823 19.5488 65.9642 20.1292 65.616C20.1618 65.5697 20.1822 65.516 20.1886 65.4598C20.195 65.4035 20.1872 65.3466 20.1659 65.2942C20.0491 65.1537 19.9013 65.0421 19.7341 64.9684C17.8786 64.2087 15.9032 63.7839 13.8994 63.7138C13.536 63.7074 13.1734 63.6775 12.8139 63.6242C12.036 63.4959 11.6287 63.0968 11.4718 62.3188C11.3374 61.6508 11.2376 60.9747 11.1032 60.3067C10.7394 58.4846 10.3694 56.6633 9.9933 54.8426C9.96617 54.6587 9.90246 54.4821 9.80593 54.3233C9.69558 54.1847 9.55097 54.0773 9.3864 54.0117C9.34771 53.9934 9.18275 54.1481 9.15627 54.2459C9.00098 54.7127 8.87515 55.1889 8.77951 55.6715C8.50661 57.26 8.27241 58.8546 8.00969 60.4452C7.92008 60.995 7.80604 61.5429 7.68384 62.0744C7.64182 62.2865 7.54428 62.4837 7.40116 62.6457C7.25805 62.8078 7.07449 62.929 6.86922 62.997C5.94666 63.2984 5.02206 63.6079 4.08117 63.8238C2.83865 64.1101 1.62771 64.5195 0.466288 65.0457C0.344151 65.0868 0.235932 65.1612 0.153873 65.2605C0.0718145 65.3598 0.0191903 65.4801 0.00195312 65.6078" fill="#955041"/>
</svg>
